<svg width="88" height="32" viewBox="0 0 88 32" fill="none" xmlns="http://www.w3.org/2000/svg">
<path d="M32.1267 0.103623H36.7795V6.98392C36.8811 6.99997 36.9399 7.02537 36.956 7.00932C38.4401 5.55064 40.2036 5.28457 42.0768 5.9825C43.9178 6.66839 44.7294 8.23671 44.7936 10.0738C44.9006 13.0954 44.823 16.1238 44.823 19.2096H40.1354C40.1354 18.9676 40.1368 18.7122 40.1354 18.4569C40.1207 16.1626 40.118 13.8682 40.0806 11.5752C40.0699 10.8853 39.7851 10.3184 39.0591 10.0938C38.4067 9.89194 37.7542 9.95611 37.3731 10.5297C37.083 10.9669 36.8851 11.5472 36.8704 12.0699C36.8116 14.2065 36.8397 16.3457 36.8357 18.485C36.8357 18.7042 36.8357 18.9235 36.8357 19.2069H32.1267V0.103623Z" fill="black"/>
<path d="M26.0192 7.01857V6.01313H30.525V19.2269H26.0446C26.0286 18.898 26.0125 18.5931 25.9938 18.1974C25.6636 18.4541 25.3948 18.6988 25.0927 18.8913C23.3144 20.0264 20.6605 19.8352 18.8154 18.4501C14.799 15.4351 15.287 8.52539 19.7192 6.30995C21.8036 5.26841 23.8827 5.30451 25.7612 6.89824C25.8066 6.93701 25.8708 6.95038 26.0206 7.0199L26.0192 7.01857ZM23.3479 15.3322C24.8948 15.3428 26.0607 14.2077 26.0781 12.6728C26.0954 11.0938 24.9469 9.93594 23.3612 9.93461C21.8223 9.93461 20.6658 11.0858 20.6631 12.6247C20.6605 14.1649 21.8063 15.3215 23.3479 15.3335V15.3322Z" fill="black"/>
<path d="M0.930109 5.96512C2.57197 5.96512 4.12959 5.9464 5.68455 5.98918C5.87307 5.99453 6.13512 6.29002 6.22337 6.50661C7.08708 8.65253 7.92138 10.8091 8.76638 12.9631C8.83724 13.1436 8.91879 13.3187 9.06453 13.657C9.4536 12.6876 9.79053 11.8587 10.1208 11.0257C10.7184 9.51624 11.3241 8.00942 11.8977 6.49057C12.0461 6.09882 12.2399 5.94908 12.6705 5.9571C14.1131 5.98517 15.5571 5.96779 17.0987 5.96779C16.5131 7.39974 15.9622 8.75414 15.4033 10.1045C13.5315 14.6263 11.6503 19.1441 9.78919 23.6699C9.62207 24.075 9.4282 24.2515 8.96425 24.2408C7.54167 24.2074 6.11774 24.2288 4.57482 24.2288C4.67376 23.9453 4.7366 23.7247 4.82484 23.5148C5.31285 22.3449 5.78616 21.1684 6.30893 20.0145C6.51082 19.5679 6.49612 19.1949 6.30626 18.7524C4.59488 14.7413 2.90221 10.7236 1.20553 6.70583C1.11328 6.48656 1.03841 6.25926 0.928772 5.96646L0.930109 5.96512Z" fill="black"/>
<path d="M67.9727 5.65489C72.0452 5.65222 75.0883 8.64179 75.0883 12.6448C75.0883 16.6265 72.0305 19.6107 67.9473 19.612C63.8627 19.6134 60.8384 16.6358 60.845 12.6208C60.8531 8.60569 63.8707 5.65489 67.9714 5.65356L67.9727 5.65489ZM70.5705 12.6515C70.5772 11.0992 69.4742 9.97614 67.9473 9.97748C66.4766 9.97881 65.3428 11.1233 65.3348 12.6114C65.3267 14.141 66.4512 15.2788 67.974 15.2828C69.4568 15.2868 70.5652 14.165 70.5705 12.6515Z" fill="black"/>
<path d="M60.0563 12.6194C60.075 16.5931 57.0587 19.592 53.0236 19.6134C48.927 19.6348 45.8385 16.6786 45.8171 12.7157C45.7943 8.66319 48.8053 5.67362 52.9273 5.6549C57.0079 5.63618 60.0376 8.59634 60.0577 12.6194H60.0563ZM50.3322 12.6141C50.3215 14.1356 51.4031 15.2614 52.8912 15.2801C54.4181 15.2988 55.5586 14.1784 55.5666 12.6488C55.576 11.1487 54.4662 9.99754 52.9955 9.97882C51.466 9.9601 50.3415 11.0712 50.3322 12.6141Z" fill="black"/>
<path d="M87.9284 0.072832C86.2465 4.14004 84.6019 8.11634 82.9521 12.1073H77.3954C77.4609 11.9081 77.5077 11.729 77.5772 11.5592C79.0667 7.94386 80.5695 4.33391 82.0415 0.71059C82.2381 0.22659 82.4747 0.0434175 83.0122 0.0581247C84.6099 0.0995723 86.2104 0.072832 87.9284 0.072832Z" fill="black"/>
<path d="M59.1713 31.7508H56.5481C56.516 31.5663 56.4866 31.3965 56.4558 31.2253C56.413 31.22 56.3569 31.1959 56.3301 31.2147C53.9195 32.8137 51.1906 31.5863 50.7949 28.6917C50.5943 27.2303 50.9272 25.888 52.0557 24.8531C53.2791 23.7314 54.8594 23.7207 56.4277 24.8157C56.4692 24.6138 56.5053 24.4333 56.5494 24.2207H59.1726V31.7508H59.1713ZM56.524 28.0005C56.5334 27.1541 55.8582 26.4803 55.0051 26.4829C54.1896 26.4856 53.5064 27.1381 53.4769 27.939C53.4475 28.7626 54.1361 29.4725 54.9757 29.4846C55.8394 29.4966 56.5146 28.8495 56.524 27.9991V28.0005Z" fill="black"/>
<path d="M67.7143 31.7348H64.9787C64.9787 31.1037 64.9828 30.47 64.9787 29.8376C64.9734 29.0594 64.956 28.2799 64.952 27.5018C64.9493 26.9162 64.6833 26.5659 64.0829 26.5539C63.4759 26.5432 63.1898 26.9135 63.1751 27.4791C63.143 28.7024 63.1403 29.9258 63.123 31.1479C63.1203 31.3243 63.1002 31.4995 63.0855 31.7214H60.3433C60.3299 31.5262 60.3018 31.315 60.3018 31.1051C60.3099 29.014 60.338 26.9229 60.3246 24.8318C60.3219 24.3371 60.4596 24.1593 60.965 24.1887C61.6482 24.2288 62.3355 24.198 63.0481 24.198C63.0989 24.4146 63.143 24.6005 63.1497 24.6312C63.8316 24.42 64.4974 24.075 65.1833 24.0309C66.4963 23.9453 67.6006 24.8171 67.6849 26.1153C67.8052 27.9698 67.7156 29.8362 67.7156 31.7348H67.7143Z" fill="black"/>
<path d="M49.9546 31.7347H47.2418C47.2418 30.7841 47.2485 29.8575 47.2391 28.9323C47.2338 28.4202 47.2124 27.9095 47.1816 27.3988C47.1495 26.8827 46.8848 26.5698 46.346 26.5484C45.7711 26.5244 45.4649 26.8613 45.4087 27.3827C45.3432 28.0004 45.3486 28.6275 45.3405 29.2505C45.3312 30.0675 45.3379 30.8844 45.3379 31.7361H42.6224V24.234H45.2536C45.2977 24.4052 45.3486 24.6071 45.4167 24.8772C46.0037 24.2621 46.6628 23.9773 47.4704 24.0067C48.782 24.0535 49.869 24.9346 49.9305 26.2556C50.0148 28.0526 49.9519 29.8562 49.9519 31.7387L49.9546 31.7347Z" fill="black"/>
<path d="M82.654 28.6676H77.6816C77.7177 29.6316 78.8448 30.1784 79.6497 29.5875C80.1417 29.2265 80.5041 29.2893 80.968 29.4912C81.4534 29.7024 81.9521 29.8843 82.4468 30.0808C81.6833 31.7454 79.2032 32.4781 77.1749 31.6705C75.2884 30.9191 74.3752 28.7358 75.0771 26.6567C75.767 24.6164 77.9196 23.5468 80.1003 24.1592C81.9561 24.6806 83.1126 26.6821 82.654 28.6689V28.6676ZM80.0161 27.0618C79.8623 26.3532 79.4639 26.0698 78.7205 26.1313C78.1536 26.1781 77.7485 26.4214 77.6174 27.0618H80.0161Z" fill="black"/>
<path d="M33.12 26.4763C32.7376 26.4509 32.4742 26.4322 32.1493 26.4108V24.2301C32.4368 24.2034 32.7349 24.1766 33.0612 24.1472C33.1173 23.7421 33.1467 23.345 33.2296 22.9599C33.6321 21.1001 35.7312 19.9717 37.4987 20.6723C37.6418 20.7285 37.8102 20.9357 37.8183 21.0801C37.8544 21.6978 37.833 22.3195 37.833 22.8409C37.2433 22.9666 36.6912 23.0041 36.2219 23.2207C36.0079 23.3196 35.9558 23.7715 35.782 24.1726H37.6979V26.4482H35.9023V31.7214H33.12V26.4776V26.4763Z" fill="black"/>
<path d="M74.3279 26.8413C73.3078 26.4549 72.3317 26.2116 71.5736 27.2023C71.2086 27.681 71.2487 28.427 71.6525 28.8789C72.4374 29.756 73.3599 29.5087 74.352 29.0942C74.352 29.8857 74.372 30.6278 74.3332 31.3671C74.3266 31.4982 74.1006 31.6893 73.9428 31.7321C72.3986 32.16 70.9265 32.0624 69.7058 30.9072C68.4571 29.7253 68.2645 28.2238 68.7325 26.6608C69.1991 25.1045 70.365 24.2502 71.952 24.0363C74.0511 23.7541 74.4442 24.1312 74.38 26.2129C74.3747 26.4054 74.3493 26.5966 74.3279 26.8413Z" fill="black"/>
<path d="M78.7352 19.497C76.9716 19.5064 75.6426 18.1921 75.6426 16.4366C75.6426 14.7038 77.0532 13.2919 78.782 13.2932C80.5575 13.2932 81.8812 14.6115 81.8665 16.3644C81.8518 18.1399 80.5054 19.4876 78.7338 19.497H78.7352Z" fill="black"/>
<path d="M38.7044 31.7147V24.2314H41.3718V31.7147H38.7044Z" fill="black"/>
<path d="M40.0231 23.4934C39.1701 23.4853 38.4802 22.8075 38.4882 21.9852C38.4976 21.1563 39.1928 20.4757 40.0351 20.4717C40.9162 20.4677 41.6142 21.1683 41.5914 22.0347C41.57 22.8797 40.9015 23.5014 40.0231 23.4934Z" fill="black"/>
</svg>
