<svg width="178" height="24" viewBox="0 0 178 24" fill="none" xmlns="http://www.w3.org/2000/svg">
<path fill-rule="evenodd" clip-rule="evenodd" d="M13.7074 23.4759H19.8195V7.12214H13.7074V23.4759ZM13.7074 5.35708H19.8195V0.976385H13.7074V5.35708ZM3.03343 23.4759H9.14549V11.6678H12.2317V7.12097H9.02115C8.9282 5.61039 9.35464 5.38961 10.8362 5.38961H12.3851V0.975223C11.459 0.943849 10.5643 0.975223 9.63817 0.975223C7.16895 0.975223 5.62583 1.16463 4.29651 2.52067C3.12523 3.71751 2.97069 5.51394 3.03343 7.12097H0.532837V11.6678H3.03343V23.4759ZM21.4126 23.4759H27.5246V14.8424C27.5246 12.2256 28.9132 11.6911 29.9625 11.6911C31.7531 11.6911 31.9692 13.0146 31.9692 14.9051V23.4759H38.0813V12.2581C38.0813 8.50839 35.4575 6.71195 32.5874 6.71195C30.1472 6.71195 28.5112 7.56253 27.3701 9.20093H27.3085V7.12097H21.4126V23.4759ZM49.6256 17.6463C49.5327 19.3474 48.452 20.198 47.0646 20.198C45.9526 20.198 45.1497 19.4427 45.1497 18.6862C45.1497 17.5823 45.8608 17.2372 47.218 16.9212C48.0523 16.7329 48.8855 16.5122 49.6256 16.1333V17.6463ZM55.4914 13.1087C55.4914 9.95738 55.5529 6.71195 47.8978 6.71195C44.1004 6.71195 39.8405 7.46725 39.6558 12.0687H45.3356C45.3658 11.375 45.7365 10.3989 47.62 10.3989C48.6077 10.3989 49.6256 10.808 49.6256 11.9107C49.6256 12.9518 48.7925 13.2028 47.9593 13.3608C44.8406 13.9593 38.9144 13.7699 38.9144 18.9384C38.9144 22.3732 41.4766 23.885 44.564 23.885C46.5394 23.885 48.4218 23.4446 49.7186 21.9317H49.7802C49.75 22.3732 49.8418 23.0355 49.9963 23.4771H55.4914V13.1087ZM57.0531 23.4759H63.1651V14.8424C63.1651 12.2256 64.5537 11.6911 65.603 11.6911C67.3936 11.6911 67.6097 13.0146 67.6097 14.9051V23.4759H73.7218V12.2581C73.7218 8.50839 71.098 6.71195 68.2267 6.71195C65.7877 6.71195 64.1516 7.56253 63.0094 9.20093H62.9478V7.12097H57.0531V23.4759ZM74.8965 23.4759H90.8855V18.9384H82.9224L90.2383 11.9107V7.12097H75.574V11.6597H82.396L74.8954 18.6549V23.4771L74.8965 23.4759ZM96.8442 13.455C97.123 11.6911 98.1723 10.715 99.9931 10.715C101.566 10.715 102.678 11.9432 102.678 13.455H96.8442ZM108.543 16.7016C108.543 10.3362 105.796 6.71195 99.4377 6.71195C94.3749 6.71195 90.9796 10.5883 90.9796 15.3455C90.9796 20.7976 94.8374 23.8861 99.9618 23.8861C103.603 23.8861 106.969 22.2466 108.205 18.7176H102.494C102 19.5054 100.918 19.8831 99.9316 19.8831C98.0178 19.8831 96.9685 18.5607 96.8139 16.7016H108.543ZM109.562 23.4759H115.674V14.8424C115.674 12.2256 117.064 11.6911 118.112 11.6911C119.903 11.6911 120.119 13.0146 120.119 14.9051V23.4759H125.968V12.2581C125.968 8.50839 123.608 6.71195 120.736 6.71195C118.298 6.71195 116.662 7.56253 115.52 9.20093H115.458V7.12097H109.562V23.4759ZM140.019 6.93389H142.004V9.79354H142.065C142.79 7.8019 144.963 6.45051 147.262 6.45051C151.826 6.45051 153.211 8.89417 153.211 12.8472V23.5178H151.229V13.1691C151.229 10.3083 150.315 8.15398 147.104 8.15398C143.955 8.15398 142.065 10.5976 142.002 13.8442V23.5178H140.019V6.93389ZM167.727 14.0685C167.632 11.0148 165.774 8.15398 162.564 8.15398C159.32 8.15398 157.525 11.0473 157.211 14.0685H167.727ZM157.211 15.772C157.242 18.7292 158.753 22.2965 162.564 22.2965C165.459 22.2965 167.035 20.5605 167.665 18.0529H169.647C168.798 21.8143 166.656 24 162.564 24C157.4 24 155.227 19.9505 155.227 15.2258C155.227 10.8544 157.4 6.45051 162.564 6.45051C167.789 6.45051 169.868 11.1124 169.71 15.772H157.211ZM174.622 6.93389H177.929V8.6362H174.623V19.8215C174.623 21.1392 174.81 21.9107 176.226 22.006C176.795 22.006 177.362 21.9747 177.929 21.9107V23.6456C177.329 23.6456 176.762 23.7107 176.165 23.7107C173.52 23.7107 172.607 22.8101 172.638 19.9818V8.6362H169.805V6.93389H172.638V1.95013H174.623V6.93273L174.622 6.93389Z" fill="#2A3035"/>
<path fill-rule="evenodd" clip-rule="evenodd" d="M132.892 23.6502C135.79 23.6502 138.139 21.2519 138.139 18.2946C138.139 15.3362 135.79 12.9378 132.892 12.9378C129.994 12.9378 127.646 15.3362 127.646 18.2946C127.646 21.2519 129.994 23.6502 132.892 23.6502Z" fill="#2A3035"/>
<path fill-rule="evenodd" clip-rule="evenodd" d="M132.892 17.4684C135.135 17.4684 137.091 18.7036 138.131 18.4735C138.132 18.4131 138.139 18.355 138.139 18.2946C138.139 15.3362 135.79 12.9378 132.892 12.9378C129.994 12.9378 127.646 15.3362 127.646 18.2946C127.646 18.355 127.652 18.4131 127.654 18.4735C128.693 18.7048 130.649 17.4684 132.892 17.4684Z" fill="#2A3035"/>
</svg>
