<svg width="90" height="24" viewBox="0 0 90 24" fill="none" xmlns="http://www.w3.org/2000/svg">
<path d="M17.9655 0C17.9655 0 17.6797 0.209059 17.598 0.376307L17.5163 0.501742V11.9582C17.5163 21.6585 17.5163 23.4146 17.5163 23.5401C17.5163 23.6655 17.7205 23.8746 17.843 23.9582H17.9246L22.7019 24H27.6017C27.6017 24 27.8875 23.7073 27.9283 23.5819C27.9283 23.4983 27.9692 23.3728 27.9692 21.8258C27.9692 20.4878 27.9692 20.1533 27.9692 20.0279C27.9283 19.8606 27.765 19.6934 27.6017 19.6098H27.4792L24.9476 19.5679H22.4161V4.47387H24.9068C27.6017 4.47387 27.5608 4.47387 27.7242 4.34843C27.8467 4.26481 27.9692 4.05575 28.01 3.93031C28.01 3.84669 28.01 3.26132 28.01 2.17422V0.543554L27.9283 0.418118C27.9283 0.334495 27.8058 0.250871 27.765 0.167247C27.6017 0 28.0508 0 22.7836 0C18.7004 0 18.0471 0 17.9655 0Z" fill="black"/>
<path d="M37.7272 0C37.7272 0 37.4414 0.209059 37.3597 0.376307L37.278 0.501742V2.17422C37.278 3.84669 37.278 3.84669 37.3189 3.97213C37.3597 4.09756 37.4822 4.223 37.6047 4.30662C37.768 4.39024 37.768 4.43206 40.4221 4.43206H42.9128V19.5679H40.3404H37.768H37.6864C37.6864 19.5679 37.5639 19.7352 37.4822 19.777C37.278 19.9861 37.3189 19.8606 37.3189 21.7422C37.3189 23.0801 37.3189 23.4564 37.3189 23.5401C37.3597 23.6655 37.5639 23.8746 37.6864 23.9582H37.8089L42.5861 24H47.3634L47.4451 23.9582C47.5675 23.8746 47.7309 23.7073 47.7717 23.5819C47.8125 23.4564 47.8125 23.2056 47.8125 12V0.543554L47.7309 0.418118C47.7309 0.418118 47.6084 0.250871 47.5675 0.167247C47.3634 0 47.7717 0 42.5453 0C38.4213 0 37.8089 0 37.7272 0Z" fill="black"/>
<path d="M77.7008 8.02797C76.7617 9.11508 76.5984 9.32414 76.5984 9.40776V9.49139H77.7825V11.7074C77.7825 14.0489 77.7825 14.2579 77.905 14.5924C77.9866 14.8851 78.0683 15.0524 78.2725 15.2614C78.5174 15.5123 78.8849 15.6377 79.4157 15.6377C79.9874 15.6377 80.5182 15.5123 81.1306 15.2614H81.2531V14.7179C81.2531 14.467 81.2531 14.2579 81.2531 14.2579C81.2531 14.2579 81.0898 14.2998 80.9265 14.3834C80.5182 14.5506 80.1099 14.6342 79.7424 14.6342C79.2116 14.6342 79.0482 14.5506 78.9666 14.1325C78.9666 14.0071 78.9666 13.5889 78.9666 11.7492V9.5332H81.2531V8.61334H78.9666V6.81543H78.9258C78.9258 6.81543 78.6399 7.10811 77.7825 8.1116L77.7008 8.02797Z" fill="black"/>
<path d="M24.5388 8.02783C24.5388 8.02783 24.4572 8.06964 24.4163 8.11146L24.3347 8.19508V9.15675C24.3347 10.0766 24.3347 10.1184 24.3755 10.1602C24.498 10.2857 24.4572 10.2857 25.6005 10.2857H26.6212V13.5052H25.5596H24.498L24.4163 13.5888L24.3347 13.6724V14.6341C24.3347 15.554 24.3347 15.5958 24.3755 15.6376C24.498 15.763 24.253 15.763 28.0912 15.763C31.9293 15.763 31.7252 15.763 31.8068 15.5958C31.8477 15.5122 31.8477 15.4285 31.8068 14.5923C31.8068 13.7561 31.8068 13.6724 31.766 13.6306C31.6843 13.5052 31.6435 13.5052 30.5411 13.5052H29.5203V10.2857H30.5411C31.6843 10.2857 31.6843 10.2857 31.766 10.1184C31.8068 10.0348 31.8068 9.95118 31.766 9.11494C31.766 8.2787 31.766 8.19508 31.7252 8.15327C31.6435 8.02783 31.8477 8.02783 28.0095 8.02783C26.0904 8.02783 24.4572 8.02783 24.4572 8.02783H24.5388Z" fill="black"/>
<path d="M33.4414 8.0697C33.4414 8.0697 33.278 7.86064 33.278 11.9164C33.278 15.5122 33.278 15.5958 33.3189 15.6795C33.4005 15.8467 33.4005 15.8467 34.5846 15.8467C35.6054 15.8467 35.6871 15.8467 35.7279 15.8049C35.8504 15.7213 35.8504 15.8049 35.8912 14.0906V12.5436L37.1162 14.1324C38.0961 15.4286 38.382 15.7631 38.4636 15.8049H38.5861L39.5661 15.8885C40.6685 15.8885 40.6277 15.8885 40.7502 15.7213C40.791 15.6376 40.791 15.554 40.791 11.9582C40.791 7.90245 40.791 8.19513 40.6277 8.11151C40.546 8.0697 40.5052 8.0697 39.4844 8.0697C38.3411 8.0697 38.3411 8.0697 38.2186 8.19513C38.1778 8.23694 38.1778 8.27876 38.1778 9.95123V11.6655L36.9529 9.99304C36.2996 9.07318 35.7279 8.27876 35.6871 8.23694C35.5646 8.11151 35.5238 8.11151 34.4622 8.11151C33.523 8.11151 33.4822 8.11151 33.4005 8.15332L33.4414 8.0697Z" fill="black"/>
<path d="M53.4067 8.27881C52.9168 8.32062 52.3859 8.44606 51.9368 8.69693C51.2427 9.03142 50.6302 9.6586 50.3444 10.3276C50.0586 10.9548 49.9361 11.7074 50.0177 12.5018C50.1811 14.2579 51.406 15.5123 53.2026 15.7631C53.5292 15.8049 54.2234 15.8049 54.5908 15.7631C54.9175 15.7631 55.1216 15.6795 55.4891 15.5959L55.7341 15.5123V14.9687C55.7341 14.676 55.7341 14.4252 55.7341 14.4252C55.7341 14.4252 55.6116 14.4252 55.4891 14.5088C55.2033 14.6342 54.7542 14.7178 54.3867 14.7596C53.9784 14.8015 53.4067 14.7596 53.0801 14.7178C52.7943 14.6342 52.5493 14.5506 52.3043 14.3833C52.0185 14.2161 51.896 14.0907 51.6918 13.8398C51.2835 13.338 51.0793 12.7527 51.0793 12.0419C51.0793 10.7457 51.8143 9.74222 53.0392 9.40773C53.3251 9.3241 53.3251 9.3241 53.7742 9.3241C54.1417 9.3241 54.305 9.3241 54.5092 9.36592C54.8767 9.44954 55.285 9.53316 55.53 9.61679L55.6933 9.70041V9.15686V8.6133L55.4891 8.52968C55.2441 8.44606 54.795 8.36243 54.5092 8.32062C54.1825 8.32062 53.6109 8.27881 53.3251 8.32062L53.4067 8.27881Z" fill="black"/>
<path d="M72.4338 8.27875C71.7396 8.36237 71.0455 8.69687 70.5555 9.19861L70.3922 9.36586V8.52962H69.2898V18.439H70.3922V16.8502C70.3922 15.9721 70.3922 15.2613 70.3922 15.2613C70.3922 15.2613 70.433 15.2613 70.4739 15.3031C70.5964 15.3868 71.0455 15.5958 71.2088 15.6376C71.8213 15.8049 72.5971 15.8467 73.0871 15.7213C73.5362 15.6376 73.9854 15.4286 74.3529 15.1359C74.5978 14.9686 74.9245 14.6341 75.1286 14.3415C75.4961 13.8397 75.7411 13.2125 75.8228 12.5436C75.8636 12.1673 75.8228 11.4564 75.8228 11.0383C75.5778 9.61673 74.6387 8.57143 73.3729 8.27875C73.1279 8.23694 72.6379 8.19513 72.4338 8.27875ZM73.0871 9.36586C73.3729 9.40767 73.7812 9.61673 73.9854 9.82579C74.3529 10.1603 74.5978 10.662 74.7203 11.2892C74.7612 11.5819 74.7612 12.3763 74.7203 12.669C74.5978 13.338 74.3529 13.7979 73.9854 14.1742C73.6995 14.4669 73.3729 14.6341 72.9646 14.7596C72.8013 14.8014 72.7196 14.8014 72.3521 14.8014C71.903 14.8014 71.7396 14.8014 71.3313 14.6341C71.0047 14.5505 70.678 14.3833 70.4739 14.216H70.3922V10.3275L70.5555 10.1603C70.8005 9.90941 71.0455 9.70035 71.3722 9.57492C71.658 9.44948 71.8213 9.36586 72.0663 9.32405C72.3113 9.28223 72.8013 9.32405 73.0462 9.32405L73.0871 9.36586Z" fill="black"/>
<path d="M85.419 8.27881C85.419 8.27881 85.0516 8.32062 84.9291 8.36243C83.1325 8.78055 82.03 10.2858 82.1525 12.2509C82.1934 13.2544 82.52 14.007 83.0917 14.6342C83.5816 15.136 84.1124 15.4286 84.8066 15.6377C85.2149 15.7631 85.5007 15.7631 85.9907 15.7631C86.6032 15.7631 87.0523 15.6377 87.5831 15.3868C88.3181 15.0105 88.8081 14.5506 89.1755 13.798C89.3389 13.4635 89.4205 13.129 89.5022 12.7527C89.543 12.4182 89.543 11.6656 89.5022 11.2893C89.3797 10.4948 89.053 9.82585 88.5222 9.3241C87.9098 8.69693 87.134 8.36243 86.1948 8.27881C85.8682 8.27881 85.7457 8.27881 85.419 8.27881ZM86.399 9.28229C87.0931 9.40773 87.6239 9.82585 87.9914 10.3694C88.3181 10.8711 88.4406 11.3311 88.4406 12.0419C88.4406 12.5018 88.4406 12.6691 88.3181 13.0454C87.9506 14.2161 86.9298 14.9269 85.7049 14.8433C84.4391 14.7596 83.5 13.9234 83.2958 12.6272C83.255 12.2927 83.255 11.7074 83.2958 11.4147C83.3366 11.1638 83.4591 10.8293 83.5408 10.6203C83.9083 9.90947 84.5616 9.40773 85.3374 9.28229C85.6232 9.24048 86.154 9.24048 86.399 9.28229Z" fill="black"/>
<path d="M60.8382 8.32056C59.5724 8.52962 58.9599 8.94773 58.47 10.0348L58.3475 10.3275V9.44948V8.57143H57.8167H57.2859V15.554H57.8167H58.3475V13.8815C58.3475 12.0418 58.3475 11.9582 58.5108 11.4983C58.6741 10.9547 58.8374 10.662 59.1641 10.3275C59.6132 9.8676 60.1032 9.65854 60.879 9.61672H61.0832V8.36237H61.0015H60.879L60.8382 8.32056Z" fill="black"/>
<path d="M61.3697 8.57129C61.3697 8.57129 62.023 10.1601 62.7988 12.0417L64.2279 15.4702L64.1054 15.7629C63.9829 16.0138 63.0029 18.3553 62.9621 18.4389C62.9621 18.4389 63.0846 18.4389 63.4929 18.4389H64.0237L66.0653 13.5469C67.2085 10.8291 68.1068 8.6131 68.1477 8.6131C68.1477 8.6131 68.1068 8.6131 67.6169 8.6131H67.086L66.8819 9.07303C66.7594 9.3239 66.3511 10.3692 65.9428 11.3727C64.7178 14.2995 64.7995 14.1741 64.7587 14.1323C64.7587 14.1323 64.2279 12.8779 63.6154 11.3727L62.5129 8.65491H61.9413C61.3697 8.65491 61.3288 8.65491 61.3697 8.65491V8.57129Z" fill="black"/>
</svg>
