<svg width="120" height="27" viewBox="0 0 120 27" fill="none" xmlns="http://www.w3.org/2000/svg">
<path d="M17.3319 19.6515L12.3799 21.7511V21.5411C11.4243 21.7511 10.3383 21.919 9.33922 21.961C4.64789 21.961 0.955641 19.5256 0.868765 16.7122V15.6624C2.3891 17.8039 5.56009 19.2736 9.33922 19.2316C10.5989 19.2736 11.9455 19.1056 13.0315 18.8117L13.4658 17.7619C12.1627 18.1399 10.7292 18.3918 9.33922 18.3918C4.64789 18.3918 0.955641 16.0403 0.868765 13.143V12.3032C2.3891 14.3187 5.56009 15.7464 9.33922 15.6624C11.0333 15.7464 12.684 15.4105 14.1174 14.8226L14.3346 13.7728C12.9446 14.4447 11.2071 14.8646 9.38266 14.8226C4.69133 14.8646 0.999079 12.5131 0.912203 9.57376V8.73394C2.43254 10.7915 5.60353 12.2192 9.38266 12.3032C11.5111 12.2612 13.5527 11.6733 15.2468 10.8335L15.464 9.57376C13.9437 10.6655 11.7283 11.3794 9.38266 11.4633C4.69133 11.3794 0.999079 8.98589 0.912203 6.00455C0.912203 3.19117 4.69133 0.797703 9.38266 0.797703C12.1627 0.797703 14.769 1.76349 16.2893 3.31714L16.4631 3.56909H17.549L17.3753 3.31714C15.855 1.34358 12.7708 -0.000120163 9.33922 -0.000120163C4.12663 -0.000120163 0 2.72928 0 6.04654V6.25649V16.9221C0.173753 20.1554 4.21351 22.8008 9.29578 22.8008C12.6405 22.8008 15.6812 21.5411 17.3319 19.6515Z" fill="#2A3035"/>
<path d="M15.2908 27L17.0283 19.8196L11.9895 21.9191L15.0736 9.4479H9.16602L10.6864 3.31726H29.4951L27.9748 9.4479H21.85L20.5468 12.8491L27.3232 10.1198L15.2908 27ZM18.3749 18.3499L17.5062 22.591L24.7169 12.0513L18.8093 14.5708L21.4156 8.65008H27.3232L28.4092 4.19907H11.3379L10.252 8.65008H16.1596L13.2926 20.4914L18.3315 18.3919L18.3749 18.3499Z" fill="#2A3035"/>
<path d="M42.0056 7.47433C42.0056 8.14618 41.7884 8.69206 41.3541 9.06998C40.9197 9.4479 40.3115 9.65785 39.5297 9.65785C38.7478 9.65785 38.0962 9.4059 37.6618 8.94401C37.184 8.48211 36.9668 7.81026 36.9668 7.05443V5.79471C36.9668 5.03887 37.2274 4.40901 37.6618 3.90513C38.1396 3.44323 38.7478 3.19128 39.5297 3.19128C40.3115 3.19128 40.9631 3.40124 41.3975 3.73716C41.8753 4.11508 42.0925 4.66096 42.0491 5.33281H40.7894C40.7894 4.9129 40.7025 4.61897 40.4853 4.40901C40.2681 4.19906 39.964 4.11508 39.5297 4.11508C39.0953 4.11508 38.8346 4.28304 38.6175 4.57698C38.4003 4.87091 38.2699 5.24883 38.2699 5.75272V7.01244C38.2699 7.47433 38.4003 7.89424 38.6175 8.18817C38.8346 8.48211 39.1821 8.65007 39.5731 8.65007C39.964 8.65007 40.2681 8.56609 40.4419 8.35614C40.6156 8.14618 40.7459 7.85225 40.7459 7.43234H42.0056V7.47433ZM49.2164 6.97045C49.2164 7.72628 48.9557 8.39813 48.4779 8.90202C48.0001 9.4059 47.3051 9.65785 46.5232 9.65785C45.7413 9.65785 45.0897 9.4059 44.5685 8.90202C44.0907 8.39813 43.83 7.76827 43.83 6.97045V5.8367C43.83 5.08086 44.0907 4.451 44.5685 3.90513C45.0463 3.40124 45.7413 3.14929 46.5232 3.14929C47.3051 3.14929 48.0001 3.40124 48.4779 3.90513C48.9992 4.40901 49.2164 5.03887 49.2164 5.8367V6.97045ZM47.9132 5.8367C47.9132 5.33281 47.7829 4.95489 47.5223 4.61897C47.2617 4.32503 46.9141 4.15707 46.4798 4.15707C46.0454 4.15707 45.6979 4.32503 45.4373 4.61897C45.2201 4.9129 45.0463 5.33281 45.0463 5.8367V6.97045C45.0463 7.47433 45.1766 7.89424 45.4373 8.18817C45.6544 8.48211 46.0454 8.65007 46.4798 8.65007C46.9141 8.65007 47.2617 8.48211 47.5223 8.18817C47.7829 7.89424 47.9132 7.47433 47.9132 6.97045V5.8367ZM52.6046 9.57387H51.3014V3.27527H52.6046V9.57387ZM60.1628 9.57387H58.8597L56.2534 5.33281V9.57387H54.9502V3.27527H56.2534L58.8597 7.51632V3.27527H60.1628V9.57387ZM66.7654 4.24105H64.8976V9.57387H63.5944V4.24105H61.77V3.27527H66.7654V4.24105ZM72.1952 6.80248H69.7627V8.60808H72.6296V9.57387H68.4595V3.27527H72.6296V4.24105H69.7627V5.8367H72.1952V6.80248ZM75.844 8.60808H78.7544V9.57387H74.4974V3.27527H75.8006V8.60808H75.844ZM84.3579 6.80248H81.9254V8.60808H84.7923V9.57387H80.6222V3.27527H84.7923V4.24105H81.9254V5.8367H84.3579V6.80248ZM91.699 8.73405C91.4818 8.986 91.2211 9.19595 90.7868 9.4059C90.3958 9.61586 89.8746 9.69984 89.223 9.69984C88.4411 9.69984 87.7895 9.4479 87.3117 8.986C86.8339 8.5241 86.5733 7.89424 86.5733 7.13841V5.79471C86.5733 5.03887 86.8339 4.40901 87.3117 3.94712C87.7895 3.48522 88.4411 3.23328 89.1796 3.23328C89.9614 3.23328 90.613 3.44323 91.004 3.77915C91.3949 4.11508 91.6555 4.61897 91.6121 5.24883H90.3958C90.3958 4.9129 90.3089 4.66096 90.0917 4.451C89.8746 4.24105 89.6139 4.15707 89.223 4.15707C88.832 4.15707 88.528 4.32503 88.2673 4.61897C88.0502 4.9129 87.9198 5.29082 87.9198 5.75272V7.09642C87.9198 7.55831 88.0501 7.97822 88.3108 8.27216C88.5714 8.56609 88.9189 8.73405 89.3099 8.73405C89.6139 8.73405 89.8746 8.73405 90.0483 8.65007C90.2221 8.60808 90.3524 8.5241 90.4827 8.44012V7.22239H89.223V6.34058H91.7858V8.81803L91.699 8.73405ZM95.0871 7.05443V9.57387H93.784V3.23328H96.0428C96.7812 3.23328 97.3894 3.40124 97.7803 3.73716C98.2147 4.07309 98.4319 4.53499 98.4319 5.12286C98.4319 5.45878 98.345 5.71072 98.1713 5.96267C97.9975 6.17262 97.7369 6.38258 97.3894 6.55054C97.7803 6.67651 98.0409 6.84447 98.2147 7.09642C98.3885 7.34836 98.4753 7.68429 98.4753 8.0622V8.5241C98.4753 8.5241 98.4753 8.90202 98.5622 9.06998C98.5622 9.27993 98.6925 9.4059 98.8228 9.48989V9.57387H97.4762C97.3459 9.48989 97.2591 9.32192 97.2156 9.11197C97.2156 8.90202 97.1722 8.69206 97.1722 8.48211V8.02021C97.1722 7.72628 97.0853 7.47433 96.9115 7.30637C96.7378 7.13841 96.4772 7.05443 96.1731 7.05443H95.0871ZM95.0871 6.08864H96.0428C96.3903 6.08864 96.6944 6.00466 96.8681 5.87869C97.0419 5.71072 97.1287 5.50077 97.1287 5.20684C97.1287 4.9129 97.0419 4.70295 96.8681 4.53499C96.6944 4.36702 96.4337 4.28304 96.0862 4.28304H95.1306V6.13063L95.0871 6.08864ZM103.992 8.23017H101.864L101.429 9.57387H100.039L102.254 3.27527H103.601L105.773 9.57387H104.383L103.949 8.18817L103.992 8.23017ZM102.211 7.22239H103.688L102.993 4.99688L102.254 7.22239H102.211ZM108.727 7.26438V9.53188H107.424V3.27527H109.943C110.681 3.27527 111.29 3.48522 111.724 3.82114C112.158 4.19906 112.376 4.70295 112.376 5.29082C112.376 5.87869 112.158 6.38258 111.724 6.76049C111.29 7.13841 110.725 7.30637 109.943 7.30637H108.77L108.727 7.26438ZM108.727 6.29859H109.9C110.247 6.29859 110.551 6.21461 110.725 6.00466C110.899 5.79471 110.986 5.54276 110.986 5.29082C110.986 4.99688 110.899 4.74494 110.725 4.53499C110.551 4.32503 110.247 4.24105 109.9 4.24105H108.727V6.29859ZM119.499 9.53188H118.196V6.92845H115.547V9.53188H114.243V3.23328H115.547V5.96267H118.196V3.23328H119.499V9.53188Z" fill="#2A3035"/>
<path d="M39.312 19.8618H38.4867V15.7047H37.0098V15.0328H40.7889V15.7047H39.312V19.8618ZM44.7852 19.8618H43.9599V17.5943C43.9599 17.3003 43.9164 17.0904 43.7861 16.9644C43.6558 16.8384 43.4821 16.7544 43.2214 16.7544C42.8739 16.7544 42.6567 16.8384 42.483 17.0484C42.3092 17.2583 42.2658 17.5523 42.2224 18.0142V19.8198H41.4405V14.6969H42.2224V15.9986C42.2224 16.2086 42.2224 16.4185 42.2224 16.6705H42.2658C42.2658 16.6705 42.5264 16.3765 42.7436 16.2506C42.9608 16.1666 43.178 16.0826 43.4386 16.0826C44.3508 16.0826 44.8286 16.5445 44.8286 17.4263V19.8198L44.7852 19.8618ZM47.5653 19.9037C46.9571 19.9037 46.5227 19.7358 46.1752 19.3999C45.8277 19.0639 45.6974 18.602 45.6974 18.0142C45.6974 17.4263 45.8712 16.9644 46.1752 16.6285C46.4793 16.2925 46.9137 16.1246 47.4349 16.1246C47.9128 16.1246 48.3471 16.2925 48.6078 16.5865C48.9118 16.8804 49.0422 17.2583 49.0422 17.8042V18.2241H46.5227C46.5227 18.56 46.653 18.854 46.8268 19.0219C47.0006 19.2319 47.3046 19.3159 47.6087 19.3159C47.8259 19.3159 48.0431 19.3159 48.2168 19.2739C48.434 19.2739 48.6078 19.1479 48.825 19.0639V19.6938C48.825 19.6938 48.434 19.8618 48.2168 19.9037C48.0431 19.9037 47.7824 19.9457 47.5218 19.9457L47.5653 19.9037ZM47.4349 16.7125C47.1743 16.7125 46.9571 16.7964 46.8268 16.9224C46.6965 17.0484 46.6096 17.3003 46.5662 17.5943H48.2603C48.2603 17.3003 48.1734 17.0484 48.0431 16.9224C47.9128 16.7544 47.6956 16.7125 47.4349 16.7125ZM53.6466 16.7544H52.7344V19.8198H51.9091V16.7544H51.3009V16.3765L51.9091 16.1666V15.9566C51.9091 15.5367 51.996 15.2008 52.2131 14.9908C52.4303 14.7809 52.7344 14.6969 53.1688 14.6969C53.4294 14.6969 53.7335 14.6969 53.9941 14.8229L53.7769 15.4107C53.7769 15.4107 53.386 15.3268 53.2122 15.3268C53.0385 15.3268 52.9082 15.3688 52.8213 15.4947C52.7344 15.6207 52.691 15.7467 52.691 15.9566V16.1666H53.6032V16.7544H53.6466ZM56.9479 19.8198L56.8176 19.3579C56.8176 19.3579 56.557 19.6518 56.3398 19.7778C56.1226 19.8618 55.9054 19.9457 55.6448 19.9457C55.1669 19.9457 54.8629 19.8198 54.6022 19.6098C54.3851 19.3999 54.2547 19.0639 54.2547 18.602V16.2086H55.0801V18.4761C55.0801 18.77 55.1235 18.938 55.2538 19.1059C55.3841 19.2319 55.5579 19.3159 55.8185 19.3159C56.166 19.3159 56.3832 19.2319 56.557 19.0219C56.7307 18.812 56.7742 18.5181 56.8176 18.0562V16.2086H57.6429V19.8618H56.9913L56.9479 19.8198ZM60.1189 19.2319C60.1189 19.2319 60.5098 19.2319 60.727 19.1479V19.7358C60.727 19.7358 60.5098 19.8198 60.3795 19.8198C60.2492 19.8198 60.1189 19.8198 59.9451 19.8198C59.2067 19.8198 58.8158 19.4418 58.8158 18.686V16.7125H58.2945V16.3765L58.8592 16.0826L59.1198 15.3268H59.5976V16.1246H60.6836V16.7125H59.5976V18.686C59.5976 18.896 59.5976 19.0219 59.728 19.1059C59.7714 19.1899 59.9451 19.2319 60.0755 19.2319H60.1189ZM64.1152 19.8198L63.9849 19.3579C63.9849 19.3579 63.7243 19.6518 63.5071 19.7778C63.2899 19.8618 63.0727 19.9457 62.8121 19.9457C62.3343 19.9457 62.0302 19.8198 61.7696 19.6098C61.5524 19.3999 61.4221 19.0639 61.4221 18.602V16.2086H62.2474V18.4761C62.2474 18.77 62.2908 18.938 62.4211 19.1059C62.5514 19.2319 62.7252 19.3159 62.9858 19.3159C63.3333 19.3159 63.5505 19.2319 63.7243 19.0219C63.898 18.812 63.9415 18.5181 63.9849 18.0562V16.2086H64.8102V19.8618H64.1587L64.1152 19.8198ZM67.8075 16.0826C67.8075 16.0826 68.1115 16.0826 68.1984 16.0826L68.1115 16.7964C68.1115 16.7964 67.8943 16.7964 67.764 16.7964C67.46 16.7964 67.1993 16.8804 66.9821 17.0904C66.765 17.3003 66.6781 17.5523 66.6781 17.8882V19.7778H65.8962V16.1246H66.5478L66.6346 16.7544C66.765 16.5445 66.9387 16.3765 67.1125 16.2506C67.2862 16.1246 67.5034 16.0406 67.764 16.0406L67.8075 16.0826ZM70.4138 19.8618C69.8056 19.8618 69.3712 19.6938 69.0237 19.3579C68.6762 19.0219 68.5459 18.56 68.5459 17.9722C68.5459 17.3843 68.7197 16.9224 69.0237 16.5865C69.3278 16.2506 69.7622 16.0826 70.2834 16.0826C70.7613 16.0826 71.1957 16.2506 71.4563 16.5445C71.7604 16.8384 71.8907 17.2163 71.8907 17.7622V18.1821H69.3712C69.3712 18.5181 69.5016 18.812 69.6753 18.9799C69.8491 19.1899 70.1531 19.2739 70.4572 19.2739C70.6744 19.2739 70.8916 19.2739 71.0653 19.2319C71.2825 19.2319 71.4563 19.1059 71.6735 19.0219V19.6518C71.6735 19.6518 71.2825 19.8198 71.0653 19.8618C70.8481 19.8618 70.631 19.9037 70.3703 19.9037L70.4138 19.8618ZM70.2834 16.6705C70.0228 16.6705 69.8056 16.7544 69.6753 16.8804C69.5016 17.0484 69.4581 17.2583 69.4147 17.5523H71.1088C71.1088 17.2583 71.0219 17.0064 70.8916 16.8804C70.7178 16.7125 70.5441 16.6705 70.2834 16.6705ZM77.972 17.9722C77.972 18.56 77.7983 19.0219 77.4942 19.3579C77.1901 19.6938 76.7557 19.8618 76.1911 19.8618C75.8435 19.8618 75.5395 19.7778 75.2354 19.6098C74.9313 19.4418 74.7576 19.2319 74.6273 18.938C74.497 18.644 74.4101 18.3081 74.4101 17.9302C74.4101 17.3423 74.5838 16.8804 74.8879 16.5445C75.192 16.2086 75.6263 16.0406 76.2345 16.0406C76.7557 16.0406 77.1901 16.2086 77.5376 16.5445C77.8417 16.8804 78.0154 17.3423 78.0154 17.9302L77.972 17.9722ZM75.2354 17.9722C75.2354 18.812 75.5395 19.2319 76.1911 19.2319C76.8426 19.2319 77.1467 18.812 77.1467 17.9722C77.1467 17.1324 76.8426 16.7125 76.1911 16.7125C75.8435 16.7125 75.6264 16.8384 75.4526 17.0484C75.2788 17.2583 75.2354 17.5523 75.2354 17.9722ZM80.7955 16.7544H79.8833V19.8198H79.058V16.7544H78.4498V16.3765L79.058 16.1666V15.9566C79.058 15.5367 79.1448 15.2008 79.362 14.9908C79.5792 14.7809 79.8833 14.6969 80.3177 14.6969C80.5783 14.6969 80.8824 14.6969 81.143 14.8229L80.9258 15.4107C80.9258 15.4107 80.5349 15.3268 80.3611 15.3268C80.1874 15.3268 80.057 15.3688 79.9702 15.4947C79.8833 15.5787 79.8399 15.7467 79.8399 15.9566V16.1666H80.7521V16.7544H80.7955ZM86.4425 19.8198H85.6171V17.5523C85.6171 17.2583 85.5737 17.0904 85.4434 16.9224C85.3565 16.7964 85.1828 16.7125 84.9221 16.7125C84.6181 16.7125 84.4009 16.7964 84.2271 17.0064C84.0968 17.2163 84.0099 17.5103 84.0099 17.9722V19.7778H83.228V16.1246H83.8796L84.0099 16.5865C84.0099 16.5865 84.2706 16.2925 84.4878 16.1666C84.7049 16.0826 84.9221 16.0406 85.1393 16.0406C85.704 16.0406 86.095 16.2506 86.3122 16.6285H86.3556C86.3556 16.6285 86.6162 16.2925 86.8334 16.2086C87.0506 16.1246 87.2678 16.0406 87.5284 16.0406C88.0062 16.0406 88.3103 16.1666 88.5275 16.3765C88.7447 16.5865 88.8316 16.9224 88.8316 17.3843V19.7778H88.0497V17.5103C88.0497 17.2163 88.0062 17.0484 87.8759 16.8804C87.7456 16.7544 87.6153 16.6705 87.3547 16.6705C87.0506 16.6705 86.8334 16.7544 86.6597 16.9644C86.5293 17.1744 86.4425 17.4263 86.4425 17.8462V19.7778H86.399L86.4425 19.8198ZM93.3057 17.9722C93.3057 18.56 93.132 19.0219 92.8279 19.3579C92.5238 19.6938 92.0894 19.8618 91.5247 19.8618C91.1772 19.8618 90.8732 19.7778 90.5691 19.6098C90.3085 19.4418 90.0913 19.2319 89.961 18.938C89.8306 18.644 89.7438 18.3081 89.7438 17.9302C89.7438 17.3423 89.9175 16.8804 90.2216 16.5445C90.5257 16.2086 90.96 16.0406 91.5682 16.0406C92.0894 16.0406 92.5238 16.2086 92.8713 16.5445C93.1754 16.8804 93.3491 17.3423 93.3491 17.9302L93.3057 17.9722ZM90.5691 17.9722C90.5691 18.812 90.8732 19.2319 91.5247 19.2319C92.1763 19.2319 92.4804 18.812 92.4804 17.9722C92.4804 17.1324 92.1763 16.7125 91.5247 16.7125C91.1772 16.7125 90.96 16.8384 90.7863 17.0484C90.6125 17.2583 90.5691 17.5523 90.5691 17.9722ZM97.5627 19.8198H96.7373V17.5523C96.7373 17.2583 96.6939 17.0484 96.5636 16.9224C96.4333 16.7964 96.2595 16.7125 95.9989 16.7125C95.6514 16.7125 95.3907 16.7964 95.2604 17.0064C95.1301 17.2163 95.0432 17.5103 95.0432 17.9722V19.7778H94.2614V16.1246H94.9129L95.0432 16.5865C95.0432 16.5865 95.3039 16.2925 95.5211 16.1666C95.7382 16.0826 95.9554 16.0406 96.2161 16.0406C97.1283 16.0406 97.5627 16.5025 97.5627 17.3843V19.7358V19.8198ZM100.343 19.8618C99.7346 19.8618 99.3002 19.6938 98.9527 19.3579C98.6052 19.0219 98.4749 18.56 98.4749 17.9722C98.4749 17.3843 98.6486 16.9224 98.9527 16.5865C99.2567 16.2506 99.6911 16.0826 100.212 16.0826C100.69 16.0826 101.125 16.2506 101.385 16.5445C101.689 16.8384 101.82 17.2163 101.82 17.7622V18.1821H99.3002C99.3002 18.5181 99.4305 18.812 99.6043 18.9799C99.778 19.1899 100.082 19.2739 100.386 19.2739C100.603 19.2739 100.821 19.2739 100.994 19.2319C101.168 19.2319 101.385 19.1059 101.602 19.0219V19.6518C101.602 19.6518 101.211 19.8198 100.994 19.8618C100.777 19.8618 100.56 19.9037 100.299 19.9037L100.343 19.8618ZM100.169 16.6705C99.9083 16.6705 99.6911 16.7544 99.5608 16.8804C99.3871 17.0484 99.3436 17.2583 99.3002 17.5523H100.994C100.994 17.2583 100.907 17.0064 100.777 16.8804C100.647 16.7125 100.43 16.6705 100.169 16.6705ZM101.993 16.1666H102.862L103.644 18.2241C103.774 18.5181 103.861 18.812 103.861 19.0639C103.861 19.0639 103.905 18.812 103.992 18.602C104.035 18.4341 104.339 17.5943 104.86 16.1246H105.729L104.122 20.2397C103.818 20.9955 103.34 21.3734 102.645 21.3734C102.471 21.3734 102.297 21.3734 102.124 21.3314V20.7016C102.124 20.7016 102.384 20.7016 102.558 20.7016C102.949 20.7016 103.21 20.4916 103.383 20.0297L103.514 19.6938L101.95 16.0406L101.993 16.1666Z" fill="#2A3035"/>
</svg>
