<svg width="99" height="23" viewBox="0 0 99 23" fill="none" xmlns="http://www.w3.org/2000/svg">
<g clip-path="url(#clip0_1_54)">
<path d="M1.13948 2.11018C5.67194 2.12917 10.2044 2.16926 14.7347 2.14605C15.5513 2.14183 15.9269 2.33173 16.0282 3.18632C16.1527 4.23081 16.4249 5.25631 16.4756 6.38731C15.1652 4.95035 14.1882 3.13357 12.0233 2.99852C10.4977 2.90357 8.96156 2.97953 7.36633 2.97953V11.5697C8.90036 11.4178 10.4386 11.3861 11.9072 11.0527C12.4137 10.9367 12.7977 10.0968 13.1437 9.53134C13.3358 9.21483 13.3358 8.78015 13.4223 8.40033L13.7177 8.45942V15.391L13.4476 15.448C13.3526 15.1104 13.2345 14.7749 13.167 14.431C12.9707 13.4181 12.3841 12.7661 11.3628 12.6416C10.0799 12.4855 8.78642 12.4285 7.29881 12.3124C7.29881 13.0573 7.28615 13.6692 7.30092 14.2811C7.34101 16.0009 7.33468 17.7227 7.45285 19.4382C7.56046 20.9996 8.02468 21.4217 9.57137 21.6917C9.90054 21.7487 10.2297 21.7994 10.5589 21.8521L10.5462 22.1475L1.13315 22.3691V21.7361C3.17571 21.7107 3.68424 21.2465 3.8425 19.2546C3.86149 19.0098 3.85938 18.763 3.85938 18.5182C3.85938 14.2748 3.86993 10.0314 3.85094 5.78805C3.83827 3.34035 3.52809 2.99641 1.13315 2.5343V2.11229L1.13948 2.11018Z" fill="black"/>
<path d="M93.1011 8.28428C92.791 5.94631 94.057 3.29182 90.9573 1.89917C92.5483 1.54889 94.1309 1.14798 95.7345 0.875776C96.4541 0.753391 96.2958 1.43706 96.2979 1.85485C96.3085 5.12337 96.3042 8.39189 96.3042 11.6604C96.3042 14.1904 96.3042 16.7204 96.3106 19.2504C96.3127 20.4996 96.3971 21.7002 98.0577 21.8437C98.1126 21.8479 98.1527 22.0061 98.2729 22.2277H93.3248C93.2362 21.7951 93.1265 21.2655 92.9914 20.6093C92.6622 20.8625 92.3943 21.0608 92.1347 21.2655C89.5077 23.3439 85.7538 22.6814 83.9898 19.8307C81.3374 15.5409 83.7872 9.40051 88.6847 8.32648C90.0204 8.03318 91.4743 8.28217 93.1032 8.28217L93.1011 8.28428ZM93.0526 16.0515H93.0442C93.0442 14.9606 93.0547 13.8718 93.0378 12.7809C93.0336 12.4306 92.9703 12.0803 92.9218 11.7343C92.6939 10.1264 91.8098 9.06923 90.5395 8.88143C88.8472 8.63033 87.4313 9.2507 86.8152 10.7911C85.6821 13.6312 85.8403 16.4524 87.5474 19.0436C88.5666 20.5903 90.6872 21.1157 92.2276 20.3919C92.7825 20.1303 93.1138 19.8053 93.0695 19.1111C93.0062 18.0962 93.0526 17.0728 93.0526 16.0536V16.0515Z" fill="black"/>
<path d="M41.6088 1.89495C43.0753 1.55944 44.5418 1.22394 46.0083 0.890547C46.7953 0.71119 46.7806 1.24504 46.7806 1.76412C46.7806 4.0831 46.7806 6.40419 46.7806 8.72318C46.7806 9.05868 46.7806 9.39629 46.7806 9.68537C47.8778 9.15152 48.8463 8.48474 49.9183 8.19566C52.4124 7.52254 54.839 8.70841 56.0164 10.981C57.8374 14.4879 56.9005 21.3077 50.6716 22.2446C49.2304 22.4619 47.6752 22.1539 46.2108 21.8774C45.4006 21.7255 44.757 21.5251 44.202 22.2995C44.1008 22.4408 43.875 22.4957 43.5395 22.6814V21.4111C43.5395 16.3849 43.5395 11.3587 43.5395 6.33034C43.5395 4.61906 43.9003 2.73898 41.3344 2.18403L41.6066 1.89284L41.6088 1.89495ZM46.7806 14.6019H46.8038C46.8038 15.7962 46.7953 16.9905 46.8101 18.1848C46.8143 18.4633 46.8818 18.7419 46.9367 19.0162C47.2342 20.4974 48.093 21.3752 49.4667 21.6158C50.7813 21.8437 52.1592 21.1938 52.8766 20.0058C54.2882 17.6699 53.8768 13.1755 52.0684 11.1392C50.9269 9.85418 49.1565 9.44693 47.6605 10.0968C47.0528 10.3606 46.7173 10.7045 46.7637 11.441C46.8312 12.4918 46.7806 13.5489 46.7806 14.6019Z" fill="black"/>
<path d="M32.5776 22.2087H25.2662C25.5173 21.9829 25.6228 21.8036 25.7409 21.7951C27.0555 21.7107 27.3277 20.8224 27.3341 19.7441C27.3488 17.1086 27.3341 14.4732 27.3573 11.8398C27.3657 10.7636 26.9437 10.023 25.914 9.6495C25.7325 9.58409 25.5785 9.4406 25.1353 9.15574C26.9732 8.74006 28.5452 8.36657 30.1278 8.0585C30.2607 8.03318 30.5857 8.42565 30.6321 8.66198C30.7165 9.08611 30.6553 9.53767 30.6553 10.0736C31.55 9.52501 32.2695 8.92785 33.0946 8.61767C33.9893 8.28006 34.9852 8.05006 35.9369 8.05428C37.8739 8.06483 39.1568 9.1684 39.3341 11.1055C39.5367 13.3358 39.4797 15.5915 39.5303 17.8366C39.543 18.4338 39.5261 19.0309 39.5472 19.6281C39.6021 21.2001 39.6865 21.2993 41.2268 21.812C41.3091 21.8395 41.3619 21.9555 41.5581 22.1771H34.2171C34.3374 21.9956 34.3838 21.8479 34.445 21.8416C35.9981 21.7023 36.2302 20.6304 36.2281 19.3685C36.2238 17.2247 36.2597 15.083 36.2259 12.9391C36.207 11.7554 36.0297 10.5589 34.7615 10.0167C33.4427 9.45327 32.2041 9.8795 31.0752 10.6054C30.8452 10.7531 30.6806 11.1772 30.6764 11.4768C30.6511 14.182 30.6722 16.8871 30.6722 19.5922C30.6722 20.7591 30.9423 21.7023 32.3497 21.7909C32.4088 21.7951 32.4805 21.8542 32.5164 21.907C32.5502 21.9576 32.546 22.0357 32.5797 22.2045L32.5776 22.2087Z" fill="black"/>
<path d="M65.9169 7.93612C70.2341 7.93401 72.9857 10.8143 73.0005 15.3531C73.0131 19.4318 69.9683 22.5463 65.9359 22.5738C61.5132 22.6054 58.7553 19.7062 58.7658 15.0323C58.7743 10.9451 61.8044 7.94034 65.9169 7.93612ZM62.2074 14.3423L62.3635 14.3613C62.3635 14.7812 62.3319 15.2054 62.3699 15.6231C62.5366 17.5222 62.7919 19.4086 64.1592 20.8878C65.6299 22.4788 67.9911 22.1053 68.7845 20.1071C69.139 19.2145 69.3163 18.2101 69.3669 17.2458C69.4956 14.815 69.388 12.3926 68.0692 10.2277C67.4024 9.13042 66.4191 8.50584 65.0792 8.68519C63.771 8.86244 63.0177 9.70859 62.7433 10.9303C62.4922 12.0508 62.3804 13.2008 62.2074 14.3381V14.3423Z" fill="black"/>
<path d="M74.123 1.95825C75.9187 1.55311 77.4633 1.17963 79.0269 0.898987C79.1704 0.873666 79.586 1.43706 79.5924 1.73458C79.643 3.73705 79.6198 5.73952 79.6198 7.74199C79.6198 11.2911 79.6198 14.8403 79.6198 18.3895C79.6198 20.0564 80.3246 21.3197 81.7341 22.1792H74.313C74.429 22.0061 74.4775 21.8584 74.5366 21.8542C76.1171 21.7361 76.3028 20.6283 76.3049 19.3854C76.3091 14.5006 76.3049 9.61785 76.3196 4.73301C76.3239 3.62732 75.9103 2.84026 74.8426 2.43935C74.6653 2.37183 74.5176 2.22623 74.123 1.95825Z" fill="black"/>
<path d="M17.1445 9.13042C18.746 8.78226 20.2463 8.46364 21.7423 8.13024C22.5906 7.94244 22.4661 8.54382 22.4661 9.01648C22.4724 12.0022 22.4682 14.988 22.4703 17.9738C22.4703 18.4296 22.4788 18.8874 22.483 19.3432C22.4914 20.6304 22.7193 21.7551 24.3399 21.8563C24.401 21.8606 24.4517 22.004 24.5952 22.2045H17.2036C17.3238 22.0104 17.366 21.8627 17.4251 21.8563C18.9444 21.6706 19.1596 21.2212 19.2166 19.4086C19.2946 16.9863 19.2271 14.5618 19.2546 12.1373C19.2693 10.9219 18.8937 10.0061 17.634 9.63684C17.5369 9.60941 17.4483 9.53556 17.3681 9.46804C17.3196 9.42583 17.2922 9.35831 17.1445 9.13042Z" fill="black"/>
<path d="M18.5667 3.53448C18.6468 2.44357 19.5753 1.71981 20.778 1.81476C21.9069 1.90339 22.7109 2.76008 22.6454 3.80457C22.5821 4.85328 21.5799 5.68044 20.4573 5.61291C19.2946 5.54328 18.4844 4.65283 18.5667 3.53448Z" fill="black"/>
</g>
<defs>
<clipPath id="clip0_1_54">
<rect width="97.4858" height="22.9999" fill="white" transform="translate(0.928467 9.15527e-05)"/>
</clipPath>
</defs>
</svg>
