<svg width="110" height="25" viewBox="0 0 110 25" fill="none" xmlns="http://www.w3.org/2000/svg">
<path d="M19.2475 12.5L12.9975 18.75H25.4975L19.2475 12.5Z" fill="#2A3035"/>
<path d="M19.2475 12.5L25.4975 6.25H12.9975L19.2475 12.5Z" fill="#2A3035"/>
<path d="M6.74942 12.5L0.49942 6.25V18.75L6.74942 12.5Z" fill="#2A3035"/>
<path d="M13.0014 6.25L19.2514 0H6.75137L13.0014 6.25Z" fill="#2A3035"/>
<path d="M19.2475 25L25.4975 18.75H12.9975L19.2475 25Z" fill="#2A3035"/>
<path d="M6.74942 25L12.9994 18.75H0.49942L6.74942 25Z" fill="#2A3035"/>
<path d="M19.2475 0L12.9975 6.25H25.4975L19.2475 0Z" fill="#2A3035"/>
<path d="M0.49942 6.25H12.9994L6.74942 0L0.49942 6.25Z" fill="#2A3035"/>
<path d="M13.0014 18.75L6.75137 25H19.2514L13.0014 18.75Z" fill="#2A3035"/>
<path d="M6.74942 12.5L0.49942 18.75H12.9994L6.74942 12.5Z" fill="#2A3035"/>
<path d="M12.9994 6.25H0.49942L6.74942 12.5L12.9994 6.25Z" fill="#2A3035"/>
<path d="M32.7443 14.7875C33.088 14.7875 33.3443 14.6938 33.513 14.5063C33.6755 14.3188 33.763 14.0438 33.763 13.6813H36.1005L36.1193 13.725C36.1422 14.1367 36.0702 14.5481 35.9087 14.9274C35.7472 15.3067 35.5006 15.6438 35.188 15.9125C34.5094 16.4884 33.6399 16.7894 32.7505 16.7563C31.5005 16.7563 30.5443 16.3688 29.8755 15.5938C29.1743 14.7531 28.8111 13.6814 28.8568 12.5875V12.4125C28.8568 11.1875 29.1943 10.1875 29.8693 9.41255C30.538 8.63755 31.4943 8.25005 32.7255 8.25005C33.763 8.25005 34.5943 8.53755 35.213 9.1188C35.5287 9.42419 35.7735 9.79518 35.9301 10.2056C36.0867 10.616 36.1513 11.0557 36.1193 11.4938L36.1005 11.5375H33.763C33.7773 11.1992 33.6855 10.8649 33.5005 10.5813C33.3318 10.3375 33.0693 10.2188 32.7255 10.2188C32.238 10.2188 31.9005 10.4188 31.7068 10.8125C31.491 11.3174 31.3906 11.864 31.413 12.4125V12.5875C31.413 13.275 31.5068 13.8125 31.7068 14.2C31.8943 14.5875 32.2443 14.7875 32.7443 14.7875ZM41.8005 10.6563L40.863 10.65C40.5755 10.65 40.3318 10.7 40.1443 10.7938C39.9568 10.8938 39.8193 11.0313 39.7318 11.2188V16.5938H37.1693V8.40005H39.5818L39.6693 9.60005C39.8128 9.21531 40.049 8.87186 40.3568 8.60005C40.6332 8.36848 40.9837 8.24423 41.3443 8.25005C41.5824 8.24919 41.8198 8.27859 42.0505 8.33755L41.8005 10.6563ZM46.663 12.9813V13.0438H46.713L48.0693 8.40005H50.7943L47.5318 17.8125C47.2818 18.4188 46.9505 18.9188 46.5568 19.3125C46.1568 19.7063 45.5193 19.9063 44.6505 19.9063C44.4318 19.9063 44.2505 19.8938 44.1068 19.8625C43.9693 19.8375 43.7443 19.7875 43.4443 19.7125L43.7568 17.8875L43.913 17.925L44.0443 17.9375C44.4505 17.9375 44.7443 17.875 44.9318 17.7563C45.1193 17.6375 45.2568 17.4563 45.3505 17.2188L45.5568 16.6875L42.7193 8.40005H45.438L46.663 12.9813ZM56.5068 12.5125C56.5068 11.825 56.4005 11.2625 56.1943 10.8438C55.9943 10.425 55.6755 10.2188 55.2318 10.2188C54.938 10.2188 54.6943 10.2688 54.5005 10.375C54.3005 10.4813 54.138 10.6375 54.0255 10.8375V14.2625C54.1505 14.4375 54.3068 14.575 54.5068 14.6563C54.7417 14.7471 54.9925 14.7896 55.2443 14.7813C55.6943 14.7813 56.013 14.5938 56.2068 14.225C56.4291 13.7377 56.5299 13.2037 56.5005 12.6688V12.5125H56.5068ZM59.0568 12.6688C59.0568 13.9063 58.7755 14.8938 58.2193 15.6375C57.9506 16.0023 57.5962 16.2951 57.1874 16.4903C56.7786 16.6854 56.328 16.7768 55.8755 16.7563C55.5188 16.7661 55.1649 16.6908 54.8431 16.5364C54.5214 16.3821 54.2411 16.1532 54.0255 15.8688V19.7438H51.463V8.40005H53.8568L53.9505 9.30005C54.1461 8.97126 54.4259 8.70062 54.761 8.51604C55.0961 8.33146 55.4744 8.23964 55.8568 8.25005C56.8755 8.25005 57.6568 8.63755 58.2193 9.4188C58.8149 10.3372 59.1078 11.4191 59.0568 12.5125V12.6688ZM63.213 6.36255V8.40005H64.6005V10.1688H63.213V13.9313C63.213 14.2188 63.2755 14.4313 63.388 14.5563C63.4491 14.6223 63.5238 14.6743 63.6068 14.7088C63.6899 14.7434 63.7794 14.7596 63.8693 14.7563C64.1212 14.7564 64.3724 14.7313 64.6193 14.6813L64.7943 16.575C64.2805 16.6986 63.754 16.7615 63.2255 16.7625C62.3818 16.7563 61.7443 16.5313 61.313 16.075C60.8755 15.6313 60.6568 14.9188 60.6568 13.95V10.1688H59.5068V8.40005H60.6568V6.36255H63.213ZM67.7943 12.5813C67.7943 13.2688 67.9005 13.8063 68.1193 14.2C68.3318 14.5875 68.6943 14.7813 69.213 14.7813C69.713 14.7813 70.0693 14.5875 70.288 14.1938C70.5068 13.8 70.613 13.2563 70.613 12.5813V12.4188C70.6373 11.8669 70.5257 11.3175 70.288 10.8188C70.0693 10.4188 69.7068 10.2188 69.1943 10.2188C68.6943 10.2188 68.3318 10.4188 68.1193 10.825C67.9005 11.225 67.7943 11.7625 67.7943 12.4188V12.5813ZM65.2318 12.4188C65.1854 11.3195 65.5611 10.244 66.2818 9.41255C66.9755 8.63755 67.9505 8.2438 69.2005 8.2438C70.4505 8.2438 71.4255 8.63755 72.1193 9.41255C72.8383 10.2449 73.2137 11.3197 73.1693 12.4188V12.5813C73.1693 13.8188 72.8193 14.825 72.1193 15.5938C71.4255 16.3688 70.4568 16.7563 69.213 16.7563C67.9568 16.7563 66.9755 16.3688 66.2755 15.5938C65.5589 14.7582 65.1879 13.6809 65.238 12.5813V12.4188H65.2318ZM76.6505 8.40005L76.7505 9.55005C77.0193 9.1438 77.3505 8.8188 77.7443 8.5938C78.1429 8.36337 78.5963 8.24462 79.0568 8.25005C79.863 8.25005 80.4943 8.5063 80.9443 9.02505C81.3943 9.55005 81.6193 10.375 81.6193 11.5125V16.5938H79.0568V11.5063C79.0568 11.0375 78.963 10.7 78.7693 10.5063C78.5755 10.3188 78.288 10.2188 77.9068 10.2188C77.6977 10.2122 77.4898 10.2526 77.2983 10.337C77.1069 10.4214 76.9368 10.5475 76.8005 10.7063V16.5938H74.2568V8.40005H76.6568H76.6505ZM86.5755 10.2188C86.2068 10.2188 85.9318 10.3438 85.7443 10.6125C85.5568 10.875 85.4505 11.225 85.4068 11.6625L85.4318 11.7H87.638V11.5063C87.638 11.0875 87.5505 10.775 87.3818 10.55C87.2068 10.325 86.9443 10.2188 86.5755 10.2188ZM86.763 16.7563C85.5505 16.7563 84.588 16.3813 83.8693 15.6188C83.5101 15.2385 83.2297 14.7909 83.0441 14.3017C82.8586 13.8126 82.7715 13.2917 82.788 12.7688V12.4813C82.788 11.2313 83.113 10.2125 83.7693 9.42505C84.4255 8.63755 85.3568 8.23755 86.5755 8.25005C87.688 8.25005 88.5568 8.5813 89.188 9.25005C89.8472 9.99271 90.1884 10.9646 90.138 11.9563V13.3H85.4505L85.438 13.3438C85.5005 13.7625 85.663 14.1125 85.9568 14.3813C86.2443 14.65 86.6255 14.7875 87.1068 14.7875C87.8916 14.8053 88.6687 14.6293 89.3693 14.275L89.9755 15.8375C89.5528 16.132 89.0838 16.3539 88.588 16.4938C88.0193 16.6688 87.4068 16.7563 86.7568 16.7563M98.2568 13.15H98.3005L99.188 8.40005H101.551L99.6255 16.5938H97.463L96.1255 12.25H96.0818L94.7443 16.5938H92.5818L90.6505 8.40005H93.013L93.913 13.1875H93.963L95.2943 8.40005H96.9068L98.2568 13.15ZM106.738 14.2938C106.738 14.0938 106.626 13.9125 106.394 13.75C106.006 13.5348 105.583 13.3909 105.144 13.325C104.364 13.211 103.622 12.9109 102.982 12.45C102.744 12.2564 102.554 12.0097 102.428 11.7298C102.302 11.4498 102.244 11.1442 102.257 10.8375C102.257 10.4822 102.338 10.1316 102.495 9.81296C102.652 9.49429 102.881 9.21612 103.163 9.00005C103.769 8.50005 104.594 8.25005 105.626 8.25005C106.719 8.25005 107.588 8.4938 108.232 8.9813C108.535 9.19044 108.779 9.47381 108.941 9.8043C109.103 10.1348 109.177 10.5013 109.157 10.8688L109.144 10.9125H106.657C106.657 10.5938 106.576 10.35 106.407 10.1813C106.244 10.0125 105.982 9.9313 105.619 9.9313C105.351 9.9313 105.126 10 104.944 10.15C104.858 10.2164 104.788 10.3026 104.742 10.4014C104.695 10.5001 104.674 10.6086 104.678 10.7176C104.682 10.8267 104.713 10.9331 104.767 11.0279C104.82 11.1227 104.896 11.2032 104.988 11.2625C105.382 11.4765 105.812 11.6144 106.257 11.6688C107.058 11.7847 107.821 12.0889 108.482 12.5563C108.723 12.7583 108.913 13.0138 109.038 13.3024C109.163 13.5911 109.218 13.9049 109.201 14.2188C109.201 14.9563 108.876 15.5625 108.219 16.0375C107.454 16.5485 106.545 16.8004 105.626 16.7563C104.513 16.7563 103.626 16.4688 102.982 15.9063C102.332 15.3438 102.019 14.7063 102.051 14.0125L102.069 13.9688H104.382C104.394 14.3563 104.507 14.6375 104.738 14.8063C104.963 14.9813 105.282 15.0625 105.694 15.0625C106.038 15.0625 106.301 15 106.476 14.8625C106.651 14.7313 106.738 14.5375 106.738 14.2938Z" fill="#2A3035"/>
</svg>
