<svg width="167" height="29" viewBox="0 0 167 29" fill="none" xmlns="http://www.w3.org/2000/svg">
<path d="M109.21 29C106.609 29 104.7 28.5094 103.435 27.5283C102.362 26.734 101.765 25.496 101.765 24.1644H106.943C107.182 25.1455 107.611 25.7062 109.281 25.7062C111.119 25.7062 111.882 24.7251 111.882 22.5058V20.5436H111.787C111.142 22.1554 109.472 23.1599 107.683 22.9964C103.412 22.9964 101.24 20.6137 101.24 15.965C101.145 13.9793 101.837 12.0638 103.173 10.5687C104.366 9.354 106.036 8.67655 107.778 8.69991C109.448 8.53639 111.071 9.37736 111.858 10.8257H111.954V9.02695H117.06V22.0386C117.06 24.4214 116.463 26.1267 115.223 27.2013C113.886 28.416 111.954 29 109.21 29ZM109.377 12.2273C107.707 12.2273 106.704 13.6289 106.704 15.9883C106.704 18.4411 107.611 19.7493 109.281 19.7493C110.713 19.7493 111.858 18.6047 111.858 17.2031V15.3342C111.858 13.372 110.952 12.2273 109.377 12.2273ZM60.5819 24.071C58.7447 24.2345 56.9313 23.7673 55.4042 22.7628C54.4021 21.9218 53.8055 20.7071 53.734 19.3989H58.5061C58.6015 20.3801 59.2696 20.8706 60.5104 20.8706C61.6795 20.8706 62.4192 20.4501 62.4192 19.6559C62.4192 19.0018 61.9897 18.6748 60.916 18.5112L58.4822 18.1842C55.5712 17.8571 53.9726 16.2219 53.9726 13.6757C53.9487 12.3675 54.4975 11.1294 55.4758 10.2417C58.3629 8.27942 62.1806 8.18598 65.1632 10.0081C66.1653 10.8257 66.738 12.0171 66.738 13.2785H62.0374C62.0136 12.4376 61.2978 11.7835 60.4626 11.8068H60.3672C59.031 11.8068 58.7685 12.3908 58.7685 12.9515C58.7685 13.5121 59.0071 13.9326 60.2002 14.0961L62.801 14.4232C63.9463 14.4699 65.0439 14.9137 65.9028 15.6379C66.738 16.4322 67.1675 17.5535 67.072 18.6748C67.2868 22.0386 64.686 24.0943 60.5819 24.071ZM45.5498 24.0009C40.7061 24.0009 37.9383 21.221 37.9383 16.2219C37.8667 14.2129 38.5825 12.2507 39.9426 10.7323C41.4219 9.30728 43.4739 8.55975 45.5498 8.67655C48.1506 8.67655 50.1549 9.40072 51.3956 10.8023C52.6602 12.3908 53.3045 14.3531 53.2329 16.3621V17.5067H43.283C43.4501 19.6325 44.1182 20.6137 45.7168 20.6137C46.6712 20.7772 47.6018 20.1698 47.8165 19.212H53.0897C52.7318 22.2722 50.131 24.0009 45.5498 24.0009ZM45.5498 11.8068C44.1182 11.8068 43.4501 12.788 43.283 14.7502H47.7927V14.5867C47.6257 12.7179 46.886 11.8068 45.5498 11.8068ZM141.374 23.9308C139.751 24.0243 138.176 23.4169 137.031 22.2956C135.934 21.0575 135.361 19.4456 135.432 17.7871C135.337 16.1752 135.91 14.5867 137.031 13.372C138.2 12.274 139.751 11.69 141.374 11.7367C145.048 11.7367 147.315 14.0261 147.315 17.7871C147.315 21.5481 144.953 23.9308 141.374 23.9308ZM141.374 14.1195C139.441 14.1195 139.035 16.1752 139.035 17.8805C139.035 20.4268 139.871 21.6415 141.374 21.6415C142.877 21.6415 143.712 20.3333 143.712 17.8805C143.712 15.4277 142.877 14.1195 141.374 14.1195ZM129.42 23.9308C127.797 24.0243 126.222 23.4169 125.077 22.2956C124.027 21.0575 123.478 19.4924 123.574 17.8805C123.574 14.1195 125.841 11.8302 129.515 11.8302C132.856 11.8302 134.86 13.4654 134.955 16.2453H131.543C131.472 15.2641 131.042 14.1195 129.539 14.1195C127.439 14.1195 127.201 16.4789 127.201 17.8805C127.201 20.4268 127.964 21.6415 129.539 21.6415C130.684 21.6415 131.615 20.7538 131.639 19.6325C131.639 19.6092 131.639 19.6092 131.639 19.5858V19.3522H134.979C134.979 20.6837 134.406 21.9218 133.38 22.8095C132.187 23.5571 130.827 23.9542 129.42 23.9308ZM73.2758 23.8374C71.9873 23.9542 70.6988 23.5804 69.6728 22.7862C68.6707 21.7583 68.1457 20.3567 68.2412 18.9317V5.03234H73.4428V9.05031H76.5446V12.6478H73.5382V17.9739C73.5382 19.5157 74.0393 20.0997 75.4709 20.0997C75.805 20.1231 76.139 20.0764 76.4731 20.0063V23.6739C75.3755 23.7439 74.3733 23.8374 73.2758 23.8374ZM159.579 23.6038H156.072V16.8059C156.143 16.1518 156.024 15.5211 155.738 14.9371C155.404 14.4465 154.831 14.1896 154.235 14.283C152.803 14.283 151.968 15.2641 151.968 16.8994V23.6038H148.46V12.0638H151.801V13.956C152.493 12.6011 153.924 11.7601 155.475 11.8302C157.48 11.8302 158.649 12.6478 159.15 14.2129H159.221C159.89 12.7179 161.417 11.7835 163.063 11.8302C165.735 11.8302 167 13.2318 167 16.0818V23.6038H163.493V16.8293C163.564 16.1752 163.445 15.5445 163.158 14.9605C162.824 14.4699 162.252 14.2129 161.655 14.3064C160.224 14.3064 159.388 15.2875 159.388 16.9227L159.579 23.6038ZM90.2406 23.6038H84.8958V9.05031H90.0736V11.4097H90.169C91.0996 9.68104 93.0084 8.62983 95.0127 8.79335C96.9216 8.79335 98.2816 9.28392 99.1167 10.265C99.9757 11.5265 100.357 13.0216 100.19 14.5166V23.6038H94.8457V15.3342C94.9173 14.6101 94.7741 13.8625 94.4162 13.2084C94.0344 12.6945 93.3902 12.4142 92.746 12.4843C91.1712 12.4843 90.336 13.4654 90.336 15.4277L90.2406 23.6038ZM12.8608 23.6038H7.51607V9.05031H12.6938V11.4097H12.7654C13.696 9.68104 15.6048 8.62983 17.6091 8.79335C19.5179 8.79335 20.878 9.28392 21.7131 10.265C22.5721 11.5265 22.9539 13.0216 22.8107 14.5166V23.6038H17.4659V15.3342C17.5375 14.6101 17.3943 13.8625 17.0364 13.2084C16.6547 12.6945 16.0104 12.4142 15.3662 12.4843C13.7675 12.4843 12.9324 13.4654 12.9324 15.4277L12.8608 23.6038ZM122.5 23.6038H118.826V20.1698H122.5V23.6038ZM83.1302 23.6038H77.7854V9.05031H83.1302V23.6038ZM33.3332 23.6038H27.8214L22.5482 9.05031H27.9168L29.8257 15.3576C30.3268 17.1563 30.7562 19.0485 30.7562 19.1186H30.8517C31.1142 17.8805 31.3528 16.6658 31.6868 15.4277L33.6195 9.12039H38.7973L33.3332 23.6038ZM5.51179 23.6038H0V3H5.51179V23.6038Z" fill="black"/>
<path d="M78 7L83 5.91111V0L78 1.08889V7Z" fill="black"/>
</svg>
