<svg width="150" height="148" viewBox="0 0 150 148" fill="none" xmlns="http://www.w3.org/2000/svg">
<mask id="mask0_22_2077" style="mask-type:alpha" maskUnits="userSpaceOnUse" x="0" y="0" width="150" height="148">
<rect width="150" height="148" fill="#D9D9D9"/>
</mask>
<g mask="url(#mask0_22_2077)">
<g filter="url(#filter0_d_22_2077)">
<path d="M8.82708 102.873C25.1206 139.605 67.6532 155.926 104.051 139.57C140.318 123.296 156.327 80.7752 140.544 44.7384C124.545 8.20244 82.1173 -8.23164 45.9657 7.53575C9.35185 23.5045 -7.38889 66.3132 8.82708 102.873ZM47.0379 12.0549C81.0918 -3.17984 120.876 12.0062 136.119 46.0526L136.12 46.0554C151.398 80.1791 136.171 120.117 102.027 135.473C68.1646 150.705 28.3256 135.33 13.0249 101.11C-2.07196 67.3452 13.2781 27.1573 47.0379 12.0549Z" fill="#25AE7A" stroke="#25AE7A"/>
<path d="M130.771 46.8072C138.041 63.6834 138.946 79.4287 133.513 95.3776C128.736 109.405 120.023 120.464 107.461 128.32C96.3204 135.287 84.1063 138.573 70.9908 137.656C50.4959 136.223 34.1736 127.003 22.3558 110.154C13.9457 98.1636 10.091 84.6718 10.9964 70.0305C12.2037 50.5368 20.4012 34.4547 36.0842 22.7933C53.0321 10.1924 71.9584 7.07993 92.1711 13.2525C106.5 17.6296 117.786 26.339 126.13 38.7964C128.127 41.7792 129.743 45.021 130.771 46.8072ZM128.986 48.6942C128.28 47.3422 127.324 45.4766 126.333 43.6302C125.897 42.8201 125.411 42.0354 124.911 41.2639C116.912 28.8635 105.988 20.1459 91.9409 15.6857C73.6909 9.8922 56.348 12.2516 40.3027 22.699C28.2821 30.5269 20.1554 41.5475 16.0393 55.2942C10.3083 74.4406 13.0702 92.5484 24.4448 108.91C36.2191 125.85 52.7711 134.66 73.3959 135.341C85.8181 135.752 97.2621 132.261 107.609 125.382C119.084 117.752 127.029 107.295 131.389 94.2192C136.471 78.9774 135.541 63.9569 128.991 48.6958L128.986 48.6942Z" fill="#25AE7A"/>
<path d="M125.465 50.1953C131.296 63.7231 132.14 76.9844 127.852 90.4518C123.693 103.511 115.816 113.874 104.24 121.158C89.0363 130.725 72.7043 132.875 55.5861 127.36C43.1016 123.338 33.1527 115.71 26.1454 104.573C16.9274 89.9233 14.8725 74.167 20.0328 57.6307C24.1147 44.5424 32.0461 34.1955 43.6256 26.9196C58.9036 17.3158 75.2982 15.178 92.4944 20.7927C104.81 24.8134 114.494 32.4329 121.626 43.2877C122.132 44.0567 122.618 44.8413 123.058 45.6461C123.976 47.3273 124.853 49.0329 125.467 50.1941L125.465 50.1953ZM123.678 51.8513C122.446 49.6181 121.39 47.4844 120.133 45.4715C113.169 34.3049 103.383 26.6576 90.8734 22.7814C74.4734 17.7004 58.8897 19.9547 44.4676 29.2204C33.5009 36.2675 25.9986 46.1856 22.2001 58.6919C17.2547 74.9733 19.5266 90.3592 28.9576 104.502C35.8709 114.867 45.504 121.782 57.3769 125.443C69.5936 129.212 81.7103 128.663 93.5867 123.97C103.004 120.25 110.958 114.431 116.959 106.236C129.321 89.353 131.309 71.1237 123.669 51.8551L123.678 51.8513Z" fill="#25AE7A"/>
<path d="M84.8808 121.361C65.179 127.624 38.0902 118.991 27.451 93.7506C17.0776 69.141 29.1049 44.3798 45.9341 34.4009C46.2477 35.1014 46.5939 35.7771 46.837 36.4925C46.8945 36.6585 46.6514 37.0305 46.4523 37.1706C42.6599 39.7765 39.2423 42.7995 36.4228 46.4387C27.3984 58.0788 24.2458 71.173 27.6661 85.5169C31.1705 100.213 40.094 110.703 53.872 116.82C63.279 120.995 73.0859 121.624 83.0711 119.119C83.6571 118.973 83.9095 119.102 84.1099 119.624C84.3363 120.212 84.6171 120.78 84.8805 121.368L84.8808 121.361Z" fill="#25AE7A"/>
<path d="M103.934 112.361C103.608 111.632 103.25 110.931 102.997 110.194C102.937 110.022 103.179 109.654 103.378 109.5C107.383 106.432 110.881 102.868 113.645 98.6405C121.542 86.5655 123.641 73.5248 119.425 59.7072C115.394 46.4967 106.862 37.0392 94.303 31.3876C85.3506 27.3577 75.9837 26.5342 66.3821 28.5837C65.7817 28.7125 65.4884 28.6123 65.2887 28.0389C65.1051 27.5088 64.8408 27.0084 64.6184 26.489C64.5882 26.4218 64.5957 26.341 64.5864 26.2678C83.8688 20.9583 108.947 29.5834 119.683 52.6795C130.483 75.9088 120.822 100.894 103.933 112.358L103.934 112.361Z" fill="#25AE7A"/>
</g>
<g filter="url(#filter1_d_22_2077)">
<path d="M93.2596 61.3988C94.7692 61.2983 96.1926 61.1256 97.613 61.1259C102.311 61.1354 106.064 63.0452 108.71 66.9611C111.045 70.4144 112.4 74.2516 112.76 78.4058C113.19 83.3934 111.36 87.5633 107.991 91.1368C105.208 94.086 101.874 96.2904 98.389 98.2933C97.5322 98.7868 96.6625 99.259 95.7416 99.7745C95.9072 100.144 96.0414 100.444 96.1757 100.744C97.9946 104.807 99.8052 108.873 101.64 112.926C101.86 113.419 101.851 113.682 101.306 113.928C96.6952 116.003 92.0998 118.105 87.4965 120.197C87.382 120.249 87.2599 120.284 87.0359 120.361L80.7875 106.405L61.9533 114.882L57.7835 105.569C58.3787 105.301 58.9594 105.053 59.53 104.783C60.2183 104.453 60.9184 104.134 61.5826 103.758C63.0586 102.915 63.5601 101.373 62.8564 99.801C60.5783 94.7128 58.2906 89.6255 55.9986 84.5436C53.1264 78.1809 50.2402 71.8245 47.3653 65.463C46.2731 63.046 44.105 62.1332 41.6249 63.088C40.8252 63.3941 40.0575 63.7867 39.2332 64.1578L35.4786 55.7717L54.2793 47.3092L48.1288 33.5715C49.9172 32.7665 51.6078 32.0055 53.2984 31.2445C56.0453 30.0081 58.7972 28.7829 61.5278 27.51C62.1388 27.2249 62.3966 27.3209 62.667 27.9398C64.3868 31.8486 66.1442 35.7438 67.8891 39.6412C68.416 40.818 68.405 40.786 69.599 40.3933C73.2203 39.1975 76.9027 38.2807 80.7432 38.242C85.674 38.1939 89.8614 39.7699 92.8255 43.9232C95.0693 47.0675 96.4346 50.4996 96.114 54.4481C95.9263 56.7511 95.0485 58.8026 93.7471 60.6878C93.5896 60.9136 93.4362 61.1409 93.2608 61.4016L93.2596 61.3988ZM69.8927 79.3332C69.9416 79.5098 69.9538 79.612 69.994 79.7017C72.44 85.1351 74.8944 90.5648 77.3309 95.9992C77.5454 96.4783 77.7965 96.5067 78.2218 96.3018C81.1863 94.8765 84.2119 93.5651 87.1116 92.0176C89.8654 90.5491 92.3849 88.7148 94.3336 86.1981C97.553 82.0423 96.2225 76.1909 91.5373 74.1253C89.5083 73.2307 87.3659 73.2524 85.2202 73.5819C79.7353 74.4248 74.8793 76.9573 69.8927 79.3332ZM66.2512 71.3945C66.4702 71.3363 66.5735 71.3268 66.6616 71.2838C69.3165 69.9844 72.024 68.7724 74.6113 67.352C76.8522 66.1178 78.8357 64.5112 80.3093 62.3431C83.2902 57.9546 80.2514 52.5321 76.7304 51.417C74.2851 50.6425 71.8946 50.9274 69.5009 51.5504C66.1744 52.4148 63.0938 53.8957 60.0226 55.4128C59.4039 55.7182 59.2699 55.9738 59.5681 56.6172C61.2081 60.168 62.8063 63.7376 64.4172 67.2981C65.0274 68.6461 65.6265 69.9991 66.2512 71.3945Z" fill="#25AE7A"/>
</g>
</g>
<defs>
<filter id="filter0_d_22_2077" x="1.13248" y="1.05396" width="145.977" height="146.364" filterUnits="userSpaceOnUse" color-interpolation-filters="sRGB">
<feFlood flood-opacity="0" result="BackgroundImageFix"/>
<feColorMatrix in="SourceAlpha" type="matrix" values="0 0 0 0 0 0 0 0 0 0 0 0 0 0 0 0 0 0 127 0" result="hardAlpha"/>
<feOffset dx="-1" dy="1"/>
<feComposite in2="hardAlpha" operator="out"/>
<feColorMatrix type="matrix" values="0 0 0 0 0.847059 0 0 0 0 0.956863 0 0 0 0 0.854902 0 0 0 1 0"/>
<feBlend mode="normal" in2="BackgroundImageFix" result="effect1_dropShadow_22_2077"/>
<feBlend mode="normal" in="SourceGraphic" in2="effect1_dropShadow_22_2077" result="shape"/>
</filter>
<filter id="filter1_d_22_2077" x="34.4786" y="27.3567" width="78.343" height="94.0042" filterUnits="userSpaceOnUse" color-interpolation-filters="sRGB">
<feFlood flood-opacity="0" result="BackgroundImageFix"/>
<feColorMatrix in="SourceAlpha" type="matrix" values="0 0 0 0 0 0 0 0 0 0 0 0 0 0 0 0 0 0 127 0" result="hardAlpha"/>
<feOffset dx="-1" dy="1"/>
<feComposite in2="hardAlpha" operator="out"/>
<feColorMatrix type="matrix" values="0 0 0 0 0.847059 0 0 0 0 0.956863 0 0 0 0 0.854902 0 0 0 1 0"/>
<feBlend mode="normal" in2="BackgroundImageFix" result="effect1_dropShadow_22_2077"/>
<feBlend mode="normal" in="SourceGraphic" in2="effect1_dropShadow_22_2077" result="shape"/>
</filter>
</defs>
</svg>
