<svg width="37" height="44" viewBox="0 0 37 44" fill="none" xmlns="http://www.w3.org/2000/svg">
<path d="M18.5721 12.7868C17.6339 12.7868 16.8672 12.0397 16.8672 11.1273V1.65954C16.8672 0.74635 17.6347 0 18.5721 0C19.5102 0 20.277 0.747082 20.277 1.65954V11.1273C20.2778 12.0397 19.5102 12.7868 18.5721 12.7868Z" fill="#20262B"/>
<path d="M26.7407 17.4066C26.0812 16.7471 26.0812 15.6673 26.7407 15.0078L33.5821 8.16652C34.2416 7.50699 35.3214 7.50699 35.9809 8.16652C36.6404 8.82604 36.6404 9.90581 35.9809 10.5653L29.1396 17.4073C28.4793 18.0661 27.4003 18.0661 26.7407 17.4066Z" fill="#20262B"/>
<path d="M11.2179 17.407C10.5034 18.0665 9.33367 18.0665 8.61918 17.407L1.20774 10.5654C0.493252 9.90591 0.493252 8.82621 1.20774 8.16673C1.92224 7.50725 3.09199 7.50725 3.80648 8.16673L11.2179 15.0076C11.9324 15.6678 11.9324 16.7467 11.2179 17.407Z" fill="#20262B"/>
<path fill-rule="evenodd" clip-rule="evenodd" d="M3.7473 8.48925C3.14552 7.9338 2.15894 7.9338 1.55716 8.48925C0.95538 9.0447 0.95538 9.95532 1.55716 10.5108L8.67841 17.0845C8.6784 17.0845 8.67841 17.0845 8.67841 17.0845C9.28016 17.6399 10.2667 17.6399 10.8685 17.0846C11.4704 16.5284 11.4704 15.6184 10.8685 15.0622L3.7473 8.48925ZM1.25031 8.20602C2.02156 7.49415 3.2829 7.49415 4.05415 8.20602L11.1754 14.779C11.9465 15.4916 11.9466 16.6551 11.1755 17.3676C10.4042 18.0795 9.14281 18.0796 8.37156 17.3677L1.25031 10.794C0.479062 10.0821 0.479062 8.9179 1.25031 8.20602Z" fill="#20262B"/>
<path d="M10.111 37.4954C12.4945 38.0361 15.6701 38.3324 19.0522 38.3324C22.4362 38.3324 25.6118 38.0343 27.9935 37.4954C29.1107 37.2422 30.016 36.9386 30.6123 36.6189C30.8153 36.5093 30.9662 36.4088 31.0757 36.319V31.9597C30.395 32.3279 29.4394 32.6494 28.2037 32.9296C25.7537 33.4846 22.5027 33.7917 19.0504 33.7917C15.5982 33.7917 12.3472 33.4864 9.89721 32.9296C8.64528 32.6458 7.68254 32.3189 7 31.9453V36.2974C7.11136 36.3926 7.26942 36.5004 7.48855 36.6189C8.08847 36.9404 8.99374 37.2422 10.111 37.4954Z" fill="#2A3035"/>
<path d="M28.2037 38.5624C25.7537 39.1174 22.5027 39.4246 19.0504 39.4246C15.5982 39.4246 12.3472 39.1192 9.8972 38.5624C8.64527 38.2786 7.68254 37.9517 7 37.5781V41.9302C7.11136 42.0254 7.26942 42.1332 7.48855 42.2517C8.08488 42.5715 8.99194 42.875 10.1092 43.1283C12.4927 43.6689 15.6683 43.9653 19.0504 43.9653C22.4344 43.9653 25.61 43.6671 27.9917 43.1283C29.1089 42.875 30.0142 42.5715 30.6105 42.2517C30.8135 42.1422 30.9644 42.0416 31.0739 41.9518V37.5925C30.395 37.9589 29.4412 38.2822 28.2037 38.5624Z" fill="#2A3035"/>
<path d="M28.3563 27.7442C25.8597 28.31 22.5565 28.6226 19.0504 28.6226C15.5461 28.6226 12.2412 28.3118 9.74453 27.7442C8.61295 27.4874 7.69871 27.191 7 26.8516V30.6612C7.11136 30.7564 7.26942 30.8642 7.48855 30.9827C8.08488 31.3024 8.99194 31.606 10.1092 31.8593C12.4927 32.3999 15.6683 32.6963 19.0504 32.6963C22.4344 32.6963 25.61 32.3981 27.9917 31.8593C29.1089 31.606 30.0142 31.3024 30.6105 30.9827C30.8135 30.8732 30.9644 30.7726 31.0739 30.6828V26.8641C30.3806 27.1964 29.4754 27.4892 28.3563 27.7442Z" fill="#2A3035"/>
<path d="M19.0543 27.604C25.7096 27.604 31.1048 26.3495 31.1048 24.802C31.1048 23.2545 25.7096 22 19.0543 22C12.3991 22 7.00391 23.2545 7.00391 24.802C7.00391 26.3495 12.3991 27.604 19.0543 27.604Z" fill="#2A3035"/>
</svg>
