<svg width="1440" height="724" viewBox="0 0 1440 724" fill="none" xmlns="http://www.w3.org/2000/svg">
<g clip-path="url(#clip0_1_408)">
<rect width="1440" height="724" fill="url(#paint0_linear_1_408)"/>
<mask id="path-1-inside-1_1_408" fill="white">
<path fill-rule="evenodd" clip-rule="evenodd" d="M-478 578.14C-472.194 578.482 -466.255 578.805 -460.115 579.164C-447.836 569.875 -435.891 560.801 -423.212 551.187C-413.468 555.428 -404.993 559.057 -396.852 562.705C-393.715 564.089 -389.978 565.49 -388.643 566.964C-381.503 574.78 -375.096 582.614 -368.356 590.431C-363.752 595.786 -358.947 601.122 -353.808 606.998C-341.262 603.638 -330.251 600.673 -318.173 597.439C-306.161 603.081 -294.949 608.346 -283.538 613.718C-262.583 611.706 -240.695 610.214 -238.559 604.68C-238.092 603.404 -234.755 602.182 -232.82 600.925C-224.612 595.498 -213.4 590.143 -208.863 584.591C-197.985 571.366 -189.043 558.069 -181.835 544.736C-177.965 537.621 -168.689 531.26 -143.664 525.995C-140.794 525.402 -138.792 524.522 -137.858 523.713C-133.053 519.67 -128.782 515.609 -124.244 511.566C-118.305 506.247 -112.232 500.911 -106.159 495.592C-105.359 495.592 -104.558 495.592 -103.757 495.592C-92.7458 509.033 -81.668 522.473 -70.1898 536.417C-67.0533 535.483 -65.1847 534.997 -63.6499 534.458C-55.2414 531.637 -46.1656 528.87 -38.8916 525.941C-33.6864 523.839 -17.5368 524.396 -17.5368 524.396L1.74805 519.999L10.7715 528.302L16.7872 528.999L21.2989 522.999L26.8133 515.499L28.5678 518.499L31.8263 510.999L47.868 538.499L56.3901 515.499L58.3954 522.999L69.4241 492.499L77.4449 481.999L87.471 460.499L89.6631 462.281L93.9622 452.918L110.03 469.999L122.061 482.499C122.061 482.499 133.575 457.338 135.596 448.999C141.596 462.62 156.651 488.499 156.651 488.499L170.209 468.999L177.204 478.999L183.22 450.499L189.236 466.999L204.756 462.281L212.296 472.999L221.366 484.499L233.461 506.499L270.175 581.325L332.609 456.74L336.619 448.563L343.136 455.499L348.65 448.563L359.178 439.998L370.849 447.276L386.248 429.498L390.259 433.498L396.932 422.896L410.311 431.756L420.838 433.456L429.36 433.309L436.119 434.157L445.904 445.499L454.927 440.498L458.436 434.498L466.958 449.499L474.478 434.157L481.496 440.069L504.055 422.896L512.577 426.498L519.094 407.998L522.102 417.498L529.614 404.653L539.146 418.998L550.676 412.498L569.726 406.689L587.772 384.001L601.809 371.327L617.349 384.001L628.378 366.501L633.892 376.501L636.399 373.501L647.929 394.001L651.948 400.226L664.973 398.001L671.49 406.689L682.77 400.226L694.049 413.152H701.067L710.592 407.501L718.374 392.001L722.631 398.345L736 357.5L745.182 384.001L753.203 371.327L760.5 384.001L771.5 343.5L777.266 357.5L818.5 267.5L825.5 282.5L839.5 241L913.62 373.001C927.167 362.975 924.544 363.037 950.103 353.693C961.114 349.686 972.326 346.344 993.814 344.547C997.684 344.224 1001.29 343.218 1002.69 342.373C1013.1 336.156 1022.98 329.903 1032.85 323.668C1034.65 322.536 1036.92 321.817 1043.86 321.709C1063.95 321.386 1082.04 319.822 1099.12 317.81C1103.12 317.343 1107.13 316.588 1109.2 315.761C1119.47 311.754 1129.08 307.694 1139.83 303.273C1141.96 304.297 1143.43 304.926 1144.63 305.591C1154.44 311 1164.05 316.426 1174.26 321.799C1175.6 322.5 1179.87 323.308 1183.47 323.47C1203.42 324.35 1223.45 324.207 1243.13 323.075C1246.27 322.895 1249.8 322.248 1251.07 321.655C1258.01 318.367 1264.22 315.025 1270.83 311.701C1275.16 309.49 1279.7 307.298 1284.24 305.034C1293.18 305.465 1301.19 305.717 1308.73 306.256C1316.27 306.777 1320.61 306.454 1324.81 305.07C1334.16 301.997 1344.37 299.033 1355.11 295.78C1356.51 296.679 1357.45 297.146 1358.11 297.649C1368.32 305.322 1378.4 312.994 1388.61 320.667C1389.21 321.152 1389.55 321.889 1391.15 322.033C1402.83 323.129 1414.84 324.099 1427.18 325.141C1432.86 320.487 1438.46 315.941 1444 311.359V708H-478V578.104V578.14Z"/>
</mask>
<path fill-rule="evenodd" clip-rule="evenodd" d="M-478 578.14C-472.194 578.482 -466.255 578.805 -460.115 579.164C-447.836 569.875 -435.891 560.801 -423.212 551.187C-413.468 555.428 -404.993 559.057 -396.852 562.705C-393.715 564.089 -389.978 565.49 -388.643 566.964C-381.503 574.78 -375.096 582.614 -368.356 590.431C-363.752 595.786 -358.947 601.122 -353.808 606.998C-341.262 603.638 -330.251 600.673 -318.173 597.439C-306.161 603.081 -294.949 608.346 -283.538 613.718C-262.583 611.706 -240.695 610.214 -238.559 604.68C-238.092 603.404 -234.755 602.182 -232.82 600.925C-224.612 595.498 -213.4 590.143 -208.863 584.591C-197.985 571.366 -189.043 558.069 -181.835 544.736C-177.965 537.621 -168.689 531.26 -143.664 525.995C-140.794 525.402 -138.792 524.522 -137.858 523.713C-133.053 519.67 -128.782 515.609 -124.244 511.566C-118.305 506.247 -112.232 500.911 -106.159 495.592C-105.359 495.592 -104.558 495.592 -103.757 495.592C-92.7458 509.033 -81.668 522.473 -70.1898 536.417C-67.0533 535.483 -65.1847 534.997 -63.6499 534.458C-55.2414 531.637 -46.1656 528.87 -38.8916 525.941C-33.6864 523.839 -17.5368 524.396 -17.5368 524.396L1.74805 519.999L10.7715 528.302L16.7872 528.999L21.2989 522.999L26.8133 515.499L28.5678 518.499L31.8263 510.999L47.868 538.499L56.3901 515.499L58.3954 522.999L69.4241 492.499L77.4449 481.999L87.471 460.499L89.6631 462.281L93.9622 452.918L110.03 469.999L122.061 482.499C122.061 482.499 133.575 457.338 135.596 448.999C141.596 462.62 156.651 488.499 156.651 488.499L170.209 468.999L177.204 478.999L183.22 450.499L189.236 466.999L204.756 462.281L212.296 472.999L221.366 484.499L233.461 506.499L270.175 581.325L332.609 456.74L336.619 448.563L343.136 455.499L348.65 448.563L359.178 439.998L370.849 447.276L386.248 429.498L390.259 433.498L396.932 422.896L410.311 431.756L420.838 433.456L429.36 433.309L436.119 434.157L445.904 445.499L454.927 440.498L458.436 434.498L466.958 449.499L474.478 434.157L481.496 440.069L504.055 422.896L512.577 426.498L519.094 407.998L522.102 417.498L529.614 404.653L539.146 418.998L550.676 412.498L569.726 406.689L587.772 384.001L601.809 371.327L617.349 384.001L628.378 366.501L633.892 376.501L636.399 373.501L647.929 394.001L651.948 400.226L664.973 398.001L671.49 406.689L682.77 400.226L694.049 413.152H701.067L710.592 407.501L718.374 392.001L722.631 398.345L736 357.5L745.182 384.001L753.203 371.327L760.5 384.001L771.5 343.5L777.266 357.5L818.5 267.5L825.5 282.5L839.5 241L913.62 373.001C927.167 362.975 924.544 363.037 950.103 353.693C961.114 349.686 972.326 346.344 993.814 344.547C997.684 344.224 1001.29 343.218 1002.69 342.373C1013.1 336.156 1022.98 329.903 1032.85 323.668C1034.65 322.536 1036.92 321.817 1043.86 321.709C1063.95 321.386 1082.04 319.822 1099.12 317.81C1103.12 317.343 1107.13 316.588 1109.2 315.761C1119.47 311.754 1129.08 307.694 1139.83 303.273C1141.96 304.297 1143.43 304.926 1144.63 305.591C1154.44 311 1164.05 316.426 1174.26 321.799C1175.6 322.5 1179.87 323.308 1183.47 323.47C1203.42 324.35 1223.45 324.207 1243.13 323.075C1246.27 322.895 1249.8 322.248 1251.07 321.655C1258.01 318.367 1264.22 315.025 1270.83 311.701C1275.16 309.49 1279.7 307.298 1284.24 305.034C1293.18 305.465 1301.19 305.717 1308.73 306.256C1316.27 306.777 1320.61 306.454 1324.81 305.07C1334.16 301.997 1344.37 299.033 1355.11 295.78C1356.51 296.679 1357.45 297.146 1358.11 297.649C1368.32 305.322 1378.4 312.994 1388.61 320.667C1389.21 321.152 1389.55 321.889 1391.15 322.033C1402.83 323.129 1414.84 324.099 1427.18 325.141C1432.86 320.487 1438.46 315.941 1444 311.359V708H-478V578.104V578.14Z" fill="url(#paint1_linear_1_408)" stroke="url(#paint2_linear_1_408)" stroke-width="4" mask="url(#path-1-inside-1_1_408)"/>
<line x1="268.5" y1="538" x2="268.5" y2="584" stroke="black" stroke-dasharray="5 5"/>
<circle cx="268.5" cy="580.5" r="7.75" fill="#1EF93B" stroke="black" stroke-width="1.5"/>
<g filter="url(#filter0_d_1_408)">
<rect x="199" y="481" width="140" height="57" rx="10" fill="white" shape-rendering="crispEdges"/>
<path d="M218.665 495.605H222.385C223.445 495.605 224.265 495.865 224.845 496.385C225.425 496.895 225.715 497.555 225.715 498.365C225.715 499.525 225.05 500.29 223.72 500.66C224.39 500.77 224.93 501.07 225.34 501.56C225.75 502.05 225.955 502.615 225.955 503.255C225.955 504.045 225.645 504.7 225.025 505.22C224.415 505.74 223.595 506 222.565 506H218.665V495.605ZM220.03 496.7V500.12H222.325C222.955 500.12 223.445 499.97 223.795 499.67C224.155 499.36 224.335 498.945 224.335 498.425C224.335 497.895 224.155 497.475 223.795 497.165C223.445 496.855 222.955 496.7 222.325 496.7H220.03ZM220.03 504.92H222.49C223.15 504.92 223.665 504.755 224.035 504.425C224.415 504.095 224.605 503.645 224.605 503.075C224.605 502.495 224.4 502.04 223.99 501.71C223.59 501.38 223.055 501.215 222.385 501.215H220.03V504.92ZM232.905 497.765H234.27V506H232.905V504.68C232.355 505.65 231.46 506.135 230.22 506.135C229.31 506.135 228.55 505.835 227.94 505.235C227.33 504.625 227.025 503.765 227.025 502.655V497.765H228.375V502.43C228.375 503.25 228.575 503.88 228.975 504.32C229.385 504.75 229.94 504.965 230.64 504.965C231.34 504.965 231.89 504.75 232.29 504.32C232.7 503.88 232.905 503.25 232.905 502.43V497.765ZM238.079 505.865L234.824 497.765H236.324L238.844 504.425L241.409 497.765H242.819L237.854 509.855H236.444L238.079 505.865ZM247.115 495.53H251.36C252.43 495.53 253.27 495.79 253.88 496.31C254.5 496.83 254.81 497.49 254.81 498.29C254.81 499.46 254.13 500.245 252.77 500.645C253.46 500.745 254.01 501.045 254.42 501.545C254.84 502.035 255.05 502.605 255.05 503.255C255.05 504.075 254.74 504.74 254.12 505.25C253.5 505.75 252.66 506 251.6 506H247.115V495.53ZM249.23 497.15V499.865H251.135C251.605 499.865 251.975 499.75 252.245 499.52C252.525 499.28 252.665 498.945 252.665 498.515C252.665 498.085 252.525 497.75 252.245 497.51C251.975 497.27 251.605 497.15 251.135 497.15H249.23ZM249.23 504.38H251.36C251.83 504.38 252.205 504.255 252.485 504.005C252.775 503.745 252.92 503.39 252.92 502.94C252.92 502.49 252.775 502.135 252.485 501.875C252.195 501.615 251.815 501.485 251.345 501.485H249.23V504.38ZM258.461 495.575C258.461 495.935 258.336 496.24 258.086 496.49C257.836 496.74 257.531 496.865 257.171 496.865C256.821 496.865 256.521 496.74 256.271 496.49C256.021 496.24 255.896 495.935 255.896 495.575C255.896 495.215 256.021 494.91 256.271 494.66C256.521 494.41 256.821 494.285 257.171 494.285C257.531 494.285 257.836 494.41 258.086 494.66C258.336 494.91 258.461 495.215 258.461 495.575ZM256.121 506V497.69H258.236V506H256.121ZM262.961 504.23H263.966V506H262.631C261.781 506 261.126 505.805 260.666 505.415C260.206 505.025 259.976 504.38 259.976 503.48V499.415H259.091V497.69H259.976V495.635H262.091V497.69H263.951V499.415H262.091V503.48C262.091 503.75 262.156 503.945 262.286 504.065C262.416 504.175 262.641 504.23 262.961 504.23ZM265.415 504.95C264.655 504.17 264.275 503.135 264.275 501.845C264.275 500.555 264.655 499.52 265.415 498.74C266.175 497.96 267.16 497.57 268.37 497.57C269.38 497.57 270.225 497.815 270.905 498.305C271.585 498.795 272.04 499.49 272.27 500.39H269.99C269.72 499.7 269.18 499.355 268.37 499.355C267.76 499.355 267.28 499.58 266.93 500.03C266.59 500.47 266.42 501.075 266.42 501.845C266.42 502.615 266.59 503.225 266.93 503.675C267.28 504.115 267.76 504.335 268.37 504.335C269.17 504.335 269.71 503.985 269.99 503.285H272.27C272.03 504.155 271.565 504.845 270.875 505.355C270.195 505.865 269.36 506.12 268.37 506.12C267.16 506.12 266.175 505.73 265.415 504.95ZM276.794 504.335C277.384 504.335 277.889 504.12 278.309 503.69C278.739 503.25 278.954 502.635 278.954 501.845C278.954 501.045 278.744 500.43 278.324 500C277.904 499.57 277.394 499.355 276.794 499.355C276.204 499.355 275.704 499.57 275.294 500C274.884 500.43 274.679 501.045 274.679 501.845C274.679 502.645 274.884 503.26 275.294 503.69C275.704 504.12 276.204 504.335 276.794 504.335ZM273.749 504.935C272.939 504.145 272.534 503.11 272.534 501.83C272.534 500.55 272.944 499.52 273.764 498.74C274.584 497.96 275.599 497.57 276.809 497.57C278.029 497.57 279.049 497.96 279.869 498.74C280.689 499.52 281.099 500.55 281.099 501.83C281.099 503.11 280.684 504.145 279.854 504.935C279.034 505.725 278.014 506.12 276.794 506.12C275.574 506.12 274.559 505.725 273.749 504.935ZM284.362 495.575C284.362 495.935 284.237 496.24 283.987 496.49C283.737 496.74 283.432 496.865 283.072 496.865C282.722 496.865 282.422 496.74 282.172 496.49C281.922 496.24 281.797 495.935 281.797 495.575C281.797 495.215 281.922 494.91 282.172 494.66C282.422 494.41 282.722 494.285 283.072 494.285C283.432 494.285 283.737 494.41 283.987 494.66C284.237 494.91 284.362 495.215 284.362 495.575ZM282.022 506V497.69H284.137V506H282.022ZM287.753 497.69V498.935C288.283 498.025 289.143 497.57 290.333 497.57C291.283 497.57 292.058 497.885 292.658 498.515C293.258 499.135 293.558 500 293.558 501.11V506H291.458V501.41C291.458 500.76 291.293 500.265 290.963 499.925C290.633 499.575 290.183 499.4 289.613 499.4C289.043 499.4 288.588 499.575 288.248 499.925C287.918 500.265 287.753 500.76 287.753 501.41V506H285.638V497.69H287.753ZM304.773 495.5V497.12H300.843V499.865H304.323V501.485H300.843V504.38H304.773V506H298.728V495.5H304.773ZM305.566 497.15V495.53H313.321V497.15H310.486V506H308.386V497.15H305.566ZM314.19 506V495.53H320.67V497.15H316.305V499.895H319.635V501.515H316.305V506H314.19ZM228.617 515.15V513.53H236.372V515.15H233.537V524H231.437V515.15H228.617ZM240.932 522.335C241.522 522.335 242.027 522.12 242.447 521.69C242.877 521.25 243.092 520.635 243.092 519.845C243.092 519.045 242.882 518.43 242.462 518C242.042 517.57 241.532 517.355 240.932 517.355C240.342 517.355 239.842 517.57 239.432 518C239.022 518.43 238.817 519.045 238.817 519.845C238.817 520.645 239.022 521.26 239.432 521.69C239.842 522.12 240.342 522.335 240.932 522.335ZM237.887 522.935C237.077 522.145 236.672 521.11 236.672 519.83C236.672 518.55 237.082 517.52 237.902 516.74C238.722 515.96 239.737 515.57 240.947 515.57C242.167 515.57 243.187 515.96 244.007 516.74C244.827 517.52 245.237 518.55 245.237 519.83C245.237 521.11 244.822 522.145 243.992 522.935C243.172 523.725 242.152 524.12 240.932 524.12C239.712 524.12 238.697 523.725 237.887 522.935ZM248.275 524H246.16V512.9H248.275V519.245L251.08 515.69H253.945L250.255 519.89L253.945 524H251.125L248.275 520.535V524ZM257.914 524.12C256.704 524.12 255.719 523.73 254.959 522.95C254.199 522.16 253.819 521.12 253.819 519.83C253.819 518.54 254.199 517.51 254.959 516.74C255.729 515.96 256.719 515.57 257.929 515.57C259.149 515.57 260.149 515.95 260.929 516.71C261.709 517.46 262.099 518.465 262.099 519.725C262.099 520.015 262.079 520.285 262.039 520.535H255.979C256.029 521.075 256.229 521.51 256.579 521.84C256.929 522.17 257.374 522.335 257.914 522.335C258.644 522.335 259.184 522.035 259.534 521.435H261.814C261.574 522.225 261.109 522.87 260.419 523.37C259.729 523.87 258.894 524.12 257.914 524.12ZM259.909 519.17C259.879 518.62 259.674 518.18 259.294 517.85C258.924 517.52 258.474 517.355 257.944 517.355C257.414 517.355 256.969 517.52 256.609 517.85C256.259 518.18 256.049 518.62 255.979 519.17H259.909ZM265.13 515.69V516.935C265.66 516.025 266.52 515.57 267.71 515.57C268.66 515.57 269.435 515.885 270.035 516.515C270.635 517.135 270.935 518 270.935 519.11V524H268.835V519.41C268.835 518.76 268.67 518.265 268.34 517.925C268.01 517.575 267.56 517.4 266.99 517.4C266.42 517.4 265.965 517.575 265.625 517.925C265.295 518.265 265.13 518.76 265.13 519.41V524H263.015V515.69H265.13ZM277.469 515.765V517.1C278.029 516.12 278.924 515.63 280.154 515.63C281.064 515.63 281.824 515.935 282.434 516.545C283.044 517.145 283.349 518.005 283.349 519.125V524H281.999V519.35C281.999 518.52 281.799 517.89 281.399 517.46C280.999 517.03 280.444 516.815 279.734 516.815C279.034 516.815 278.479 517.03 278.069 517.46C277.669 517.89 277.469 518.52 277.469 519.35V524H276.104V515.765H277.469ZM288.283 523.01C289.053 523.01 289.718 522.735 290.278 522.185C290.848 521.625 291.133 520.855 291.133 519.875C291.133 518.895 290.863 518.13 290.323 517.58C289.783 517.03 289.123 516.755 288.343 516.755C287.573 516.755 286.928 517.03 286.408 517.58C285.888 518.13 285.628 518.9 285.628 519.89C285.628 520.87 285.878 521.635 286.378 522.185C286.878 522.735 287.513 523.01 288.283 523.01ZM285.358 522.965C284.608 522.185 284.233 521.16 284.233 519.89C284.233 518.62 284.628 517.595 285.418 516.815C286.208 516.025 287.198 515.63 288.388 515.63C289.578 515.63 290.568 516.025 291.358 516.815C292.148 517.595 292.543 518.62 292.543 519.89C292.543 521.15 292.128 522.175 291.298 522.965C290.478 523.745 289.473 524.135 288.283 524.135C287.093 524.135 286.118 523.745 285.358 522.965ZM302.936 515.765H304.316L301.721 524H300.311L298.451 517.46L296.591 524H295.166L292.556 515.765H293.966L295.871 522.635L297.806 515.765H299.216L301.046 522.65L302.936 515.765ZM307.805 523.13C307.805 523.37 307.72 523.575 307.55 523.745C307.38 523.915 307.17 524 306.92 524C306.68 524 306.475 523.915 306.305 523.745C306.135 523.575 306.05 523.37 306.05 523.13C306.05 522.88 306.135 522.67 306.305 522.5C306.475 522.33 306.68 522.245 306.92 522.245C307.17 522.245 307.38 522.33 307.55 522.5C307.72 522.67 307.805 522.88 307.805 523.13ZM306.335 520.895L306.17 512.78H307.595L307.445 520.895H306.335Z" fill="#4D5760"/>
<rect x="199.25" y="481.25" width="139.5" height="56.5" rx="9.75" stroke="#E2E7EB" stroke-width="0.5" shape-rendering="crispEdges"/>
</g>
<circle cx="268.5" cy="580.5" r="3.5" fill="black"/>
<circle cx="268.5" cy="538.5" r="3.5" fill="black"/>
</g>
<defs>
<filter id="filter0_d_1_408" x="183" y="469" width="172" height="89" filterUnits="userSpaceOnUse" color-interpolation-filters="sRGB">
<feFlood flood-opacity="0" result="BackgroundImageFix"/>
<feColorMatrix in="SourceAlpha" type="matrix" values="0 0 0 0 0 0 0 0 0 0 0 0 0 0 0 0 0 0 127 0" result="hardAlpha"/>
<feOffset dy="4"/>
<feGaussianBlur stdDeviation="8"/>
<feComposite in2="hardAlpha" operator="out"/>
<feColorMatrix type="matrix" values="0 0 0 0 0 0 0 0 0 0 0 0 0 0 0 0 0 0 0.12 0"/>
<feBlend mode="normal" in2="BackgroundImageFix" result="effect1_dropShadow_1_408"/>
<feBlend mode="normal" in="SourceGraphic" in2="effect1_dropShadow_1_408" result="shape"/>
</filter>
<linearGradient id="paint0_linear_1_408" x1="720" y1="0" x2="720" y2="724" gradientUnits="userSpaceOnUse">
<stop offset="0.156809" stop-color="white"/>
<stop offset="0.434164" stop-color="#F5F5F7"/>
</linearGradient>
<linearGradient id="paint1_linear_1_408" x1="446.097" y1="325.978" x2="495.058" y2="747.558" gradientUnits="userSpaceOnUse">
<stop offset="0.171117" stop-color="#1EF93B"/>
<stop offset="0.752542" stop-color="white" stop-opacity="0"/>
</linearGradient>
<linearGradient id="paint2_linear_1_408" x1="483.001" y1="286.001" x2="479.501" y2="604.5" gradientUnits="userSpaceOnUse">
<stop offset="0.828125" stop-color="white"/>
<stop offset="0.994692" stop-color="#FF0000"/>
<stop offset="0.994792" stop-color="#FF0000"/>
<stop offset="0.994892" stop-color="#F6F6F8"/>
</linearGradient>
<clipPath id="clip0_1_408">
<rect width="1440" height="724" fill="white"/>
</clipPath>
</defs>
</svg>
