<svg width="140" height="79" viewBox="0 0 140 79" fill="none" xmlns="http://www.w3.org/2000/svg">
<rect width="140" height="79" fill="#F5F5F7"/>
<path d="M76.705 37.731C77.33 37.685 77.919 37.608 78.507 37.606C80.452 37.602 82.006 38.414 83.103 40.088C84.071 41.564 84.634 43.2069 84.784 44.9879C84.964 47.1259 84.208 48.917 82.814 50.455C81.664 51.725 80.284 52.676 78.842 53.541C78.612 53.679 78.379 53.814 78.139 53.953C77.917 54.081 77.825 54.3609 77.927 54.5949C78.682 56.3339 79.433 58.074 80.194 59.809C80.285 60.02 80.281 60.133 80.056 60.239C78.148 61.137 76.246 62.047 74.342 62.952C74.237 63.001 74.116 62.942 74.07 62.836L72.915 60.1749C72.166 58.4489 70.179 57.6999 68.477 58.5009L65.731 59.794C64.645 60.305 63.378 59.827 62.901 58.726L62.354 57.466C62.178 57.061 62.363 56.589 62.758 56.393C63.043 56.25 63.333 56.112 63.608 55.95C64.218 55.586 64.425 54.9239 64.133 54.2509C63.188 52.0739 62.239 49.8959 61.289 47.7219C60.097 44.9989 58.9 42.278 57.707 39.556C57.254 38.522 56.356 38.1339 55.33 38.5479C54.771 38.7719 54.146 38.562 53.905 38.008L53.562 37.2169C53.132 36.2259 53.575 35.0489 54.553 34.5889L57.663 33.125C59.264 32.371 59.991 30.444 59.287 28.82L58.952 28.0499C58.433 26.8519 58.969 25.43 60.15 24.874C61.287 24.339 62.426 23.808 63.556 23.258C63.808 23.134 63.915 23.175 64.027 23.44C64.741 25.113 65.47 26.78 66.194 28.448C66.412 28.951 66.408 28.938 66.902 28.767C68.401 28.248 69.925 27.848 71.514 27.825C73.556 27.795 75.29 28.463 76.518 30.239C77.448 31.583 78.015 33.0519 77.884 34.7459C77.807 35.7329 77.444 36.6139 76.906 37.4249C76.841 37.5219 76.777 37.62 76.705 37.731C76.705 37.732 76.705 37.732 76.705 37.731ZM67.184 45.39C67.1 45.432 67.043 45.534 67.08 45.62C68.095 47.946 69.113 50.2689 70.124 52.5949C70.213 52.7999 70.317 52.812 70.493 52.723C71.72 52.107 72.972 51.539 74.171 50.87C75.311 50.236 76.353 49.445 77.159 48.362C78.49 46.574 77.937 44.0679 75.997 43.1909C75.156 42.8109 74.27 42.824 73.381 42.969C71.165 43.332 69.197 44.384 67.184 45.39ZM65.457 41.9019C65.498 41.9959 65.606 42.064 65.698 42.017C66.796 41.455 67.917 40.931 68.987 40.317C69.914 39.784 70.735 39.091 71.344 38.159C72.576 36.272 71.316 33.953 69.858 33.481C68.846 33.153 67.856 33.28 66.866 33.551C65.489 33.928 64.214 34.568 62.943 35.224C62.687 35.356 62.632 35.466 62.756 35.741C63.436 37.261 64.099 38.788 64.767 40.312C64.997 40.836 65.223 41.3619 65.457 41.9019Z" fill="#04060B"/>
<path d="M73.2461 63.4199C65.0931 66.1399 53.8761 62.4819 49.4651 51.6699C45.3331 41.5429 49.7581 31.3209 56.2871 26.7109C56.7111 26.4109 57.3111 26.5759 57.4731 27.0689C57.4971 27.1399 57.3971 27.2999 57.3141 27.3599C55.7451 28.4849 54.3311 29.7879 53.1651 31.3539C49.4331 36.3639 48.1311 41.9879 49.5511 48.1369C51.0061 54.4369 54.7031 58.9219 60.4081 61.5229C64.3041 63.2989 68.3641 63.5519 72.4961 62.4599C72.7391 62.3969 72.8431 62.4519 72.9261 62.6759C73.0201 62.9269 73.1371 63.1689 73.2461 63.4199C73.2461 63.4209 73.2461 63.4209 73.2461 63.4199Z" fill="#04060B"/>
<mask id="mask0_22_2791" style="mask-type:alpha" maskUnits="userSpaceOnUse" x="0" y="0" width="140" height="79">
<rect width="140" height="79" fill="#D9D9D9"/>
</mask>
<g mask="url(#mask0_22_2791)">
<mask id="mask1_22_2791" style="mask-type:luminance" maskUnits="userSpaceOnUse" x="-572" y="-701" width="1283" height="746">
<path d="M711 -701H-572V45H711V-701Z" fill="white"/>
</mask>
<g mask="url(#mask1_22_2791)">
<mask id="mask2_22_2791" style="mask-type:alpha" maskUnits="userSpaceOnUse" x="-572" y="-701" width="1283" height="746">
<path d="M-572 -701H711V45H138.519C122.129 45 107.006 36.187 98.926 21.928C85.673 -1.45902 52.214 -2.11901 38.049 20.727L36.854 22.654C28.24 36.548 13.055 45 -3.29199 45H-572V-701Z" fill="#20262B"/>
</mask>
<g mask="url(#mask2_22_2791)">
<path d="M-572 -701H711V45H138.519C122.129 45 107.006 36.187 98.926 21.928C85.673 -1.45902 52.214 -2.11901 38.049 20.727L36.854 22.654C28.24 36.548 13.055 45 -3.29199 45H-572V-701Z" fill="#04060B"/>
<path d="M711 -702H-573V45H711V-702Z" fill="#04060B"/>
</g>
</g>
<path d="M81.118 71.002C66.159 78.025 48.664 71.161 41.948 55.563C35.266 40.041 42.131 21.8 57.18 14.941C72.038 8.168 89.4911 15.082 96.0851 30.595C102.589 45.897 96.023 64.014 81.118 71.002ZM94.631 30.99C88.259 16.326 71.657 9.846 57.459 16.483C43.382 23.063 36.996 40.433 43.308 54.977C49.703 69.714 66.3271 76.277 80.4481 69.641C94.6831 62.952 101.018 45.6891 94.631 30.9911V30.99Z" fill="#04060B"/>
<path fill-rule="evenodd" clip-rule="evenodd" d="M81.238 71.277C66.122 78.374 48.455 71.434 41.676 55.69C34.93 40.019 41.859 21.595 57.064 14.664C72.077 7.82105 89.701 14.809 96.357 30.47C102.923 45.916 96.298 64.216 81.238 71.277ZM81.118 71.0021C66.159 78.0251 48.663 71.161 41.948 55.563C35.265 40.041 42.131 21.8 57.18 14.941C72.038 8.16802 89.491 15.082 96.085 30.595C102.589 45.897 96.023 64.0141 81.118 71.0021ZM94.359 31.118C88.051 16.601 71.621 10.194 57.578 16.758C43.656 23.266 37.331 40.452 43.579 54.849C49.912 69.442 66.365 75.9281 80.328 69.3661C94.409 62.7491 100.683 45.6701 94.36 31.1191L94.359 31.118ZM57.459 16.483C71.657 9.84602 88.259 16.326 94.631 30.99V30.9911C101.018 45.6891 94.683 62.952 80.447 69.641C66.327 76.277 49.703 69.714 43.308 54.977C36.996 40.433 43.382 23.063 57.459 16.483Z" fill="#04060B"/>
<path d="M92.2211 31.41C95.2381 38.627 95.6201 45.37 93.3771 52.212C91.4051 58.229 87.8011 62.983 82.6031 66.371C77.9931 69.376 72.9371 70.806 67.5061 70.437C59.0201 69.86 52.2581 65.941 47.3571 58.745C43.8701 53.624 42.2691 47.851 42.6371 41.577C43.1291 33.225 46.5171 26.32 53.0061 21.296C60.0181 15.868 67.8531 14.5 76.2251 17.107C82.1601 18.956 86.8361 22.666 90.2961 27.987C91.1241 29.261 91.7951 30.647 92.2211 31.41ZM91.4841 32.222L91.483 32.221C91.19 31.644 90.7931 30.846 90.3821 30.058C90.2011 29.711 90.0001 29.376 89.7931 29.047C86.4751 23.749 81.9491 20.035 76.1311 18.15C68.5721 15.701 61.3921 16.744 54.7521 21.248C49.7781 24.624 46.4181 29.359 44.7191 35.256C42.3541 43.468 43.5051 51.22 48.2221 58.208C53.1041 65.443 59.9611 69.187 68.5011 69.441C73.6451 69.594 78.3821 68.078 82.6631 65.112C87.4111 61.823 90.6971 57.329 92.4971 51.72C94.5951 45.181 94.2041 38.749 91.4851 32.224L91.4841 32.222Z" fill="#04060B"/>
<path d="M90.0341 32.872L90.0331 32.873C92.4531 38.656 92.8081 44.335 91.0381 50.112C89.3221 55.713 86.0641 60.166 81.2741 63.308C74.9831 67.433 68.2211 68.384 61.1311 66.053C55.9601 64.353 51.8371 61.104 48.9311 56.346C45.1081 50.088 44.2511 43.342 46.3811 36.249C48.0651 30.636 51.3451 26.189 56.1371 23.051C62.4591 18.91 69.2471 17.964 76.3691 20.338C81.4701 22.038 85.4831 25.284 88.4411 29.92C88.6511 30.249 88.8521 30.584 89.0351 30.928C89.4151 31.646 89.7791 32.375 90.0341 32.871V32.872ZM89.2921 33.586L89.2931 33.583C88.7821 32.629 88.3451 31.718 87.8241 30.858C84.9361 26.088 80.8801 22.83 75.6991 21.193C68.9061 19.046 62.4541 20.04 56.4861 24.035C51.9481 27.074 48.8461 31.336 47.2781 36.7C45.2371 43.683 46.1841 50.27 50.0951 56.311C52.9621 60.738 56.9541 63.682 61.8711 65.229C66.9311 66.821 71.9481 66.564 76.8641 64.532C80.7621 62.921 84.0531 60.414 86.5341 56.892C91.6461 49.639 92.4621 41.827 89.2911 33.588L89.2921 33.586Z" fill="#04060B"/>
<path d="M81.1389 59.62C81.0029 59.308 80.8549 59.008 80.7499 58.692C80.7249 58.618 80.8249 58.46 80.9079 58.394C82.5649 57.07 84.012 55.535 85.155 53.717C88.421 48.522 89.2859 42.923 87.5369 37.001C85.8649 31.339 82.3299 27.295 77.1299 24.891C73.4229 23.177 69.5449 22.839 65.5709 23.735C65.3219 23.791 65.2009 23.749 65.1179 23.503C65.0419 23.276 64.9319 23.062 64.8399 22.839C64.8179 22.789 64.866 22.733 64.918 22.718C72.886 20.461 83.208 24.13 87.642 33.985C92.119 43.934 88.1269 54.67 81.1389 59.618V59.62Z" fill="#04060B"/>
</g>
</svg>
