<svg width="50" height="50" viewBox="0 0 50 50" fill="none" xmlns="http://www.w3.org/2000/svg">
<path d="M39.7425 18.7721C38.937 16.8664 37.7835 15.1554 36.3138 13.6862C34.844 12.2165 33.133 11.063 31.2279 10.2575C29.2555 9.42244 27.1604 9 25 9C22.8396 9 20.7445 9.42244 18.7721 10.2575C16.8664 11.063 15.1554 12.2165 13.6862 13.6862C12.2165 15.156 11.063 16.867 10.2575 18.7721C9.42244 20.7445 9 22.8396 9 25C9 27.1604 9.42244 29.2555 10.2575 31.2279C11.063 33.1336 12.2165 34.8446 13.6862 36.3138C15.156 37.783 16.867 38.937 18.7721 39.7425C20.7445 40.5776 22.8396 41 25 41C27.1604 41 29.2555 40.5776 31.2279 39.7425C33.1336 38.937 34.8446 37.7835 36.3138 36.3138C37.783 34.844 38.937 33.133 39.7425 31.2279C40.5776 29.2555 41 27.1604 41 25C41 22.8396 40.5776 20.7445 39.7425 18.7721ZM22.9675 34.8006L18.7172 31.1523L14.6238 27.6392L18.2611 23.4013L22.0232 26.6302L30.8666 15.1994L35.3747 18.4951L22.9665 34.8006H22.9675Z" fill="#1EF93B"/>
<path d="M49.1802 25.0114L46.5697 29.162L46.4679 29.3238L46.5 29.5122L47.324 34.3515L43.3288 37.18L43.172 37.291L43.1299 37.4785L42.0539 42.2671L37.289 43.3491L37.1016 43.3917L36.9909 43.5489L34.17 47.5554L29.3574 46.7153L29.1667 46.682L29.0034 46.7857L24.8739 49.4077L20.7454 46.7871L20.5827 46.6839L20.3928 46.7165L15.579 47.5438L12.7643 43.5314L12.6536 43.3736L12.4656 43.331L7.70023 42.2503L6.62285 37.4622L6.5808 37.2753L6.42466 37.1644L2.43524 34.3296L3.27207 29.4914L3.30477 29.3023L3.20259 29.1399L0.590715 24.9885L3.20163 20.838L3.3034 20.6762L3.27132 20.4878L2.44728 15.6485L6.4425 12.82L6.5993 12.709L6.64143 12.5215L7.71743 7.73293L12.4823 6.65088L12.6698 6.60831L12.7804 6.45114L15.6013 2.44464L20.4139 3.28474L20.6046 3.31801L20.7679 3.21428L24.8974 0.592266L29.0258 3.21332L29.1886 3.31662L29.3785 3.28398L34.1923 2.45673L37.007 6.46907L37.1177 6.6269L37.3057 6.66954L42.0711 7.75022L43.1485 12.5383L43.1905 12.7252L43.3467 12.8361L47.3361 15.6709L46.4992 20.5091L46.4665 20.6982L46.5687 20.8606L49.1802 25.0114ZM6.69 25.0002C6.69 35.0925 14.8341 43.2774 24.8857 43.2774C34.9372 43.2774 43.0813 35.0925 43.0813 25.0002C43.0813 14.908 34.9372 6.72311 24.8857 6.72311C14.8341 6.72311 6.69 14.908 6.69 25.0002Z" fill="white" stroke="white"/>
<path d="M22.1815 26.3854L22.5797 26.7146L22.8956 26.3057L31.1172 15.6661L35.2691 18.2954L22.9109 34.2973L14.74 27.9421L18.8129 23.6012L22.1815 26.3854Z" fill="#272D32" stroke="#1EF93B"/>
</svg>
