<svg width="50" height="50" viewBox="0 0 50 50" fill="none" xmlns="http://www.w3.org/2000/svg">
<path d="M25.0027 2.16089C12.3898 2.16089 2.16479 12.3859 2.16479 24.9987C2.16479 37.6116 12.3898 47.8366 25.0027 47.8366C37.6155 47.8366 47.8405 37.6116 47.8405 24.9987C47.8405 12.3859 37.6155 2.16089 25.0027 2.16089ZM25.0027 45.3122C13.7846 45.3122 4.68918 36.2168 4.68918 24.9987C4.68918 13.7807 13.7846 4.68527 25.0027 4.68527C36.2207 4.68527 45.3161 13.7807 45.3161 24.9987C45.3161 36.2168 36.2207 45.3122 25.0027 45.3122Z" fill="white" stroke="black" stroke-width="0.5"/>
<path d="M37.5 37.5C44.4036 30.5964 44.4036 19.4036 37.5 12.5C30.5964 5.59644 19.4036 5.59644 12.5 12.5C5.59644 19.4036 5.59644 30.5964 12.5 37.5C19.4036 44.4036 30.5964 44.4036 37.5 37.5Z" fill="#1EF93B"/>
<path d="M24.579 35.5037V33.5163C23.4307 33.3903 22.4954 33.1678 21.7768 32.8486C21.0581 32.5277 20.437 32.0119 19.9134 31.2977C19.3898 30.5835 19.0864 29.7122 18.9998 28.6823L21.3109 28.3062C21.4897 29.3741 21.8038 30.1573 22.2552 30.6576C22.9016 31.365 23.6762 31.7583 24.579 31.8394V25.5149C23.6347 25.3596 22.6687 25.0439 21.6811 24.566C20.9498 24.2124 20.3846 23.7241 19.9892 23.0979C19.5938 22.4717 19.3952 21.7626 19.3952 20.9673C19.3952 19.5544 19.973 18.4106 21.1304 17.5342C21.905 16.9459 23.0533 16.5853 24.5772 16.4525V15.5037H25.9296V16.4525C27.2658 16.5629 28.3256 16.9011 29.1075 17.4686C30.1114 18.1898 30.7162 19.18 30.9203 20.4377L28.5459 20.7465C28.4105 19.9667 28.127 19.3681 27.6973 18.9523C27.2676 18.5365 26.6789 18.2622 25.9296 18.1294V23.8587C27.087 24.1089 27.8526 24.3038 28.2281 24.4435C28.9431 24.7161 29.5264 25.0474 29.9778 25.4372C30.4292 25.8271 30.7758 26.2912 31.0178 26.8277C31.2597 27.3643 31.3807 27.9457 31.3807 28.5719C31.3807 29.9486 30.8751 31.0958 29.8622 32.0153C28.8493 32.9349 27.5384 33.4283 25.9314 33.4938V35.5037H24.579ZM24.579 18.107C23.6853 18.2243 22.9811 18.5331 22.4665 19.0334C21.9519 19.5337 21.6937 20.1254 21.6937 20.8103C21.6937 21.4866 21.9122 22.0542 22.3509 22.5096C22.7897 22.9668 23.5318 23.3308 24.579 23.6017V18.107ZM25.9332 31.8394C26.827 31.7445 27.5655 31.4081 28.1487 30.8353C28.7319 30.2608 29.0226 29.5518 29.0226 28.7047C29.0226 27.9836 28.8167 27.4039 28.4033 26.9658C27.9898 26.5276 27.1665 26.1359 25.9332 25.7909V31.8394Z" fill="#20262B"/>
</svg>
