<svg width="50" height="50" viewBox="0 0 50 50" fill="none" xmlns="http://www.w3.org/2000/svg">
<path d="M25.0019 2.16089C12.389 2.16089 2.16406 12.3859 2.16406 24.9987C2.16406 37.6116 12.389 47.8366 25.0019 47.8366C37.6148 47.8366 47.8398 37.6116 47.8398 24.9987C47.8398 12.3859 37.6148 2.16089 25.0019 2.16089ZM25.0019 45.3122C13.7839 45.3122 4.68844 36.2168 4.68844 24.9987C4.68844 13.7807 13.7839 4.68527 25.0019 4.68527C36.2199 4.68527 45.3154 13.7807 45.3154 24.9987C45.3154 36.2168 36.2199 45.3122 25.0019 45.3122Z" fill="white" stroke="black" stroke-width="0.5"/>
<path d="M37.5 37.5C44.4036 30.5964 44.4036 19.4036 37.5 12.5C30.5964 5.59644 19.4036 5.59644 12.5 12.5C5.59644 19.4036 5.59644 30.5964 12.5 37.5C19.4036 44.4036 30.5964 44.4036 37.5 37.5Z" fill="#1EF93B"/>
<path d="M31.6726 20.8287L31.6726 20.8289C31.7719 21.6889 31.6461 22.3723 31.3601 22.9139C31.074 23.4556 30.6233 23.8638 30.0585 24.1657L29.8203 24.293L30.0835 24.3516C31.0363 24.5638 31.8009 24.9449 32.3052 25.5784C32.8086 26.2109 33.0645 27.1097 32.9699 28.3822L32.9699 28.3822C32.8533 29.955 32.2199 30.9501 31.2083 31.5885C30.1887 32.2319 28.7749 32.5196 27.0868 32.6471L26.9925 32.6542L26.9942 32.7488L27.0517 36.0072L25.2372 36.0396L25.1806 32.8259L25.1789 32.7259L25.0791 32.7278C24.5577 32.7375 24.0237 32.7426 23.4718 32.741L23.3695 32.7407L23.3713 32.843L23.429 36.0717L21.6166 36.1037L21.5575 32.8389L21.5557 32.7398L21.4567 32.7409C21.2693 32.743 21.0798 32.7444 20.8887 32.7457C20.6011 32.7477 20.3099 32.7497 20.0169 32.7546L20.0167 32.7546L17.5129 32.7992L17.8402 30.5758L17.9867 30.5752C18.1261 30.5745 18.3118 30.5734 18.4967 30.5716C18.6815 30.5698 18.866 30.5673 19.0028 30.5639C19.0711 30.5621 19.1285 30.5601 19.1685 30.5578C19.1879 30.5566 19.2057 30.5553 19.2191 30.5535C19.2229 30.553 19.2305 30.552 19.2389 30.5499C19.5408 30.5394 19.7421 30.4226 19.8704 30.264C19.9979 30.1063 20.0456 29.9171 20.0623 29.778L20.0633 29.7781L20.063 29.7642L19.9706 24.555C19.9852 24.5548 19.9997 24.5545 20.0141 24.5543C20.0375 24.5539 20.0605 24.5535 20.0834 24.5531L20.0937 24.3537C20.0481 24.3482 20.0054 24.3453 19.9667 24.3438L19.9006 20.651L19.9004 20.6416L19.8985 20.6325C19.8537 20.4153 19.7569 20.1732 19.5555 19.9871C19.3554 19.8023 19.0628 19.6826 18.6452 19.686C18.6367 19.6839 18.6294 19.683 18.6256 19.6826C18.6114 19.6809 18.593 19.68 18.5734 19.6794C18.533 19.6781 18.4753 19.678 18.407 19.6786C18.2701 19.6798 18.0857 19.6841 17.9012 19.6892C17.7165 19.6944 17.5312 19.7004 17.3921 19.7051L17.2613 19.7096L17.2259 17.7489L19.8069 17.7039L19.8074 17.7143L19.9046 17.7125C20.3233 17.7048 20.7524 17.689 21.1883 17.6723L21.2864 17.6685L21.2846 17.5703L21.2278 14.3448L23.0413 14.3126L23.0974 17.4732L23.0992 17.5751L23.2009 17.5712C23.7386 17.5509 24.2788 17.5307 24.8072 17.5213L24.9073 17.5195L24.9055 17.4192L24.8494 14.2805L26.6639 14.248L26.7216 17.4749L26.7232 17.5663L26.8143 17.5727C28.1113 17.6637 29.2625 17.8998 30.1207 18.4021C30.9729 18.901 31.5403 19.6643 31.6726 20.8287ZM23.3749 30.3936L23.3767 30.4935L23.4765 30.4916C23.5873 30.4895 23.7184 30.4891 23.8656 30.4885C24.6153 30.4857 25.7842 30.4814 26.8284 30.2576C27.4534 30.1237 28.0452 29.9091 28.4797 29.5607C28.9186 29.2088 29.1941 28.7218 29.182 28.0594C29.1697 27.3717 28.8781 26.8813 28.4263 26.5394C27.9792 26.2011 27.3796 26.0112 26.7501 25.9065C25.7437 25.7391 24.6287 25.7855 23.879 25.8168C23.6923 25.8245 23.5283 25.8314 23.3943 25.8337L23.2941 25.8355L23.2959 25.9358L23.3749 30.3936ZM28.1328 21.7868L28.1328 21.7868C28.1216 21.1614 27.8777 20.7131 27.4969 20.3992C27.1201 20.0886 26.6159 19.9146 26.0885 19.8187C25.2471 19.6657 24.3147 19.7073 23.6902 19.7351C23.5341 19.7421 23.3972 19.7482 23.2857 19.7502L23.1856 19.752L23.1874 19.8522L23.2594 23.8952L23.2612 23.9951L23.3609 23.9933C23.4535 23.9916 23.5634 23.9915 23.6872 23.9914C24.3118 23.9907 25.288 23.9897 26.1599 23.7887C26.683 23.6682 27.18 23.4736 27.5451 23.1552C27.9142 22.8333 28.1434 22.3891 28.1328 21.7868Z" fill="#272D32" stroke="#272D32" stroke-width="0.2"/>
</svg>
