<svg width="50" height="50" viewBox="0 0 50 50" fill="none" xmlns="http://www.w3.org/2000/svg">
<rect x="1" y="1" width="48" height="48" rx="24" fill="white"/>
<circle cx="25" cy="25" r="19" fill="#1EF93B" stroke="#20262B" stroke-width="2"/>
<path d="M28.2196 28.6313C26.7519 29.7911 24.9654 30.6392 24.9654 30.6392C25.9146 29.8599 27.9103 27.8157 27.9103 27.8157L27.9149 27.8154C35.3449 19.6433 31.6053 13.539 31.6053 13.539C31.6053 13.539 24.4486 13.3557 21.0905 23.877L21.0926 23.8811C21.0926 23.8811 20.3211 26.6318 20.1213 27.8436C20.1213 27.8436 19.9617 25.8724 20.2316 24.0214C17.5287 24.5395 14.2741 25.8403 12.4419 29.0153L19.6553 31.1824C19.6191 31.5454 19.5857 31.9152 19.5569 32.2934C19.8953 32.9886 20.6231 33.4086 21.3949 33.3542C21.7075 33.1397 22.0114 32.926 22.3077 32.7131L27.793 37.8745C29.625 34.7002 29.1233 31.2309 28.2196 28.6313ZM27.6311 20.4266C26.8399 19.97 26.5685 18.959 27.0248 18.1683C27.4811 17.3776 28.4923 17.1067 29.2835 17.5633C30.0747 18.0199 30.3462 19.031 29.8898 19.8217C29.433 20.6121 28.4223 20.8832 27.6311 20.4266Z" fill="#181D20"/>
<rect x="1" y="1" width="48" height="48" rx="24" stroke="black" stroke-width="2"/>
</svg>
