<svg width="51" height="50" viewBox="0 0 51 50" fill="none" xmlns="http://www.w3.org/2000/svg">
<path d="M25.0491 50C38.8682 50 50.0709 38.8071 50.0709 25C50.0709 11.1929 38.8682 0 25.0491 0C11.23 0 0.0273438 11.1929 0.0273438 25C0.0273438 38.8071 11.23 50 25.0491 50Z" fill="#506EE2"/>
<path fill-rule="evenodd" clip-rule="evenodd" d="M17.5969 18.8546L19.616 21.8637L21.6351 24.8812L17.5969 23.3567L17.5969 18.8546Z" fill="white"/>
<path fill-rule="evenodd" clip-rule="evenodd" d="M17.5969 27.7361L21.4189 25.7009L17.5969 30.9155L17.5969 27.7361Z" fill="white"/>
<path fill-rule="evenodd" clip-rule="evenodd" d="M17.5991 23.3574L21.6373 24.8819L17.5991 26.9163L17.5991 23.3574Z" fill="white"/>
<path fill-rule="evenodd" clip-rule="evenodd" d="M17.5954 18.854L15.5762 21.8631L13.5571 24.8806L17.5954 23.3562L17.5954 18.854Z" fill="white"/>
<path fill-rule="evenodd" clip-rule="evenodd" d="M17.5964 27.7364L13.7821 25.7012L17.5964 30.9157L17.5964 27.7364Z" fill="white"/>
<path fill-rule="evenodd" clip-rule="evenodd" d="M17.5954 23.356L13.5571 24.8805L17.5954 26.915L17.5954 23.356Z" fill="white"/>
<path d="M36.7756 33.4402L13.8864 33.3549C12.5709 33.3489 11.508 32.2784 11.5128 30.9649L11.5581 18.8955C11.5641 17.58 12.6346 16.5172 13.95 16.5232L36.8373 16.6072C38.1528 16.6132 39.2138 17.6824 39.2109 18.9972L39.1656 31.0666C39.1596 32.382 38.0891 33.4449 36.7756 33.4402Z" stroke="white" stroke-width="1.3" stroke-linecap="round" stroke-linejoin="round"/>
<path d="M35.9973 22.5938L29.8853 22.5709" stroke="white" stroke-width="1.3" stroke-linecap="round" stroke-linejoin="round"/>
<path d="M36.3111 29.419L23.053 29.3683" stroke="white" stroke-width="1.3" stroke-linecap="round" stroke-linejoin="round"/>
<path d="M26.0062 26.0214L30.0573 26.0362" stroke="white" stroke-width="1.3" stroke-linecap="round" stroke-linejoin="round"/>
<path d="M31.9636 26.043L36.0133 26.0596" stroke="white" stroke-width="1.3" stroke-linecap="round" stroke-linejoin="round"/>
</svg>
