<svg width="51" height="50" viewBox="0 0 51 50" fill="none" xmlns="http://www.w3.org/2000/svg">
<path d="M25.6654 50C39.4725 50 50.6654 38.8071 50.6654 25C50.6654 11.1929 39.4725 0 25.6654 0C11.8583 0 0.665405 11.1929 0.665405 25C0.665405 38.8071 11.8583 50 25.6654 50Z" fill="#15B785"/>
<path d="M32.1201 33.3119C33.8236 33.3119 35.2046 28.7654 35.2046 23.1569C35.2046 17.5485 33.8236 13.0019 32.1201 13.0019C30.4166 13.0019 29.0356 17.5485 29.0356 23.1569C29.0356 28.7654 30.4166 33.3119 32.1201 33.3119ZM32.1201 33.3119L14.8686 25.5592V20.7546M32.1201 13L14.8686 20.7546M14.8686 20.7546H12.5261C11.6833 20.7546 10.9994 21.4401 10.9994 22.2849V23.9337C10.9994 24.7785 11.6833 25.4641 12.5261 25.4641H14.8686M29.272 27.0604C31.318 26.9381 32.9377 25.2369 32.9377 23.155C32.9377 21.0731 31.318 19.3719 29.272 19.2495M18.5072 27.1944L20.156 38H17.0773L15.1437 25.6835M38.2368 24.4639H41.9994M38.386 19.3719L41.6351 16.9754M38.386 29.5579L41.6351 31.9544" stroke="white" stroke-width="1.5" stroke-linecap="round" stroke-linejoin="round"/>
</svg>
