<svg width="50" height="50" viewBox="0 0 50 50" fill="none" xmlns="http://www.w3.org/2000/svg">
<g clip-path="url(#clip0_8_115)">
<path d="M24.9985 50C38.8057 50 49.9985 38.8071 49.9985 25C49.9985 11.1929 38.8057 0 24.9985 0C11.1914 0 -0.00146484 11.1929 -0.00146484 25C-0.00146484 38.8071 11.1914 50 24.9985 50Z" fill="#4BB8DB"/>
<path d="M37.8466 35.4001L36.4517 36.8411C36.2465 37.053 35.9144 37.053 35.7093 36.8411L14.6356 16.2673C14.4305 16.0554 14.4305 15.7123 14.6356 15.5004L16.0306 14.0595C16.2357 13.8476 16.5679 13.8476 16.773 14.0595L37.8466 34.6333C38.0518 34.8452 38.0518 35.1883 37.8466 35.4001Z" fill="white"/>
<path d="M16.1769 13.0532L13.925 15.3794C13.7604 15.5494 13.7604 15.825 13.925 15.995L18.0918 20.2992C18.2564 20.4692 18.5232 20.4692 18.6878 20.2992L20.9398 17.973C21.1044 17.803 21.1044 17.5274 20.9398 17.3574L16.7729 13.0532C16.6083 12.8832 16.3415 12.8832 16.1769 13.0532Z" fill="white"/>
<path d="M18.1296 17.397C21.7182 13.6901 25.7952 10.918 29.9865 9.1268C30.0513 9.09936 30.0317 8.99945 29.9621 9C24.7096 9.05764 19.6351 11.0376 15.8041 14.9949C11.9731 18.9515 10.0563 24.1933 10.0005 29.6189C9.99996 29.6913 10.0961 29.7111 10.1232 29.6441C11.8573 25.3147 14.5409 21.1039 18.1296 17.397Z" fill="white"/>
</g>
<defs>
<clipPath id="clip0_8_115">
<rect x="-0.00146484" width="50" height="50" rx="12" fill="white"/>
</clipPath>
</defs>
</svg>
