<svg width="531" height="420" viewBox="0 0 531 420" fill="none" xmlns="http://www.w3.org/2000/svg">
<path d="M305.264 552.012C180.931 607.93 35.6381 552.139 -20.0264 426.544C-75.4191 301.557 -18.2344 155.201 106.84 100.606C230.33 46.7019 375.267 102.885 429.922 227.799C483.837 351.006 429.146 496.378 305.264 552.012ZM417.841 230.923C365.019 112.844 227.152 60.1755 109.145 113.012C-7.85341 165.394 -61.0457 304.771 -8.72594 421.882C44.2885 540.547 182.34 593.886 299.701 541.05C418.019 487.796 470.788 349.282 417.846 230.933L417.841 230.923Z" fill="#E4F9DF" fill-opacity="0.04"/>
<path d="M397.885 234.228C422.894 292.328 426.007 346.535 407.317 401.443C390.887 449.734 360.913 487.808 317.701 514.855C279.38 538.84 237.364 550.153 192.249 546.996C121.749 542.061 65.6013 510.32 24.9494 452.312C-3.98034 411.034 -17.2401 364.585 -14.1258 314.179C-9.97271 247.068 18.2257 191.701 72.1738 151.554C130.473 108.173 195.577 97.4575 265.107 118.708C314.396 133.777 353.218 163.761 381.921 206.649C388.79 216.918 394.348 228.078 397.885 234.228ZM391.748 240.724C389.319 236.07 386.03 229.647 382.62 223.29C381.119 220.501 379.448 217.8 377.729 215.144C350.211 172.452 312.635 142.44 264.315 127.085C201.537 107.139 141.879 115.262 86.6849 151.23C45.3354 178.179 17.3803 216.12 3.22139 263.446C-16.4926 329.362 -6.99205 391.702 32.1356 448.032C72.6378 506.35 129.575 536.681 200.522 539.027C243.253 540.442 282.619 528.422 318.211 504.738C357.683 478.472 385.016 442.469 400.012 397.455C417.493 344.981 414.295 293.27 391.762 240.73L391.748 240.724Z" fill="#E4F9DF" fill-opacity="0.04"/>
<path d="M379.628 245.892C399.688 292.464 402.591 338.12 387.84 384.484C373.534 429.443 346.437 465.119 306.618 490.197C254.319 523.134 198.138 530.536 139.253 511.549C96.3081 497.701 62.0851 471.44 37.9805 433.099C6.27164 382.665 -0.797079 328.42 16.954 271.49C30.9951 226.43 58.2783 190.809 98.1104 165.76C150.665 132.697 207.061 125.337 266.214 144.667C308.58 158.509 341.889 184.741 366.425 222.111C368.164 224.758 369.834 227.46 371.351 230.23C374.506 236.018 377.526 241.89 379.637 245.888L379.628 245.892ZM373.481 251.593C369.245 243.905 365.612 236.559 361.288 229.629C337.334 191.185 303.67 164.858 260.638 151.513C204.224 134.021 150.618 141.781 101.007 173.681C63.2828 197.942 37.4757 232.088 24.4093 275.143C7.39744 331.196 15.2125 384.165 47.6541 432.856C71.4353 468.538 104.572 492.344 145.414 504.949C187.438 517.925 229.118 516.035 269.972 499.879C302.367 487.071 329.728 467.037 350.37 438.823C392.893 380.701 399.732 317.943 373.452 251.606L373.481 251.593Z" fill="#E4F9DF" fill-opacity="0.04"/>
<path d="M268.846 284.464C274.038 284.118 278.935 283.523 283.821 283.524C299.982 283.557 312.89 290.132 321.993 303.613C330.026 315.502 334.688 328.712 335.923 343.014C337.402 360.185 331.108 374.541 319.519 386.844C309.947 396.997 298.478 404.586 286.49 411.482C283.543 413.18 280.551 414.806 277.383 416.581C277.953 417.854 278.415 418.886 278.877 419.918C285.134 433.905 291.362 447.905 297.672 461.857C298.431 463.554 298.398 464.462 296.524 465.306C280.664 472.451 264.856 479.688 249.021 486.891C248.627 487.069 248.207 487.188 247.437 487.454L225.943 439.407L161.155 468.593L146.812 436.529C148.859 435.607 150.857 434.753 152.819 433.823C155.187 432.686 157.595 431.59 159.88 430.294C164.957 427.393 166.683 422.084 164.262 416.672C156.425 399.155 148.556 381.641 140.672 364.145C130.792 342.24 120.864 320.356 110.974 298.456C107.217 290.134 99.7592 286.992 91.2277 290.279C88.4768 291.333 85.8361 292.685 83.0004 293.962L70.0852 265.091L134.758 235.957L113.6 188.662C119.752 185.89 125.568 183.27 131.383 180.651C140.832 176.394 150.299 172.176 159.691 167.794C161.793 166.812 162.68 167.143 163.61 169.274C169.526 182.73 175.571 196.14 181.574 209.558C183.386 213.61 183.348 213.499 187.456 212.147C199.913 208.031 212.579 204.874 225.79 204.741C242.752 204.576 257.156 210.001 267.352 224.3C275.071 235.125 279.767 246.941 278.664 260.534C278.019 268.463 274.999 275.526 270.522 282.016C269.981 282.793 269.453 283.576 268.85 284.473L268.846 284.464ZM188.466 346.207C188.634 346.815 188.676 347.167 188.814 347.476C197.228 366.181 205.671 384.874 214.052 403.584C214.79 405.233 215.654 405.331 217.117 404.625C227.315 399.718 237.722 395.204 247.697 389.876C257.17 384.82 265.837 378.505 272.54 369.841C283.614 355.534 279.038 335.389 262.921 328.277C255.942 325.198 248.572 325.272 241.191 326.407C222.323 329.309 205.619 338.027 188.466 346.207ZM175.94 318.876C176.693 318.676 177.048 318.643 177.351 318.495C186.484 314.022 195.797 309.849 204.697 304.959C212.406 300.71 219.229 295.179 224.298 287.715C234.552 272.606 224.099 253.938 211.987 250.099C203.575 247.433 195.352 248.414 187.118 250.558C175.675 253.534 165.078 258.633 154.514 263.855C152.386 264.907 151.925 265.787 152.95 268.002C158.592 280.226 164.09 292.515 169.631 304.773C171.73 309.414 173.791 314.072 175.94 318.876Z" fill="#E4F9DF" fill-opacity="0.04"/>
<path d="M240.023 490.897C172.251 512.457 79.068 482.738 42.4704 395.841C6.78708 311.117 48.1597 225.871 106.05 191.516C107.129 193.928 108.32 196.254 109.156 198.717C109.354 199.289 108.518 200.569 107.833 201.052C94.7873 210.023 83.0311 220.43 73.3325 232.959C42.2893 273.033 31.4449 318.113 43.2103 367.495C55.2648 418.091 85.9609 454.204 133.356 475.261C165.715 489.636 199.449 491.801 233.798 483.177C235.813 482.675 236.682 483.118 237.371 484.917C238.15 486.942 239.115 488.895 240.022 490.92L240.023 490.897Z" fill="#E4F9DF" fill-opacity="0.04"/>
<path d="M305.56 459.911C304.438 457.403 303.209 454.989 302.338 452.449C302.131 451.859 302.962 450.592 303.649 450.062C317.426 439.498 329.458 427.228 338.967 412.675C366.13 371.104 373.349 326.209 358.848 278.639C344.982 233.158 315.633 200.599 272.431 181.142C241.636 167.268 209.414 164.433 176.386 171.489C174.321 171.932 173.312 171.587 172.625 169.613C171.993 167.788 171.084 166.065 170.319 164.278C170.215 164.046 170.241 163.768 170.209 163.516C236.538 145.237 322.803 174.931 359.736 254.444C396.886 334.416 363.654 420.434 305.556 459.901L305.56 459.911Z" fill="#E4F9DF" fill-opacity="0.04"/>
</svg>
