<svg width="89" height="89" viewBox="0 0 89 89" fill="none" xmlns="http://www.w3.org/2000/svg">
<path d="M13.0265 57.9472C20.3727 75.3293 40.1954 83.2841 57.4053 75.8309C74.5528 68.4158 82.4092 48.5235 75.297 31.4718C68.0872 14.184 48.3145 6.17681 31.2252 13.3547C13.9174 20.6242 5.71514 40.6469 13.0265 57.9472ZM31.7032 15.5144C47.7895 8.57945 66.3145 15.9758 73.1832 32.0725L73.1837 32.0738C80.068 48.2071 72.6067 66.8724 56.477 73.8635C40.4809 80.7982 21.9315 73.3129 15.0371 57.1341C8.23476 41.1709 15.7559 22.389 31.7032 15.5144Z" fill="#F5F5F7" stroke="#F5F5F7" stroke-width="0.5"/>
<path d="M70.674 32.3843C73.9465 40.3655 74.2431 47.7732 71.5656 55.235C69.2118 61.7977 65.0356 66.9395 59.0808 70.5502C53.7999 73.7523 48.0452 75.2169 41.902 74.6997C32.3024 73.8914 24.7226 69.4502 19.3173 61.4518C15.4707 55.7602 13.7725 49.3925 14.3159 42.5156C15.0404 33.3596 19.0153 25.8533 26.4647 20.4743C34.5149 14.6618 43.4159 13.3228 52.8447 16.3571C59.5289 18.5088 64.7508 22.6771 68.5627 28.5881C69.4749 30.0034 70.2064 31.5379 70.674 32.3843ZM69.8229 33.2601C69.8223 33.2598 69.8219 33.2594 69.8216 33.2589C69.5015 32.6187 69.0685 31.7358 68.6188 30.8617C68.4207 30.478 68.1993 30.106 67.9712 29.74C64.3204 23.8581 59.2684 19.6884 52.7171 17.4995C44.2055 14.6562 36.0532 15.6516 28.4438 20.4576C22.743 24.0586 18.8424 29.186 16.8005 35.6213C13.9575 44.5843 15.1057 53.1148 20.3071 60.8811C25.6913 68.9215 33.382 73.1717 43.0487 73.6273C48.871 73.9021 54.2661 72.3358 59.1742 69.1698C64.6174 65.6586 68.4285 60.7946 70.5792 54.6766C73.086 47.5451 72.772 40.4783 69.8243 33.2615C69.8241 33.2608 69.8236 33.2603 69.8229 33.2601V33.2601Z" fill="#F5F5F7"/>
<path d="M68.1692 33.9425C68.1688 33.9427 68.1687 33.9431 68.1688 33.9434C70.7936 40.3404 71.0816 46.5795 68.9613 52.8816C66.9049 58.9929 63.1266 63.8125 57.6388 67.1606C50.431 71.558 42.7544 72.4615 34.7712 69.7566C28.9491 67.784 24.3453 64.1331 21.1495 58.852C16.9454 51.9053 16.1097 44.4853 18.664 36.746C20.6845 30.6204 24.4881 25.8087 29.9776 22.4646C37.2204 18.0504 44.9264 17.1531 52.9453 19.9052C58.6884 21.8761 63.1677 25.5213 66.4247 30.6706C66.6555 31.0354 66.8769 31.4074 67.0771 31.7886C67.4934 32.5845 67.8911 33.3917 68.1695 33.9416C68.1697 33.9419 68.1695 33.9423 68.1692 33.9425V33.9425ZM67.315 34.7104C67.3162 34.7099 67.3166 34.7085 67.3161 34.7075C66.7571 33.6504 66.2794 32.6411 65.7066 31.6873C62.5315 26.3925 58.0042 22.7336 52.1689 20.8294C44.5191 18.3334 37.1925 19.2908 30.3538 23.5516C25.1535 26.7923 21.5547 31.4052 19.6718 37.2591C17.2203 44.8799 18.1608 52.1272 22.4689 58.8373C25.6269 63.7546 30.0883 67.0683 35.6266 68.8673C41.3253 70.7192 47.0121 70.5406 52.6199 68.4127C57.0666 66.7256 60.8441 64.0425 63.7247 60.2296C69.6586 52.3753 70.7394 43.82 67.3139 34.7131C67.3135 34.7121 67.314 34.7109 67.315 34.7104V34.7104Z" fill="#F5F5F7"/>
<path d="M52.9779 38.9996C52.9778 38.9993 52.978 38.999 52.9783 38.999C53.6867 38.9616 54.3553 38.8898 55.021 38.8993C57.2238 38.9347 58.9676 39.858 60.1764 41.718C61.2431 43.3583 61.8473 45.1726 61.9818 47.1297C62.1427 49.4793 61.2508 51.4293 59.6419 53.0885C58.3132 54.4578 56.7319 55.4731 55.0817 56.3925C54.8147 56.5415 54.5451 56.6862 54.2678 56.8351C54.0189 56.9688 53.9132 57.2712 54.0239 57.531V57.531C54.8436 59.4546 55.6593 61.3799 56.4864 63.2987C56.5859 63.5322 56.5792 63.6561 56.3218 63.768C54.143 64.7141 51.9712 65.6729 49.7959 66.627V66.627C49.6765 66.6788 49.5395 66.6093 49.4885 66.4896L48.2346 63.5471C47.4217 61.6395 45.2208 60.7626 43.3188 61.5886L40.0613 63.0032C38.8471 63.5304 37.4422 62.9707 36.9233 61.753L36.3365 60.3759C36.1417 59.9188 36.3571 59.3966 36.8091 59.1898V59.1898C37.1345 59.0391 37.4654 58.8938 37.7798 58.7211C38.4788 58.3342 38.7265 57.612 38.4093 56.8677C37.3827 54.4586 36.3516 52.0499 35.3184 49.6436C34.0237 46.6309 32.7223 43.621 31.4262 40.6089C30.9339 39.4644 29.9248 39.0206 28.7541 39.4535V39.4535C28.1162 39.688 27.408 39.4341 27.1414 38.8086L26.778 37.9559C26.3108 36.8594 26.8183 35.5857 27.9115 35.111L31.5734 33.5208C33.3643 32.7431 34.1956 30.6566 33.4302 28.8605L33.0884 28.0583C32.5118 26.7052 33.1381 25.1333 34.4872 24.5474V24.5474C35.7852 23.9838 37.0855 23.4254 38.3762 22.8445C38.665 22.7144 38.7851 22.7612 38.9068 23.0542C39.6813 24.9047 40.4735 26.7491 41.2598 28.5944C41.4973 29.1516 41.4924 29.1364 42.0554 28.9595C43.7631 28.4208 45.4971 28.0136 47.2981 28.0207C49.6104 28.0306 51.5608 28.7998 52.9167 30.7735C53.9431 32.2678 54.5552 33.8916 54.3727 35.7473C54.2659 36.8297 53.8376 37.7892 53.212 38.6677C53.1365 38.7727 53.0628 38.8784 52.9787 38.9997C52.9785 39 52.978 38.9999 52.9779 38.9996V38.9996ZM42.0386 47.2083C41.9443 47.2518 41.8792 47.3621 41.9199 47.4576V47.4576C43.0224 50.0303 44.1289 52.6012 45.2269 55.1743C45.3236 55.4011 45.4411 55.4162 45.6422 55.3225C47.0438 54.6714 48.4731 54.0744 49.8453 53.3653C51.1484 52.6925 52.3447 51.846 53.2789 50.6747C54.8223 48.7405 54.2462 45.9785 52.0663 44.9757C51.1223 44.5415 50.1176 44.5376 49.1089 44.6785C46.5899 45.0306 44.3391 46.1454 42.0386 47.2083ZM40.1544 43.3401C40.1996 43.4463 40.3218 43.5241 40.4261 43.4748V43.4748C41.6815 42.8809 42.9609 42.3285 44.1855 41.6772C45.2463 41.1113 46.1894 40.3684 46.898 39.358C48.3314 37.3128 46.9509 34.7413 45.3091 34.1935C44.1689 33.8129 43.0458 33.9312 41.9184 34.2086C40.3517 34.5933 38.8952 35.2699 37.4428 35.9634C37.1503 36.1031 37.0853 36.2224 37.2199 36.5272C37.9599 38.2087 38.6801 39.8988 39.4063 41.5847C39.6558 42.1635 39.901 42.7443 40.1544 43.3401Z" fill="#F5F5F7"/>
<path d="M48.545 67.1182C48.545 67.1178 48.5447 67.1175 48.5443 67.1176C39.2554 69.9339 26.6269 65.6876 21.8479 53.7317C17.3678 42.5241 22.5969 31.3892 30.0924 26.4714C30.5705 26.1577 31.2372 26.3564 31.411 26.9009V26.9009C31.4366 26.9794 31.3195 27.1529 31.225 27.2176C29.4254 28.4192 27.798 29.8197 26.446 31.5144C22.1185 36.9348 20.5321 43.0793 22.0169 49.8562C23.5382 56.7997 27.6352 61.7988 34.0443 64.7712C38.4202 66.8002 43.0129 67.162 47.7151 66.0495C47.9911 65.9847 48.1084 66.047 48.198 66.2944C48.299 66.5722 48.4255 66.8404 48.5439 67.1184C48.5441 67.119 48.545 67.1188 48.545 67.1182V67.1182Z" fill="#F5F5F7"/>
<path d="M57.5573 63.1113C57.4104 62.7661 57.2486 62.4337 57.136 62.0845C57.1093 62.0033 57.2256 61.8317 57.3205 61.7606C59.2237 60.3425 60.8931 58.6878 62.2243 56.7159C66.0266 51.0829 67.1187 44.9564 65.2568 38.4216C63.4765 32.1739 59.5547 27.6632 53.7131 24.9176C49.5492 22.9599 45.1644 22.5092 40.6457 23.4098C40.3631 23.4665 40.2264 23.4173 40.1376 23.146C40.0559 22.8951 39.9361 22.6577 39.8361 22.4117V22.4117C39.8124 22.356 39.8662 22.2959 39.9248 22.281C48.9947 19.9682 60.6118 24.2072 65.4361 35.1141C70.3067 46.1244 65.5709 57.8241 57.5579 63.1092C57.5572 63.1097 57.5569 63.1106 57.5573 63.1113V63.1113Z" fill="#F5F5F7"/>
</svg>
