<svg width="53" height="45" viewBox="0 0 53 45" fill="none" xmlns="http://www.w3.org/2000/svg">
<path d="M48.9534 27.4112C45.6359 28.5966 44.7342 28.9271 40.2312 31.1562C38.2842 32.1189 36.9263 32.7943 34.9469 33.7049C32.5293 34.8185 30.7762 35.3646 27.9796 35.6017C26.2211 35.7508 24.5705 35.5855 23.0491 34.6066C20.7285 33.1104 21.905 32.0614 23.6742 31.916C26.4457 31.6878 36.0857 33.1373 35.457 28.814C35.1175 26.4772 28.7861 27.1166 21.9122 24.6523C20.3136 24.0793 18.8569 23.1686 17.2062 22.7519C14.952 22.1826 12.4841 22.3442 10.2713 23.0339C10.0467 23.104 9.85454 23.174 9.6875 23.2459V40.6794C11.428 40.6758 13.4379 40.7118 15.1532 41.2183C17.3266 41.8595 19.4658 42.6678 21.614 43.3898C23.4982 44.0221 25.7218 45.1052 27.7515 44.9884C29.7632 44.8735 31.4552 43.6754 33.1148 42.6516C37.3663 40.0274 41.6196 37.405 45.8712 34.7808C47.4608 33.8001 48.6372 33.2379 50.0903 32.0561C50.8106 31.4687 52.6014 30.382 52.6732 29.4157C52.8402 27.1759 50.6597 26.8023 48.9534 27.4112Z" fill="#2A3035"/>
<path d="M6.31889 42.0588H2.15539C0.964538 42.0588 0 41.0943 0 39.9035V23.6554C0 22.4645 0.964538 21.5 2.15539 21.5H6.31889C7.50974 21.5 8.47428 22.4645 8.47428 23.6554V39.9035C8.47428 41.0943 7.50974 42.0588 6.31889 42.0588Z" fill="#2A3035"/>
<path d="M25.8766 15.4954C28.2601 16.0361 31.4357 16.3324 34.8179 16.3324C38.2018 16.3324 41.3774 16.0343 43.7591 15.4954C44.8764 15.2422 45.7816 14.9386 46.3779 14.6189C46.5809 14.5093 46.7318 14.4088 46.8414 14.319V9.95967C46.1606 10.3279 45.205 10.6494 43.9693 10.9296C41.5193 11.4846 38.2683 11.7917 34.8161 11.7917C31.3638 11.7917 28.1128 11.4864 25.6628 10.9296C24.4109 10.6458 23.4482 10.3189 22.7656 9.94531V14.2974C22.877 14.3926 23.035 14.5004 23.2542 14.6189C23.8541 14.9404 24.7594 15.2422 25.8766 15.4954Z" fill="#2A3035"/>
<path d="M43.9693 16.5624C41.5193 17.1174 38.2683 17.4246 34.8161 17.4246C31.3638 17.4246 28.1128 17.1192 25.6628 16.5624C24.4109 16.2786 23.4482 15.9517 22.7656 15.5781V19.9302C22.877 20.0254 23.035 20.1332 23.2542 20.2517C23.8505 20.5715 24.7576 20.875 25.8748 21.1283C28.2583 21.6689 31.4339 21.9653 34.8161 21.9653C38.2 21.9653 41.3756 21.6671 43.7573 21.1283C44.8746 20.875 45.7798 20.5715 46.3761 20.2517C46.5791 20.1422 46.73 20.0416 46.8396 19.9518V15.5925C46.1606 15.9589 45.2068 16.2822 43.9693 16.5624Z" fill="#2A3035"/>
<path d="M44.122 5.74425C41.6253 6.31004 38.3222 6.62257 34.8161 6.62257C31.3117 6.62257 28.0068 6.31184 25.5102 5.74425C24.3786 5.4874 23.4643 5.19104 22.7656 4.85156V8.66123C22.877 8.75643 23.035 8.86418 23.2542 8.98273C23.8505 9.30245 24.7576 9.606 25.8748 9.85926C28.2583 10.3999 31.4339 10.6963 34.8161 10.6963C38.2 10.6963 41.3756 10.3981 43.7573 9.85926C44.8746 9.606 45.7798 9.30245 46.3761 8.98273C46.5791 8.87316 46.73 8.77259 46.8396 8.68279V4.86415C46.1462 5.19644 45.241 5.48919 44.122 5.74425Z" fill="#2A3035"/>
<path d="M34.82 5.60401C41.4752 5.60401 46.8704 4.34951 46.8704 2.80201C46.8704 1.2545 41.4752 0 34.82 0C28.1647 0 22.7695 1.2545 22.7695 2.80201C22.7695 4.34951 28.1647 5.60401 34.82 5.60401Z" fill="#2A3035"/>
</svg>
