<svg width="10" height="10" viewBox="0 0 10 10" fill="none" xmlns="http://www.w3.org/2000/svg">
<g clip-path="url(#clip0_1_1671)">
<path d="M9.97965 1.05542C9.97161 1.01852 9.95392 0.984409 9.9284 0.956574C9.90287 0.928739 9.87041 0.908177 9.83433 0.896987C9.70303 0.87109 9.56718 0.880801 9.4409 0.925112C9.4409 0.925112 0.679333 4.07418 0.17902 4.42293C0.070895 4.49793 0.0349575 4.54136 0.017145 4.59293C-0.0694175 4.84105 0.199958 4.95043 0.199958 4.95043L2.45808 5.68636C2.49623 5.69296 2.53538 5.6906 2.57246 5.67949C3.08621 5.35511 7.7409 2.41574 8.00996 2.31699C8.05215 2.30417 8.0834 2.31699 8.07652 2.34824C7.96652 2.72511 3.94683 6.2973 3.92465 6.31918C3.91386 6.32802 3.90538 6.33936 3.89994 6.3522C3.8945 6.36505 3.89225 6.37902 3.8934 6.39293L3.6834 8.59636C3.6834 8.59636 3.59527 9.28386 4.28152 8.59636C4.76808 8.10918 5.23496 7.70605 5.46902 7.51011C6.24558 8.04605 7.08121 8.63886 7.44152 8.94761C7.50197 9.00633 7.57365 9.05226 7.65225 9.08265C7.73086 9.11305 7.81479 9.12727 7.89902 9.12449C8.24277 9.11136 8.33652 8.73543 8.33652 8.73543C8.33652 8.73543 9.93277 2.31199 9.98652 1.45105C9.99152 1.36667 9.99871 1.31261 9.99933 1.2548C10.0022 1.18775 9.99555 1.12063 9.97965 1.05542V1.05542Z" fill="#20262B"/>
</g>
<defs>
<clipPath id="clip0_1_1671">
<rect width="10" height="10" fill="white"/>
</clipPath>
</defs>
</svg>
