<svg width="104" height="110" viewBox="0 0 104 110" fill="none" xmlns="http://www.w3.org/2000/svg">
<path d="M0 22V0H104V110H93C79 110 66.5 96 66.5 84C66.5 72 61.5 58.5 52 52.5C42.5 46.5 31.5 49.1538 22 45.5C2.5 38 0 27 0 22Z" fill="url(#paint0_linear_519_752)"/>
<path d="M22 45.5C2.5 38 0 27 0 22V110H93C79 110 66.5 96 66.5 84C66.5 72 61.5 58.5 52 52.5C42.5 46.5 31.5 49.1538 22 45.5Z" fill="#F5F5F7"/>
<path d="M44.762 106.73C29.8029 113.511 12.297 106.86 5.56859 91.7722C-1.12695 76.7576 5.72828 59.124 20.777 52.5021C35.635 45.9639 53.0981 52.662 59.7048 67.6681C66.2221 82.4692 59.6669 99.9832 44.762 106.73ZM58.2509 68.0491C51.8663 53.8647 35.2551 47.5864 21.057 53.9938C6.98034 60.3461 0.604383 77.1382 6.92829 91.2065C13.3362 105.461 29.9697 111.82 44.09 105.413C58.3253 98.9553 64.6506 82.2672 58.2514 68.0503L58.2509 68.0491Z" fill="#20262B"/>
<path d="M55.8396 68.4538C58.8629 75.4338 59.249 81.9546 57.0099 88.5691C55.0416 94.3865 51.4404 98.9804 46.243 102.253C41.6338 105.155 36.5773 106.534 31.1444 106.174C22.6547 105.61 15.8876 101.815 10.9809 94.8526C7.48905 89.8982 5.88288 84.3152 6.24744 78.249C6.73363 70.1723 10.1175 63.4986 16.6048 58.6452C23.6154 53.4007 31.4522 52.0837 39.8284 54.6109C45.7663 56.4031 50.4469 59.9942 53.9118 65.1423C54.741 66.3749 55.4126 67.7154 55.8396 68.4538ZM55.1028 69.2384C55.1023 69.2382 55.1019 69.2378 55.1016 69.2373C54.8083 68.6784 54.4111 67.9073 53.9994 67.1443C53.818 66.8093 53.6163 66.485 53.4088 66.1662C50.0867 61.0412 45.5561 57.4462 39.7348 55.6192C32.1718 53.2461 24.9903 54.2488 18.352 58.5999C13.3788 61.8601 10.0207 66.4371 8.32567 72.1374C5.9656 80.0768 7.12242 87.5735 11.8453 94.3345C16.7341 101.334 23.5959 104.959 32.1389 105.211C37.2843 105.363 42.0217 103.9 46.3023 101.036C51.0496 97.8585 54.3331 93.515 56.1295 88.0924C58.2234 81.7716 57.8277 75.5513 55.1041 69.2396C55.1038 69.239 55.1034 69.2386 55.1028 69.2384Z" fill="#20262B"/>
<path d="M53.6503 69.8648C53.65 69.8649 53.6496 69.8661 53.6497 69.8664C56.0745 75.461 56.4334 80.9526 54.6669 86.537C52.9536 91.9522 49.6983 96.2561 44.9089 99.2903C38.6183 103.275 31.8552 104.19 24.761 101.93C19.5871 100.283 15.4609 97.1376 12.5505 92.5349C8.72207 86.4804 7.85972 79.9571 9.98536 73.1C11.6667 67.6727 14.9445 63.3753 19.7355 60.3447C26.0568 56.3443 32.8459 55.4348 39.9725 57.7353C45.0766 59.3827 49.0927 62.5246 52.0549 67.0103C52.2648 67.3281 52.4665 67.6524 52.6496 67.9851C53.0306 68.6798 53.3952 69.3847 53.6503 69.8648C53.6506 69.8646 53.6505 69.8651 53.6503 69.8648ZM52.9087 70.5553C52.9097 70.5548 52.9101 70.5536 52.9096 70.5526C52.3983 69.6301 51.9596 68.7484 51.4378 67.917C48.5456 63.3019 44.4867 60.1487 39.3025 58.5614C32.506 56.4808 26.053 57.4374 20.0859 61.2964C15.5486 64.2315 12.4482 68.3506 10.8838 73.5364C8.84699 80.2875 9.79894 86.6572 13.7153 92.5015C16.5861 96.7844 20.581 99.6346 25.5014 101.134C30.5641 102.677 35.5824 102.432 40.4983 100.471C44.3963 98.9159 47.6868 96.494 50.1664 93.0907C55.2742 86.0802 56.085 78.5271 52.9077 70.5577C52.9074 70.5567 52.9078 70.5557 52.9087 70.5553Z" fill="#20262B"/>
<path d="M40.3204 74.5543C40.9453 74.5105 41.5346 74.4369 42.1226 74.435C44.0678 74.4322 45.6228 75.2184 46.7211 76.8379C47.6902 78.2661 48.254 79.8549 48.4055 81.5765C48.587 83.6434 47.8323 85.3747 46.4398 86.8609C45.2897 88.0874 43.9108 89.0061 42.4693 89.8414C42.1149 90.0471 41.7552 90.2442 41.3743 90.4592C41.4431 90.6122 41.4989 90.7363 41.5546 90.8604C42.3105 92.542 43.0629 94.2251 43.8252 95.9024C43.9169 96.1065 43.9131 96.2158 43.6877 96.3182C41.7801 97.1852 39.879 98.0632 37.9745 98.9372C37.9271 98.9587 37.8766 98.9733 37.7839 99.0056L35.1874 93.2292L27.3953 96.7706L25.6626 92.9157C25.9088 92.8038 26.1491 92.7002 26.3851 92.5873C26.6699 92.4496 26.9595 92.3165 27.2343 92.1595C27.8448 91.808 28.0514 91.1681 27.7589 90.5175C26.8123 88.4114 25.8616 86.3058 24.9092 84.2024C23.7157 81.569 22.5164 78.9381 21.3217 76.3051C20.8679 75.3047 19.9697 74.9295 18.9435 75.3288C18.6126 75.4569 18.295 75.6208 17.954 75.7758L16.3937 72.3048L24.1719 68.7696L21.6161 63.0836C22.3559 62.7473 23.0554 62.4295 23.7548 62.1116C24.8913 61.5951 26.0298 61.0832 27.1594 60.5516C27.4122 60.4325 27.5191 60.472 27.6314 60.7282C28.3461 62.346 29.0764 63.9582 29.8015 65.5714C30.0204 66.0585 30.0159 66.0452 30.51 65.8807C32.0085 65.3798 33.5324 64.9944 35.1224 64.9729C37.1639 64.9458 38.8987 65.5931 40.1287 67.3106C41.0599 68.6108 41.6275 70.0316 41.4975 71.6689C41.4213 72.6238 41.0593 73.4755 40.5218 74.2589C40.4567 74.3527 40.3934 74.4472 40.3209 74.5555L40.3204 74.5543ZM30.6582 82.0225C30.6785 82.0957 30.6837 82.138 30.7003 82.1751C31.7168 84.424 32.7367 86.6713 33.7492 88.9206C33.8383 89.1189 33.9423 89.1303 34.1182 89.0448C35.3446 88.4497 36.5964 87.9017 37.7959 87.256C38.935 86.6433 39.9769 85.8793 40.782 84.8332C42.1121 83.1058 41.5572 80.682 39.616 79.8325C38.7754 79.4646 37.8884 79.4767 37.0002 79.6164C34.7299 79.9736 32.7211 81.0305 30.6582 82.0225ZM29.1451 78.7368C29.2357 78.7124 29.2784 78.7083 29.3149 78.6904C30.4132 78.1479 31.5334 77.6416 32.6036 77.049C33.5305 76.5342 34.3507 75.8653 34.9593 74.9644C36.1905 73.1409 34.9286 70.8974 33.4701 70.4403C32.4571 70.1227 31.4676 70.2442 30.4769 70.5059C29.1003 70.869 27.8259 71.4874 26.5554 72.1207C26.2994 72.2482 26.2441 72.3543 26.368 72.6206C27.0494 74.0902 27.7136 75.5677 28.3829 77.0413C28.6365 77.5993 28.8855 78.1593 29.1451 78.7368Z" fill="#20262B"/>
<path d="M36.864 99.3959C28.7126 102.019 17.4956 98.4744 13.0772 88.0192C8.93509 78.2182 13.364 68.3314 19.8975 63.8849C20.3141 63.6014 20.9057 63.7661 21.0682 64.2429C21.0921 64.3117 20.9917 64.4663 20.9093 64.5247C19.3411 65.6107 17.9282 66.8692 16.7633 68.3825C13.0346 73.2228 11.7373 78.6584 13.1614 84.6036C14.6205 90.6949 18.3203 95.0341 24.027 97.5527C27.9232 99.272 31.9829 99.5197 36.1146 98.4673C36.3571 98.406 36.4616 98.4591 36.5449 98.6756C36.6387 98.9186 36.7549 99.1529 36.864 99.3959Z" fill="#20262B"/>
<path d="M44.7755 95.7114C44.6401 95.4096 44.4917 95.1193 44.3865 94.8136C44.3616 94.7425 44.4613 94.5896 44.5439 94.5255C46.1999 93.2473 47.6456 91.7643 48.7875 90.0072C52.0491 84.9878 52.9103 79.5757 51.1575 73.8496C49.4814 68.3751 45.9445 64.4634 40.7426 62.1357C37.0347 60.476 33.1571 60.1468 29.1839 61.0097C28.9355 61.064 28.814 61.0228 28.731 60.7852C28.6547 60.5656 28.545 60.3583 28.4527 60.1432C28.4308 60.0945 28.4773 60.0408 28.5287 60.0268C36.4951 57.85 46.8196 61.4036 51.2603 70.9341C55.7436 80.555 51.7598 90.9315 44.776 95.7095C44.7754 95.7099 44.7752 95.7107 44.7755 95.7114Z" fill="#20262B"/>
<defs>
<linearGradient id="paint0_linear_519_752" x1="57" y1="56.5" x2="106" y2="1.01113e-05" gradientUnits="userSpaceOnUse">
<stop stop-color="#20262B"/>
<stop offset="0.306272" stop-color="#20262B" stop-opacity="0"/>
</linearGradient>
</defs>
</svg>
