<svg width="88" height="88" viewBox="0 0 88 88" fill="none" xmlns="http://www.w3.org/2000/svg">
<rect x="0.414062" y="22.0454" width="68.9102" height="68.9102" rx="34.4551" transform="rotate(-17.9536 0.414062 22.0454)" fill="#1EF93B"/>
<path d="M49.0705 27.2736L29.1291 39.9403C27.7608 40.7212 26.6076 41.3455 27.0137 42.7924C28.0558 43.8831 29.1769 43.2026 30.5453 42.4217L51.0403 30.7252C52.4116 29.9494 50.4389 26.4927 49.0705 27.2736Z" fill="#F5F5F7"/>
<path d="M55.2613 33.4342C54.3522 31.8412 52.3334 31.2808 50.7309 32.1615L50.6587 32.1418L30.1637 43.8382C28.7953 44.6192 27.1177 44.3244 26.0755 43.2337C26.1476 43.4904 26.2408 43.7486 26.3777 43.9886L27.995 46.8223L28.7608 46.3852L29.0377 46.8703L28.2718 47.3074L28.9303 48.4613L35.3002 59.6228C36.218 61.2311 38.2711 61.7923 39.8795 60.8744L60.3745 49.1779C61.9879 48.2571 62.5439 46.2069 61.6261 44.5986L60.9209 43.3629L60.1397 43.8088C60.2482 44.0582 60.3385 44.3113 60.385 44.5826L59.8351 44.6865C59.8002 44.4831 59.734 44.284 59.6524 44.0936L57.5182 45.3116C55.1593 46.6579 52.1438 45.8337 50.7976 43.4748C49.4514 41.1159 50.2755 38.1004 52.6345 36.7542L56.035 34.8135L55.2511 33.44L55.2613 33.4342ZM59.8543 45.7045L60.404 45.7901C60.3447 46.1962 60.2133 46.5826 60.0198 46.9435L59.5263 46.6836C59.6964 46.3767 59.8023 46.0523 59.8543 45.7045ZM58.0293 48.093L58.3407 47.9153C58.545 47.7987 58.7346 47.6566 58.9075 47.497L59.2909 47.9078C59.088 48.098 58.8626 48.2605 58.6227 48.3974L58.3112 48.5752L58.0344 48.0901L58.0293 48.093ZM56.0737 49.2091L57.0489 48.6525L57.3258 49.1376L56.3505 49.6941L56.0737 49.2091ZM37.7498 60.3095L36.7695 60.869L36.4927 60.384L37.473 59.8245L37.7498 60.3095ZM29.7383 45.8207L30.7186 45.2612L30.9954 45.7462L30.0151 46.3057L29.7383 45.8207ZM39.7105 59.1906L38.7302 59.7501L38.4533 59.265L39.4337 58.7055L39.7105 59.1906ZM31.6938 44.7046L32.6741 44.1452L32.951 44.6302L31.9706 45.1897L31.6938 44.7046ZM41.666 58.0746L40.6857 58.634L40.4089 58.149L41.3892 57.5895L41.666 58.0746ZM33.6545 43.5857L34.6348 43.0262L34.9116 43.5113L33.9313 44.0707L33.6545 43.5857ZM43.6267 56.9556L42.6464 57.5151L42.3696 57.03L43.3499 56.4706L43.6267 56.9556ZM35.61 42.4696L36.5903 41.9102L36.8672 42.3952L35.8868 42.9547L35.61 42.4696ZM45.5823 55.8396L44.6019 56.3991L44.3251 55.914L45.3054 55.3545L45.5823 55.8396ZM37.5707 41.3507L38.551 40.7912L38.8278 41.2763L37.8475 41.8358L37.5707 41.3507ZM47.5378 54.7235L46.5575 55.283L46.2807 54.798L47.261 54.2385L47.5378 54.7235ZM39.5262 40.2347L40.5065 39.6752L40.7834 40.1603L39.803 40.7197L39.5262 40.2347ZM49.4985 53.6046L48.5181 54.1641L48.2413 53.679L49.2216 53.1195L49.4985 53.6046ZM41.4818 39.1186L42.4621 38.5592L42.7389 39.0442L41.7586 39.6037L41.4818 39.1186ZM51.454 52.4886L50.4737 53.048L50.1969 52.563L51.1772 52.0035L51.454 52.4886ZM43.4424 37.9997L44.4227 37.4402L44.6996 37.9253L43.7192 38.4847L43.4424 37.9997ZM53.4096 51.3725L52.4292 51.932L52.1524 51.4469L53.1327 50.8875L53.4096 51.3725ZM45.398 36.8837L46.3783 36.3242L46.6551 36.8092L45.6748 37.3687L45.398 36.8837ZM55.0934 49.7685L55.3702 50.2536L54.3899 50.8131L54.1131 50.328L55.0934 49.7685ZM48.6136 35.6983L47.6333 36.2578L47.3564 35.7727L48.3368 35.2133L48.6136 35.6983ZM50.5742 34.5794L49.5939 35.1388L49.3171 34.6538L50.2974 34.0943L50.5742 34.5794ZM52.5557 34.1254C52.2086 34.0866 51.8673 34.1054 51.5319 34.1818L51.4097 33.6355C51.81 33.5424 52.2169 33.52 52.6223 33.5662L52.5557 34.1254ZM54.3891 35.0015C54.1493 34.7593 53.8643 34.5564 53.5509 34.4104L53.7918 33.9074C54.165 34.087 54.5018 34.3212 54.786 34.6057L54.3891 35.0015Z" fill="#F5F5F7"/>
<path d="M51.7318 42.9403C52.6264 44.5078 54.8994 45.5729 56.9928 44.3782L60.3934 42.4375L56.5703 35.7386L53.1698 37.6793C51.0253 38.9031 50.8373 41.3728 51.7318 42.9403ZM52.9573 39.4657L53.4122 39.7882C53.2188 40.0543 53.0939 40.3692 53.0434 40.6958L52.4907 40.6051C52.55 40.199 52.71 39.8031 52.9573 39.4657ZM53.2493 42.9068C53.0766 42.7346 52.9265 42.5428 52.8041 42.3284C52.7167 42.1752 52.6475 42.0184 52.5936 41.8528L53.1209 41.6737C53.1646 41.7977 53.2192 41.929 53.2862 42.0464C53.3824 42.2149 53.4961 42.3666 53.6353 42.5038L53.2493 42.9068ZM55.556 43.6278C55.144 43.7005 54.7211 43.6711 54.3194 43.5484L54.4874 43.0125C54.8009 43.1111 55.1392 43.1347 55.4652 43.0772L55.556 43.6278ZM57.3911 42.7633L56.4159 43.3198L56.1391 42.8348L57.1143 42.2782L57.3911 42.7633ZM55.8401 37.5429L56.8102 36.9893L57.0871 37.4743L56.1169 38.028L55.8401 37.5429ZM58.0946 41.7187L59.0648 41.1651L59.3416 41.6502L58.3715 42.2038L58.0946 41.7187ZM55.6676 42.3525C54.9783 42.7459 54.0961 42.5048 53.7027 41.8155C53.3093 41.1262 53.5504 40.244 54.2397 39.8507C54.929 39.4573 55.8083 39.6933 56.2046 40.3877C56.598 41.077 56.3569 41.9592 55.6676 42.3525ZM53.8897 38.6561L54.8649 38.0995L55.1417 38.5845L54.1665 39.1411L53.8897 38.6561Z" fill="#F5F5F7"/>
</svg>
