<svg width="88" height="88" viewBox="0 0 88 88" fill="none" xmlns="http://www.w3.org/2000/svg">
<rect x="0.580078" y="21.8916" width="68.9102" height="68.9102" rx="34.4551" transform="rotate(-17.9536 0.580078 21.8916)" fill="#1EF93B"/>
<path d="M49.2365 27.1198L29.2952 39.7865C27.9268 40.5674 26.7736 41.1917 27.1797 42.6386C28.2218 43.7293 29.343 43.0488 30.7113 42.2679L51.2063 30.5714C52.5776 29.7956 50.6049 26.3389 49.2365 27.1198Z" fill="#20262B"/>
<path d="M55.4273 33.2804C54.5182 31.6874 52.4994 31.127 50.8969 32.0077L50.8247 31.9879L30.3297 43.6844C28.9614 44.4654 27.2837 44.1706 26.2415 43.0799C26.3136 43.3366 26.4068 43.5948 26.5437 43.8348L28.161 46.6685L28.9268 46.2314L29.2037 46.7165L28.4378 47.1536L29.0963 48.3075L35.4662 59.469C36.3841 61.0773 38.4371 61.6384 40.0455 60.7206L60.5405 49.0241C62.1539 48.1033 62.71 46.0531 61.7921 44.4448L61.0869 43.2091L60.3057 43.655C60.4142 43.9044 60.5045 44.1575 60.551 44.4288L60.0012 44.5327C59.9663 44.3293 59.9 44.1302 59.8185 43.9398L57.6842 45.1578C55.3253 46.5041 52.3098 45.6799 50.9636 43.321C49.6174 40.9621 50.4416 37.9466 52.8005 36.6004L56.201 34.6597L55.4171 33.2862L55.4273 33.2804ZM60.0203 45.5507L60.57 45.6363C60.5108 46.0424 60.3793 46.4288 60.1858 46.7897L59.6923 46.5298C59.8624 46.2229 59.9683 45.8985 60.0203 45.5507ZM58.1953 47.9392L58.5067 47.7615C58.711 47.6449 58.9006 47.5028 59.0736 47.3432L59.4569 47.754C59.2541 47.9442 59.0287 48.1066 58.7887 48.2436L58.4772 48.4214L58.2004 47.9363L58.1953 47.9392ZM56.2397 49.0552L57.215 48.4987L57.4918 48.9837L56.5166 49.5403L56.2397 49.0552ZM37.9159 60.1557L36.9355 60.7152L36.6587 60.2301L37.639 59.6707L37.9159 60.1557ZM29.9043 45.6668L30.8846 45.1074L31.1614 45.5924L30.1811 46.1519L29.9043 45.6668ZM39.8765 59.0368L38.8962 59.5963L38.6194 59.1112L39.5997 58.5517L39.8765 59.0368ZM31.8598 44.5508L32.8401 43.9913L33.117 44.4764L32.1366 45.0359L31.8598 44.5508ZM41.8321 57.9208L40.8517 58.4802L40.5749 57.9952L41.5552 57.4357L41.8321 57.9208ZM33.8205 43.4319L34.8008 42.8724L35.0776 43.3575L34.0973 43.9169L33.8205 43.4319ZM43.7927 56.8018L42.8124 57.3613L42.5356 56.8762L43.5159 56.3167L43.7927 56.8018ZM35.776 42.3158L36.7563 41.7564L37.0332 42.2414L36.0528 42.8009L35.776 42.3158ZM45.7483 55.6858L44.7679 56.2452L44.4911 55.7602L45.4714 55.2007L45.7483 55.6858ZM37.7367 41.1969L38.717 40.6374L38.9938 41.1225L38.0135 41.6819L37.7367 41.1969ZM47.7038 54.5697L46.7235 55.1292L46.4467 54.6442L47.427 54.0847L47.7038 54.5697ZM39.6922 40.0809L40.6726 39.5214L40.9494 40.0064L39.969 40.5659L39.6922 40.0809ZM49.6645 53.4508L48.6841 54.0103L48.4073 53.5252L49.3877 52.9657L49.6645 53.4508ZM41.6478 38.9648L42.6281 38.4054L42.9049 38.8904L41.9246 39.4499L41.6478 38.9648ZM51.62 52.3348L50.6397 52.8942L50.3629 52.4092L51.3432 51.8497L51.62 52.3348ZM43.6084 37.8459L44.5888 37.2864L44.8656 37.7715L43.8853 38.3309L43.6084 37.8459ZM53.5756 51.2187L52.5952 51.7782L52.3184 51.2931L53.2987 50.7337L53.5756 51.2187ZM45.564 36.7298L46.5443 36.1704L46.8211 36.6554L45.8408 37.2149L45.564 36.7298ZM55.2594 49.6147L55.5362 50.0998L54.5559 50.6592L54.2791 50.1742L55.2594 49.6147ZM48.7796 35.5445L47.7993 36.104L47.5225 35.6189L48.5028 35.0594L48.7796 35.5445ZM50.7403 34.4256L49.7599 34.985L49.4831 34.5L50.4634 33.9405L50.7403 34.4256ZM52.7217 33.9716C52.3746 33.9328 52.0334 33.9516 51.6979 34.028L51.5757 33.4817C51.9761 33.3886 52.383 33.3662 52.7884 33.4124L52.7217 33.9716ZM54.5551 34.8477C54.3153 34.6054 54.0303 34.4026 53.7169 34.2566L53.9578 33.7536C54.331 33.9331 54.6678 34.1674 54.952 34.4519L54.5551 34.8477Z" fill="#20262B"/>
<path d="M51.8979 42.7865C52.7924 44.354 55.0654 45.4191 57.1589 44.2244L60.5594 42.2837L56.7363 35.5848L53.3358 37.5255C51.1913 38.7493 51.0033 41.219 51.8979 42.7865ZM53.1233 39.3119L53.5782 39.6344C53.3848 39.9004 53.2599 40.2154 53.2094 40.542L52.6568 40.4513C52.7161 40.0452 52.876 39.6493 53.1233 39.3119ZM53.4153 42.753C53.2426 42.5808 53.0925 42.389 52.9701 42.1745C52.8827 42.0214 52.8135 41.8646 52.7596 41.699L53.2869 41.5199C53.3306 41.6439 53.3852 41.7752 53.4523 41.8926C53.5484 42.0611 53.6621 42.2128 53.8013 42.35L53.4153 42.753ZM55.7221 43.474C55.31 43.5467 54.8871 43.5173 54.4854 43.3946L54.6534 42.8587C54.9669 42.9573 55.3052 42.9808 55.6312 42.9234L55.7221 43.474ZM57.5571 42.6095L56.5819 43.166L56.3051 42.681L57.2803 42.1244L57.5571 42.6095ZM56.0061 37.3891L56.9763 36.8355L57.2531 37.3205L56.2829 37.8742L56.0061 37.3891ZM58.2607 41.5649L59.2308 41.0113L59.5076 41.4963L58.5375 42.05L58.2607 41.5649ZM55.8336 42.1987C55.1443 42.5921 54.2621 42.351 53.8687 41.6617C53.4754 40.9724 53.7165 40.0902 54.4058 39.6968C55.0951 39.3035 55.9743 39.5395 56.3706 40.2339C56.764 40.9232 56.5229 41.8053 55.8336 42.1987ZM54.0557 38.5022L55.0309 37.9457L55.3077 38.4307L54.3325 38.9873L54.0557 38.5022Z" fill="#20262B"/>
</svg>
