<svg width="66" height="66" viewBox="0 0 66 66" fill="none" xmlns="http://www.w3.org/2000/svg">
<rect y="13.7773" width="53.2317" height="53.2317" rx="26.6159" transform="rotate(-15 0 13.7773)" fill="#9FFFAA"/>
<path d="M38.4758 15.807L17.5957 27.6058C16.1675 28.326 14.9657 28.8986 15.3018 30.3868C16.3013 31.5471 17.4735 30.9159 18.9017 30.1957L40.2923 19.4094C41.7232 18.6945 39.904 15.0868 38.4758 15.807Z" fill="#20262B"/>
<path d="M44.4345 22.3779C43.5961 20.7152 41.5787 20.0415 39.9079 20.8505L39.8358 20.8268L18.4451 31.6131C17.017 32.3333 15.3315 31.9467 14.332 30.7863C14.3916 31.0504 14.4726 31.317 14.5989 31.5675L16.0902 34.5251L16.8896 34.122L17.1449 34.6283L16.3455 35.0313L16.9528 36.2357L22.827 47.8849C23.6735 49.5635 25.7256 50.2399 27.4043 49.3934L48.7949 38.607C50.4789 37.7579 51.1499 35.7084 50.3034 34.0298L49.6531 32.7402L48.8378 33.1513C48.9347 33.4099 49.013 33.6712 49.046 33.9487L48.4831 34.0253C48.4583 33.8172 48.4016 33.6119 48.3289 33.4146L46.1013 34.5378C43.6393 35.7793 40.6252 34.786 39.3838 32.324C38.1423 29.862 39.1356 26.8479 41.5976 25.6064L45.1467 23.8168L44.4239 22.3833L44.4345 22.3779ZM48.4492 35.0583L49.0021 35.1739C48.9208 35.5826 48.7673 35.9674 48.5523 36.3231L48.0655 36.0339C48.254 35.7316 48.3783 35.4082 48.4492 35.0583ZM46.474 37.3845L46.7991 37.2206C47.0122 37.1131 47.212 36.9789 47.3956 36.8262L47.7628 37.2627C47.5472 37.4449 47.3102 37.5978 47.0597 37.7241L46.7346 37.8881L46.4793 37.3818L46.474 37.3845ZM44.433 38.4137L45.4508 37.9004L45.7061 38.4067L44.6883 38.9199L44.433 38.4137ZM25.2747 48.7093L24.2515 49.2253L23.9962 48.719L25.0194 48.2031L25.2747 48.7093ZM17.9101 33.6007L18.9332 33.0848L19.1885 33.5911L18.1654 34.107L17.9101 33.6007ZM27.321 47.6775L26.2979 48.1934L26.0426 47.6871L27.0657 47.1712L27.321 47.6775ZM19.9511 32.5715L20.9743 32.0556L21.2295 32.5619L20.2064 33.0778L19.9511 32.5715ZM29.362 46.6483L28.3389 47.1642L28.0836 46.658L29.1068 46.142L29.362 46.6483ZM21.9974 31.5397L23.0206 31.0237L23.2759 31.53L22.2527 32.0459L21.9974 31.5397ZM31.4084 45.6164L30.3852 46.1323L30.1299 45.6261L31.1531 45.1101L31.4084 45.6164ZM24.0384 30.5105L25.0616 29.9945L25.3169 30.5008L24.2937 31.0167L24.0384 30.5105ZM33.4494 44.5872L32.4262 45.1031L32.1709 44.5969L33.1941 44.0809L33.4494 44.5872ZM26.0848 29.4786L27.1079 28.9627L27.3632 29.4689L26.3401 29.9848L26.0848 29.4786ZM35.4904 43.558L34.4672 44.0739L34.212 43.5677L35.2351 43.0518L35.4904 43.558ZM28.1258 28.4494L29.149 27.9335L29.4042 28.4397L28.3811 28.9557L28.1258 28.4494ZM37.5368 42.5261L36.5136 43.0421L36.2583 42.5358L37.2815 42.0199L37.5368 42.5261ZM30.1668 27.4202L31.19 26.9043L31.4453 27.4105L30.4221 27.9265L30.1668 27.4202ZM39.5778 41.4969L38.5546 42.0129L38.2993 41.5066L39.3225 40.9907L39.5778 41.4969ZM32.2131 26.3883L33.2363 25.8724L33.4916 26.3786L32.4684 26.8946L32.2131 26.3883ZM41.6188 40.4677L40.5956 40.9837L40.3403 40.4774L41.3635 39.9615L41.6188 40.4677ZM34.2542 25.3591L35.2773 24.8432L35.5326 25.3495L34.5094 25.8654L34.2542 25.3591ZM43.4098 38.9296L43.6651 39.4359L42.6419 39.9518L42.3867 39.4456L43.4098 38.9296ZM37.5763 24.3256L36.5531 24.8415L36.2979 24.3353L37.321 23.8193L37.5763 24.3256ZM39.6226 23.2937L38.5995 23.8097L38.3442 23.3034L39.3674 22.7875L39.6226 23.2937ZM41.6553 22.9372C41.3054 22.8796 40.9584 22.8808 40.6143 22.9407L40.519 22.3805C40.9298 22.3071 41.3435 22.3056 41.7521 22.3737L41.6553 22.9372ZM43.4682 23.9212C43.2378 23.6631 42.9595 23.4425 42.6493 23.2781L42.9199 22.7807C43.2889 22.9823 43.6181 23.2374 43.8913 23.5408L43.4682 23.9212Z" fill="#20262B"/>
<path d="M40.3567 31.8274C41.1816 33.4634 43.4304 34.6622 45.6153 33.5604L49.1644 31.7707L45.6388 24.7791L42.0897 26.5688C39.8515 27.6974 39.5317 30.1914 40.3567 31.8274ZM41.7809 28.3687L42.2251 28.7196C42.0152 28.9792 41.8721 29.2919 41.8038 29.6205L41.2482 29.4996C41.3296 29.0909 41.5124 28.698 41.7809 28.3687ZM41.8969 31.8728C41.7308 31.6892 41.5886 31.4869 41.4758 31.2631C41.3951 31.1032 41.3332 30.9406 41.2872 30.7699L41.8312 30.6159C41.869 30.7439 41.9175 30.8799 41.9793 31.0025C42.068 31.1783 42.1753 31.3381 42.3093 31.4844L41.8969 31.8728ZM44.1978 32.7245C43.7763 32.7766 43.3491 32.7247 42.9482 32.5793L43.1466 32.0448C43.4593 32.1611 43.801 32.2027 44.1345 32.1615L44.1978 32.7245ZM46.1036 31.944L45.0857 32.4572L44.8305 31.951L45.8483 31.4377L46.1036 31.944ZM44.8042 26.5702L45.8167 26.0596L46.072 26.5659L45.0594 27.0765L44.8042 26.5702ZM46.8715 30.9218L47.884 30.4112L48.1393 30.9175L47.1268 31.428L46.8715 30.9218ZM44.3776 31.4374C43.6582 31.8001 42.7764 31.5095 42.4137 30.7901C42.0509 30.0707 42.3415 29.1889 43.0609 28.8262C43.7803 28.4634 44.6594 28.7487 45.0249 29.4734C45.3877 30.1928 45.097 31.0746 44.3776 31.4374ZM42.7685 27.5967L43.7863 27.0834L44.0416 27.5897L43.0238 28.103L42.7685 27.5967Z" fill="#20262B"/>
</svg>
